<ttFont>
          <CharString index="0">
            -104 callsubr
            -25 48 hvcurveto
            return
          </CharString>
          <CharString index="1">
            vvcurveto
            -52 33 -21 25 54 13 -105 callgsubr
          </CharString>
          <CharString index="2">
            -107 callgsubr
            endchar
          </CharString>
          <CharString index="3">
            -99 callsubr
            -31 21 return
          </CharString>
          <CharString index="4">
            -98 callsubr
            -20 return
          </CharString>
          <CharString index="5">
            vvcurveto
            78 -48 70 -81 -152 -98 -128 -146 -93 callsubr
            return
          </CharString>
          <CharString index="6">
            -91 callsubr
            -17 -13 -27 -35 hvcurveto
            210 callsubr
            return
          </CharString>
          <CharString index="7">
            554 -100 callgsubr
            return
          </CharString>
          <CharString index="8">
            -48 -21 -21 -31 return
          </CharString>
          <CharString index="9">
            20 29 27 27 return
          </CharString>
          <CharString index="10">
            -75 -96 callgsubr
            return
          </CharString>
          <CharString index="11">
            hlineto
            -12 -99 callgsubr
            return
          </CharString>
          <CharString index="12">
            -38 5 -26 -40 hhcurveto
            -24 -27 36 51 89 68 77 73 25 6 -28 -30 hvcurveto
            -24 -7 -28 -23 vvcurveto
            -24 7 -18 31 return
          </CharString>
          <CharString index="13">
            hhcurveto
            -48 -42 11 25 62 117 139 50 hvcurveto
            52 2 -47 26 hhcurveto
            24 25 20 28 6 hvcurveto
            2 9 1 11 12 vvcurveto
            66 15 48 13 35 vhcurveto
            return
          </CharString>
          <CharString index="14">
            -54 callgsubr
            vhcurveto
            -95 callsubr
            return
          </CharString>
          <CharString index="15">
            hlineto
            -94 callgsubr
            return
          </CharString>
          <CharString index="16">
            -92 callsubr
            hvcurveto
            -82 -1 48 -48 hhcurveto
            return
          </CharString>
          <CharString index="17">
            5 hlineto
            -22 -60 -18 -63 -16 -53 rrcurveto
            29 -43 -44 21 -45 hhcurveto
            -46 -45 -24 -58 -98 118 -90 54 42 31 29 51 28 hvcurveto
            26 -20 25 -20 23 -15 rrcurveto
            -35 52 51 -14 43 hhcurveto
            44 53 13 30 19 -20 8 -45 -77 -71 56 56 -71 hvcurveto
            12 33 11 37 12 42 13 46 22 55 21 46 rrcurveto
            73 25 63 44 49 vvcurveto
            41 -30 37 -42 -56 -42 -43 -62 -35 vhcurveto
            -3 -15 -18 -1 -20 -56 callgsubr
          </CharString>
          <CharString index="18">
            108 -106 callgsubr
            return
          </CharString>
          <CharString index="19">
            0 callsubr
            -29 -97 -23 vvcurveto
            -44 55 -47 20 35 24 -102 callgsubr
            return
          </CharString>
          <CharString index="20">
            hlineto
            -1 -15 0 -15 -16 vvcurveto
            -33 -1 -35 -3 -35 vhcurveto
            2 -18 -17 1 -17 hhcurveto
            -95 -76 -28 -86 -84 82 -114 84 141 40 241 162 20 -1 18 -2 17 hvcurveto
            return
          </CharString>
          <CharString index="21">
            -107 callsubr
            47 hlineto
            -7 -30 -6 -31 -6 -31 -50 -33 -54 -23 -58 -19 rrcurveto
            24 39 15 42 37 vvcurveto
            89 -46 53 -92 -89 -119 -65 -73 -25 48 -49 16 11 14 8 4 7 vhcurveto
            11 7 0 11 19 vvcurveto
            24 60 24 38 29 9 -6 -27 -47 -38 -53 -50 -42 vhcurveto
            1 -12 -11 1 -12 hhcurveto
            -71 -31 -13 -29 -27 52 -49 31 24 26 8 13 26 hvcurveto
            12 -10 7 -16 -23 vvcurveto
            -62 -67 -24 -65 -65 -48 44 61 26 -26 22 -21 -37 -23 -27 -49 -83 81 -100 138 150 105 73 119 29 -9 25 -16 20 vhcurveto
            50 9 50 11 48 17 rrcurveto
            -26 -115 -19 -95 -53 vvcurveto
            -24 52 -38 26 34 34 183 133 30 vhcurveto
            19 84 33 109 9 46 rrcurveto
            return
          </CharString>
          <CharString index="22">
            -73 callsubr
            13 -103 callgsubr
            return
          </CharString>
          <CharString index="23">
            -16 -23 -47 -33 -39 59 -90 29 116 callsubr
            40 -37 130 -43 hvcurveto
            return
          </CharString>
          <CharString index="24">
            2 hlineto
            -10 -37 -6 -38 -38 vvcurveto
            -65 15 -98 41 61 -28 110 95 17 vhcurveto
            4 callgsubr
            159 -107 callgsubr
            endchar
          </CharString>
          <CharString index="25">
            -69 callsubr
            35 return
          </CharString>
          <CharString index="26">
            rmoveto
            -84 callsubr
            return
          </CharString>
          <CharString index="27">
            rmoveto
            -16 -28 36 23 18 30 12 46 8 hvcurveto
            -56 -7 -11 -41 -14 hhcurveto
            -99 167 callsubr
            148 -61 callsubr
            return
          </CharString>
          <CharString index="28">
            -102 callgsubr
            106 5 return
          </CharString>
          <CharString index="29">
            -64 callgsubr
            112 -105 callsubr
          </CharString>
          <CharString index="30">
            rmoveto
            32 37 16 34 37 38 -25 -56 -6 0 -6 -1 -5 vhcurveto
            -2 -19 -22 -3 -24 hhcurveto
            -45 -35 19 36 hvcurveto
            -210 -184 rmoveto
            -42 callsubr
            -112 -89 -68 -93 11 callsubr
            return
          </CharString>
          <CharString index="31">
            rmoveto
            -27 -45 55 27 33 38 14 54 5 hvcurveto
            2 -26 4 -29 -21 vvcurveto
            -33 -7 -25 -19 vhcurveto
            return
          </CharString>
          <CharString index="32">
            -95 callsubr
            36 100 95 50 56 vhcurveto
            11 10 12 10 12 11 -7 -50 rcurveline
            return
          </CharString>
          <CharString index="33">
            662 -106 callgsubr
            return
          </CharString>
          <CharString index="34">
            vvcurveto
            -52 33 -21 25 54 return
          </CharString>
          <CharString index="35">
            -11 -49 -9 -40 -15 171 callsubr
            134 119 27 vhcurveto
            60 80 69 53 30 hhcurveto
            10 5 -4 -9 hvcurveto
            -118 -126 -72 80 callgsubr
            147 92 63 -65 79 -67 -35 -47 -24 -33 -50 vhcurveto
            12 58 9 58 3 34 rrcurveto
            289 -105 callsubr
          </CharString>
          <CharString index="36">
            -15 -15 0 -15 hhcurveto
            8 65 2 63 48 4 0 3 4 vvcurveto
            -169 -393 -80 callsubr
            return
          </CharString>
          <CharString index="37">
            rmoveto
            -22 -25 56 19 19 21 11 39 11 13 -1 -2 14 hvcurveto
            -59 -11 -17 -43 -23 hhcurveto
            return
          </CharString>
          <CharString index="38">
            157 155 return
          </CharString>
          <CharString index="39">
            -30 -37 -48 -30 -56 -63 -2 15 -29 hhcurveto
            -20 -7 -9 -20 -27 16 -21 23 -16 hvcurveto
            -58 -12 -77 -42 -83 hhcurveto
            -24 -6 4 26 57 30 97 81 32 hvcurveto
            23 9 33 2 27 vvcurveto
            25 -57 32 -41 return
          </CharString>
          <CharString index="40">
            35 24 157 -49 callgsubr
            return
          </CharString>
          <CharString index="41">
            -59 48 46 -66 36 hhcurveto
            27 20 14 25 21 -33 63 -55 75 hvcurveto
            -14 18 rlineto
            160 22 102 129 126 vvcurveto
            return
          </CharString>
          <CharString index="42">
            hlineto
            -7 -50 -8 -58 -8 -53 rrcurveto
            43 -18 -32 36 -56 hhcurveto
            -123 -121 -192 -91 -51 78 -59 48 return
          </CharString>
          <CharString index="43">
            -45 -38 -12 -20 -29 vvcurveto
            -22 17 -24 22 22 17 17 20 36 vhcurveto
            96 53 36 1 49 vvcurveto
            38 -32 46 -32 return
          </CharString>
          <CharString index="44">
            hhcurveto
            32 43 133 142 34 hvcurveto
            25 106 21 109 9 65 rrcurveto
            return
          </CharString>
          <CharString index="45">
            4 hlineto
            -7 -26 -4 -26 -2 -25 rrcurveto
            9 -25 -28 5 -26 hhcurveto
            -49 -68 -36 -47 -64 hvcurveto
            -76 -56 -50 -68 -29 vvcurveto
            -21 13 -14 23 30 49 58 49 70 vhcurveto
            39 55 45 14 34 hhcurveto
            71 12 -23 -6 31 hvcurveto
            -1 4 4 -1 4 hhcurveto
            2 hlineto
            3 hlineto
            2 2 1 1 2 hvcurveto
            17 8 5 29 4 43 2 22 4 28 6 26 6 24 9 23 9 22 rrcurveto
            73 24 63 44 49 vvcurveto
            41 -30 37 -42 -47 -50 -44 -62 -37 vhcurveto
            -2 -15 -17 122 callgsubr
            20 21 14 21 10 hvcurveto
            6 11 2 16 18 vvcurveto
            66 15 48 13 35 vhcurveto
            134 -105 callsubr
          </CharString>
          <CharString index="46">
            -4 hlineto
            -38 -2 -77 -5 -76 vhcurveto
            -116 -14 -83 -35 -81 -20 callsubr
            return
          </CharString>
          <CharString index="47">
            rmoveto
            59 -74 53 -28 -23 -7 -13 -20 vhcurveto
            -91 -80 -198 -196 vvcurveto
            -86 87 -131 93 209 141 346 216 98 -100 76 -33 -20 -6 -12 -19 vhcurveto
            -33 13 -16 -99 vvcurveto
            -215 -126 -203 -68 -33 -17 48 50 vhcurveto
            125 72 189 72 vvcurveto
            return
          </CharString>
          <CharString index="48">
            4 -20 4 -25 -28 vvcurveto
            -93 -76 -153 -57 -25 -10 43 51 107 47 74 7 44 vhcurveto
            -281 -89 callsubr
            147 -30 callsubr
            return
          </CharString>
          <CharString index="49">
            247 callsubr
            -274 108 rmoveto
            -24 callsubr
            return
          </CharString>
          <CharString index="50">
            -38 7 54 -57 34 36 14 52 43 hhcurveto
            22 8 -9 -21 -67 -65 -56 -88 -28 hvcurveto
            33 -25 -30 25 -48 hhcurveto
            return
          </CharString>
          <CharString index="51">
            -13 -22 -9 -27 -2 -29 rrcurveto
            4 -15 -16 3 -16 hhcurveto
            return
          </CharString>
          <CharString index="52">
            rmoveto
            16 -25 -32 10 -37 246 callsubr
            -62 41 -50 60 -16 hvcurveto
            -32 -60 -68 -17 -68 -53 callsubr
            262 hlineto
            -91 -247 rmoveto
            -37 -37 23 24 319 callsubr
            hvcurveto
            return
          </CharString>
          <CharString index="53">
            -17 -68 -14 -100 -22 -98 rrcurveto
            101 -17 -47 123 -88 hhcurveto
            return
          </CharString>
          <CharString index="54">
            hhcurveto
            -52 -34 23 31 -27 hvcurveto
            129 38 78 114 99 vvcurveto
            23 -3 22 -6 20 vhcurveto
            return
          </CharString>
          <CharString index="55">
            314 callgsubr
            -120 224 -48 -77 vvcurveto
            -20 -19 -15 -31 -8 vhcurveto
            82 -39 -49 73 -84 hhcurveto
            -72 -56 -40 -69 -90 95 -65 132 hvcurveto
            8 7 0 8 hhcurveto
            -121 51 51 -96 44 hhcurveto
            20 11 9 19 38 -44 67 -41 96 hvcurveto
            79 18 47 40 61 return
          </CharString>
          <CharString index="56">
            86 -45 callgsubr
            return
          </CharString>
          <CharString index="57">
            -65 callsubr
            31 66 22 33 79 hvcurveto
            -9 -39 -6 -31 -13 271 callsubr
            return
          </CharString>
          <CharString index="58">
            rmoveto
            15 21 -13 -10 -31 -55 -14 -66 -4 hvcurveto
            42 31 31 30 23 hhcurveto
            -358 127 callgsubr
            395 hlineto
            -5 -15 -3 -17 -1 -17 rrcurveto
            4 -13 -13 3 -13 hhcurveto
            -127 -246 -185 -132 -40 40 -77 35 -20 hvcurveto
            return
          </CharString>
          <CharString index="59">
            23 callgsubr
            95 224 callgsubr
            return
          </CharString>
          <CharString index="60">
            146 callgsubr
            -491 108 rmoveto
            146 callsubr
            return
          </CharString>
          <CharString index="61">
            -15 -105 -20 -115 -23 -85 callsubr
            return
          </CharString>
          <CharString index="62">
            -49 callsubr
            17 -10 19 -7 21 -6 rrcurveto
            -51 -54 -58 -77 -21 -35 callgsubr
            35 -50 75 -5 94 hvcurveto
            132 5 127 49 86 vvcurveto
            55 -91 101 -65 -68 -93 -94 -85 -49 vhcurveto
            74 callgsubr
          </CharString>
          <CharString index="63">
            6 35 10 30 11 26 rrcurveto
            75 25 65 44 50 vvcurveto
            41 -30 37 -42 return
          </CharString>
          <CharString index="64">
            hlineto
            -25 -68 -14 -88 -66 vvcurveto
            -93 17 -94 68 62 61 25 29 53 vhcurveto
            -10 -63 -8 -51 -15 vvcurveto
            -52 33 -21 25 52 14 return
          </CharString>
          <CharString index="65">
            31 callgsubr
            108 -78 81 -128 return
          </CharString>
          <CharString index="66">
            162 callsubr
            75 2 92 12 79 22 rrcurveto
            -14 -91 -15 -88 -20 -106 callsubr
          </CharString>
          <CharString index="67">
            vvcurveto
            136 callsubr
            vhcurveto
            -83 callsubr
          </CharString>
          <CharString index="68">
            hlineto
            -2 -15 -1 -16 -16 vvcurveto
            -16 vlineto
            6 -12 -12 4 -10 hhcurveto
            -79 -143 -70 -49 -30 38 -53 41 -12 hvcurveto
            83 -24 77 -8 -29 vvcurveto
            -24 -29 -20 -56 -66 -29 22 161 callsubr
            -25 -30 return
          </CharString>
          <CharString index="69">
            110 109 27 58 86 return
          </CharString>
          <CharString index="70">
            91 -134 -16 115 vvcurveto
            44 35 30 87 return
          </CharString>
          <CharString index="71">
            -85 callsubr
            112 -105 callsubr
          </CharString>
          <CharString index="72">
            rmoveto
            -7 -11 -17 -4 -19 hhcurveto
            -37 -37 23 24 21 17 21 30 36 48 -40 -22 -3 -1 -2 -1 -3 hvcurveto
            return
          </CharString>
          <CharString index="73">
            -24 -22 -22 -16 -38 80 -16 55 -27 hvcurveto
            -49 101 80 -56 32 hhcurveto
            13 6 7 15 55 -247 147 -74 hvcurveto
            return
          </CharString>
          <CharString index="74">
            -12 -20 -18 -25 -31 -30 -48 -46 -47 -41 -39 -37 rrcurveto
            74 -5 -47 63 -77 hhcurveto
            return
          </CharString>
          <CharString index="75">
            82 callgsubr
            vhcurveto
            -78 callsubr
          </CharString>
          <CharString index="76">
            rmoveto
            -18 -47 -13 -47 -65 hvcurveto
            50 -60 -13 44 -45 hhcurveto
            -28 -17 -25 -29 -55 125 -107 25 25 23 29 29 39 hvcurveto
            43 32 50 27 30 vvcurveto
            23 -12 12 -25 vhcurveto
            return
          </CharString>
          <CharString index="77">
            hlineto
            -27 -74 -18 -75 -93 vvcurveto
            -100 55 -91 83 150 123 189 145 callsubr
            vhcurveto
            return
          </CharString>
          <CharString index="78">
            -250 151 712 rmoveto
            -3 -104 -98 -446 -44 vvcurveto
            -28 60 -77 28 30 19 127 145 30 vhcurveto
            36 174 33 114 34 vvcurveto
            60 -76 78 -28 -22 -8 -12 -21 -1 vhcurveto
            return
          </CharString>
          <CharString index="79">
            -8 -39 -8 -35 -6 -27 rrcurveto
            10 -24 -27 6 -25 hhcurveto
            -45 -62 -31 -42 -57 hvcurveto
            -79 -58 -69 -78 -37 149 callsubr
            62 59 49 61 vhcurveto
            43 54 43 20 34 hhcurveto
            30 22 -10 -10 19 hvcurveto
            -11 20 17 -11 22 hhcurveto
            0 1 vlineto
            34 24 151 151 34 hvcurveto
            37 68 59 37 30 hhcurveto
            8 1 -12 -19 -51 -27 -100 -40 -26 hvcurveto
            -22 -14 -27 11 -26 vvcurveto
            -33 53 -46 34 101 47 209 109 67 -36 52 -63 -48 -53 -22 -28 -54 vhcurveto
            9 45 7 39 2 26 rrcurveto
            308 -105 callsubr
          </CharString>
          <CharString index="80">
            1 8 0 7 139 callsubr
            return
          </CharString>
          <CharString index="81">
            rmoveto
            -22 -4 -21 -21 -21 -20 9 14 14 23 23 37 19 vhcurveto
            4 -11 2 -12 -13 vvcurveto
            return
          </CharString>
          <CharString index="82">
            -56 -40 -107 -103 -49 vvcurveto
            -16 24 -21 16 20 47 56 52 53 vhcurveto
            47 47 52 51 39 30 rrcurveto
            -7 -31 -10 -29 -18 326 callgsubr
            43 128 122 23 vhcurveto
            48 47 97 68 275 callsubr
            -117 -126 -73 -50 vvcurveto
            -18 25 -14 18 return
          </CharString>
          <CharString index="83">
            -107 callsubr
            138 -43 callsubr
            143 return
          </CharString>
          <CharString index="84">
            25 -45 95 -29 -29 -34 -43 -29 -33 55 -57 36 return
          </CharString>
          <CharString index="85">
            304 callsubr
            -123 -121 -192 -91 -51 78 -59 48 return
          </CharString>
          <CharString index="86">
            rmoveto
            41 -33 -44 36 -51 hhcurveto
            -30 -28 -11 -19 -26 hvcurveto
            -61 -39 -74 -41 -78 -40 17 79 18 94 4 48 rrcurveto
            407 hlineto
            -259 -338 rmoveto
            33 74 123 41 42 36 -32 -30 28 vhcurveto
            -59 -78 -74 -52 -48 hhcurveto
            -14 -7 6 11 hvcurveto
            -320 52 rmoveto
            -45 -87 -63 -34 -45 -22 callgsubr
            41 18 -56 -37 16 hvcurveto
            -293 320 callgsubr
            336 -22 callsubr
            40 63 20 32 72 273 callsubr
            42 28 94 101 24 vhcurveto
            39 20 39 22 38 23 rrcurveto
            -6 -22 -4 -21 -17 288 callgsubr
            50 65 33 44 68 vhcurveto
            -12 -54 -10 -45 -16 0 callgsubr
            52 31 144 121 28 vhcurveto
            60 79 68 51 275 callsubr
            -118 -126 -72 80 callgsubr
            147 92 63 -65 79 -67 -35 -45 -23 -33 -50 vhcurveto
            11 55 8 52 3 32 rrcurveto
            return
          </CharString>
          <CharString index="87">
            109 callgsubr
            100 117 23 vhcurveto
            1 23 23 0 24 return
          </CharString>
          <CharString index="88">
            -47 8 15 -41 27 hhcurveto
            61 -28 110 95 17 hvcurveto
            4 callgsubr
            return
          </CharString>
          <CharString index="89">
            rmoveto
            25 23 29 29 39 hvcurveto
            43 32 50 27 30 vvcurveto
            23 -12 12 -25 -18 -47 -13 -47 -65 vhcurveto
            50 -60 -13 44 -45 hhcurveto
            -28 -17 -25 -29 -55 125 -107 25 hvcurveto
            return
          </CharString>
          <CharString index="90">
            -15 -15 0 -15 hhcurveto
            8 65 2 63 48 4 0 3 4 vvcurveto
            return
          </CharString>
          <CharString index="91">
            -60 callgsubr
            203 165 127 callsubr
            -25 -167 -27 -3 -33 -5 -46 -5 rlinecurve
            9 40 4 42 41 141 callsubr
            return
          </CharString>
          <CharString index="92">
            157 155 35 vhcurveto
            5 callsubr
          </CharString>
          <CharString index="93">
            rmoveto
            146 126 93 114 hvcurveto
            145 -223 113 40 vvcurveto
            22 46 21 75 29 vhcurveto
            68 26 87 0 32 vvcurveto
            42 -34 58 -54 -87 -131 -59 -71 -72 vhcurveto
            -23 -20 -17 -59 -42 -70 226 -152 -53 vvcurveto
            -31 -89 -61 -57 vhcurveto
            -93 -29 96 -59 hhcurveto
            -22 -9 -24 -30 -66 84 -93 141 hvcurveto
            endchar
          </CharString>
          <CharString index="94">
            rmoveto
            13 57 3 35 36 vvcurveto
            22 -10 25 -15 23 vhcurveto
            11 27 31 11 35 hhcurveto
            60 22 -16 -26 -78 -102 -53 -64 -47 hvcurveto
            182 -198 rmoveto
            -49 49 -26 26 35 26 213 82 168 vvcurveto
            103 -101 70 -143 -134 -116 -59 -37 -24 24 -43 25 -20 vhcurveto
            -13 -232 -88 -154 -66 vvcurveto
            -31 56 -70 32 24 21 84 107 37 vhcurveto
            7 21 7 20 6 18 rrcurveto
            -106 43 131 -144 111 hhcurveto
            42 15 18 23 29 -63 47 -61 60 hvcurveto
            endchar
          </CharString>
          <CharString index="95">
            35 16 39 53 hhcurveto
            25 14 -20 -22 -63 -46 -73 -97 hvcurveto
            -29 -49 44 -28 hhcurveto
            -17 -14 -27 -35 -21 13 -22 21 -19 hvcurveto
            27 -29 41 -36 36 -52 rrcurveto
            -108 76 24 -42 25 hhcurveto
            28 14 11 24 28 -19 61 -55 78 hvcurveto
            -8 11 -8 11 -9 11 rrcurveto
            135 31 65 118 90 vvcurveto
            28 -4 25 -9 return
          </CharString>
          <CharString index="96">
            3 143 161 53 callsubr
            372 501 rmoveto
            -28 23 -72 13 66 vvcurveto
            253 callgsubr
            -49 20 -42 31 -29 hvcurveto
            -198 -66 callgsubr
            253 -2 hlineto
            -25 0 -27 1 -25 vhcurveto
            13 -34 -41 -52 callsubr
            160 -208 29 46 vvcurveto
            11 7 4 17 vhcurveto
            67 41 -39 31 hhcurveto
            6 4 1 1 4 hvcurveto
            2 1 2 1 2 2 3 2 2 3 2 4 rrcurveto
            17 30 9 76 53 vvcurveto
            9 -1 8 -2 7 vhcurveto
            127 -107 callgsubr
            return
          </CharString>
          <CharString index="97">
            -34 callgsubr
            -114 -153 -201 -106 return
          </CharString>
          <CharString index="98">
            -53 -106 -123 124 -131 81 62 callsubr
            return
          </CharString>
          <CharString index="99">
            160 callgsubr
            -1 vlineto
            31 callgsubr
            return
          </CharString>
          <CharString index="100">
            5 callgsubr
            -86 -144 -72 -57 -29 46 -75 41 -12 hvcurveto
            -11 callgsubr
            return
          </CharString>
          <CharString index="101">
            14 51 12 109 28 138 14 68 rcurveline
            123 58 104 92 123 vvcurveto
            65 -34 66 -69 -156 -33 -161 -159 -26 vhcurveto
            -28 -75 -75 -17 -42 hhcurveto
            -5 -3 1 2 43 88 70 53 41 hvcurveto
            23 18 9 18 17 vvcurveto
            22 -16 8 -29 vhcurveto
            -26 -35 -13 -31 hhcurveto
            -17 -5 4 11 36 104 83 55 hvcurveto
            24 -5 -15 17 hhcurveto
            12 18 34 25 17 -5 13 -10 9 hvcurveto
            346 -105 callsubr
          </CharString>
          <CharString index="102">
            198 -105 callsubr
          </CharString>
          <CharString index="103">
            100 -53 79 -112 -92 -73 -69 -47 -35 23 -16 30 vhcurveto
            57 6 72 78 hhcurveto
            24 6 -19 -27 -88 -60 -117 -124 -14 -7 7 13 hvcurveto
            22 13 11 20 vvcurveto
            14 -8 8 -18 -42 -36 -42 -43 -58 47 -51 89 return
          </CharString>
          <CharString index="104">
            hlineto
            -24 -157 rlineto
            46 -82 -143 40 -86 181 callgsubr
            -12 38 -15 30 -12 -42 -23 -51 -32 -47 -29 20 callgsubr
            31 19 34 20 32 19 rrcurveto
            -10 -65 -8 -53 73 callsubr
          </CharString>
          <CharString index="105">
            -25 44 56 -10 81 hhcurveto
            140 144 50 91 55 -91 101 -65 -68 -93 -94 -85 -49 hvcurveto
            -28 11 -14 19 31 vvcurveto
            55 192 136 51 vhcurveto
            47 19 -40 26 hhcurveto
            return
          </CharString>
          <CharString index="106">
            rmoveto
            -41 -15 -50 -13 -48 -10 rrcurveto
            24 39 14 44 46 -28 callgsubr
            140 hlineto
            return
          </CharString>
          <CharString index="107">
            -12 -82 rrcurveto
            -15 -105 return
          </CharString>
          <CharString index="108">
            rmoveto
            -41 -59 -26 -41 -46 hvcurveto
            46 -15 -30 16 -24 hhcurveto
            -28 -7 -24 -32 hvcurveto
            -28 6 -38 -47 vvcurveto
            -28 -2 -32 -7 -36 vhcurveto
            -12 -65 -33 -54 -37 vvcurveto
            -38 17 -56 43 48 31 87 141 33 vhcurveto
            24 105 55 43 46 29 rrcurveto
            40 26 34 16 38 vvcurveto
            26 -30 9 -43 vhcurveto
            return
          </CharString>
          <CharString index="109">
            -106 callgsubr
            308 -7 callgsubr
            return
          </CharString>
          <CharString index="110">
            rmoveto
            40 3 45 8 47 vhcurveto
            39 -74 52 -82 40 -50 rrcurveto
            -17 -36 -39 -12 -43 hhcurveto
            292 callgsubr
            hvcurveto
            return
          </CharString>
          <CharString index="111">
            -92 86 -62 119 9 8 0 1 8 vhcurveto
            -30 -34 -48 -19 -48 return
          </CharString>
          <CharString index="112">
            20 89 22 106 5 50 55 callgsubr
          </CharString>
          <CharString index="113">
            rmoveto
            -38 -80 -71 -29 -42 95 callgsubr
            return
          </CharString>
          <CharString index="114">
            22 callgsubr
            -164 168 callgsubr
            330 250 callgsubr
            return
          </CharString>
          <CharString index="115">
            -11 -51 -11 -51 -11 -61 rrcurveto
            14 -57 -61 7 -60 hhcurveto
            return
          </CharString>
          <CharString index="116">
            -70 callsubr
            -116 71 callgsubr
            184 -87 callsubr
            205 274 callsubr
            -9 -63 -14 -63 -10 -44 rrcurveto
            11 -22 -25 7 -27 hhcurveto
            -50 -67 -45 -54 -57 hvcurveto
            -62 -59 -49 -70 -35 vvcurveto
            -24 15 -11 21 33 43 52 51 50 vhcurveto
            44 43 45 47 42 hhcurveto
            36 23 -23 -18 23 hvcurveto
            -11 14 15 -8 18 hhcurveto
            1 hlineto
            1 hlineto
            -67 callsubr
            58 -105 callsubr
          </CharString>
          <CharString index="117">
            590 80 rmoveto
            295 callgsubr
            hvcurveto
            7 33 12 67 6 46 rrcurveto
            270 hlineto
            47 -103 callsubr
            25 -48 hvcurveto
            -736 309 callsubr
            -22 -155 rlineto
            40 287 callsubr
            -105 -120 -184 -91 -26 35 -60 65 15 17 4 7 18 hvcurveto
            -25 callsubr
            vhcurveto
            -394 117 141 callgsubr
            return
          </CharString>
          <CharString index="118">
            58 callgsubr
            -17 -13 -27 -35 hvcurveto
            return
          </CharString>
          <CharString index="119">
            rmoveto
            319 callsubr
            -37 -37 23 24 vhcurveto
            -505 279 -106 callgsubr
            67 121 callgsubr
            -59 -49 -82 -26 hvcurveto
            33 -28 -32 26 -48 hhcurveto
            -47 -29 -29 -38 -54 47 -30 58 -9 hvcurveto
            -86 60 88 -65 106 hhcurveto
            27 31 6 10 33 hvcurveto
            -107 -88 -96 -60 -37 vvcurveto
            -21 10 -14 26 103 309 284 159 61 vhcurveto
            2 4 2 4 1 4 rrcurveto
            0 vlineto
            3 10 2 10 10 vvcurveto
            66 -59 79 -104 222 callgsubr
            -63 42 -51 63 -15 vhcurveto
            242 callgsubr
            331 -105 callsubr
          </CharString>
          <CharString index="120">
            -106 callgsubr
            494 hlineto
            -18 -121 rlineto
            -27 -37 -49 -28 -56 -52 -9 11 -29 hhcurveto
            -20 -7 -9 -20 -17 9 -16 14 -13 hvcurveto
            -65 -1 -80 -38 -72 30 callsubr
            vhcurveto
            2 vlineto
            33 2 38 8 35 14 -11 -71 -17 -68 -9 -41 rrcurveto
            6 -18 -20 4 -20 hhcurveto
            -54 -74 -34 -43 -63 hvcurveto
            -74 -50 -60 -62 -33 143 callsubr
            38 20 -11 -8 22 hvcurveto
            -4 12 13 -3 16 hhcurveto
            35 24 157 155 35 hvcurveto
            5 callsubr
          </CharString>
          <CharString index="121">
            rmoveto
            -15 -17 31 16 20 46 8 58 6 hvcurveto
            -48 -24 -27 -33 -21 hhcurveto
            return
          </CharString>
          <CharString index="122">
            -100 callsubr
            -392 return
          </CharString>
          <CharString index="123">
            vvcurveto
            -19 60 2 23 -18 vhcurveto
            -70 -35 -91 12 -33 vvcurveto
            -15 30 -23 41 105 104 55 58 1 vhcurveto
            33 -63 27 -32 4 vhcurveto
            return
          </CharString>
          <CharString index="124">
            rmoveto
            239 callgsubr
            -55 -37 16 vhcurveto
            -50 -76 -71 -30 -48 hhcurveto
            -12 -5 4 10 hvcurveto
            618 351 rmoveto
            -82 -41 -95 -72 -88 -68 15 69 13 72 3 40 rrcurveto
            return
          </CharString>
          <CharString index="125">
            8 34 5 30 20 vvcurveto
            47 -78 48 -29 -23 -7 -12 -18 -52 -8 -55 -11 -54 vhcurveto
            -90 -13 -65 -19 -22 vvcurveto
            -33 36 -47 31 11 20 4 7 25 vhcurveto
            -34 -116 -38 -99 -44 vvcurveto
            -51 81 -55 39 103 104 87 46 18 -4 12 -21 vhcurveto
            -26 -91 -45 -39 hhcurveto
            -9 -3 0 6 12 21 59 18 58 hvcurveto
            13 43 17 51 15 50 rrcurveto
            return
          </CharString>
          <CharString index="126">
            -163 -82 -9 callsubr
            return
          </CharString>
          <CharString index="127">
            rmoveto
            -33 -27 22 32 -23 hvcurveto
            78 80 68 76 17 hhcurveto
            6 4 -3 -8 -68 -31 -129 -61 hvcurveto
            -336 5 rmoveto
            -11 -6 4 11 39 56 123 42 30 24 -35 -31 24 hvcurveto
            -61 -62 -58 -50 -39 hhcurveto
            -93 532 317 callgsubr
            hlineto
            -10 -25 -5 -26 -20 vvcurveto
            -9 1 -9 2 -8 vhcurveto
            -46 -7 -71 -71 -73 -74 rrcurveto
            60 -28 -55 67 -70 hhcurveto
            -127 -83 -208 -85 -63 84 -60 68 47 64 45 57 64 hvcurveto
            -59 37 50 -42 74 hhcurveto
            132 69 171 136 33 -22 40 -30 28 hvcurveto
            10 17 7 29 15 32 8 18 7 17 4 16 rrcurveto
            143 -105 callsubr
          </CharString>
          <CharString index="128">
            56 -2 72 22 45 hvcurveto
            -61 33 50 -44 43 hhcurveto
            49 67 84 59 31 -15 17 -25 -52 -11 -66 -15 -25 hvcurveto
            16 -31 -15 76 -85 hhcurveto
            return
          </CharString>
          <CharString index="129">
            rmoveto
            -24 -23 35 23 11 5 8 14 17 23 -12 -17 27 hvcurveto
            -30 -13 -12 -18 -14 hhcurveto
            return
          </CharString>
          <CharString index="130">
            hhcurveto
            -13 -7 41 42 73 10 64 22 62 hvcurveto
            return
          </CharString>
          <CharString index="131">
            hlineto
            -29 callgsubr
            return
          </CharString>
          <CharString index="132">
            -60 callgsubr
            279 165 106 callgsubr
            -95 -67 -75 -88 -35 hvcurveto
            -42 -62 -3 -7 -101 hvcurveto
            13 52 7 54 52 141 callsubr
            return
          </CharString>
          <CharString index="133">
            337 58 callsubr
            -102 325 -106 callgsubr
            400 hlineto
            -9 -60 -8 -55 -9 -56 rrcurveto
            63 -91 -150 63 -66 160 callsubr
            39 -8 37 -19 36 -25 -45 -23 -82 -41 326 callsubr
            -43 -16 -40 vvcurveto
            -27 16 -24 38 31 31 30 64 105 vhcurveto
            38 23 44 25 39 25 rrcurveto
            -11 -48 -9 -36 -13 vvcurveto
            -44 55 -47 20 35 24 -103 callgsubr
            150 -105 callsubr
          </CharString>
          <CharString index="134">
            vvcurveto
            27 16 31 36 vhcurveto
            74 -465 rmoveto
            13 9 -9 -13 -20 -22 -27 -65 -7 hvcurveto
            45 8 20 31 37 hhcurveto
            return
          </CharString>
          <CharString index="135">
            71 -42 60 -74 -98 -55 -80 -97 -39 11 -38 25 -24 vhcurveto
            -50 -90 -114 -37 -72 hhcurveto
            -5 -3 1 2 46 90 76 51 41 hvcurveto
            17 13 15 14 17 vvcurveto
            22 -16 17 -29 vhcurveto
            -26 -35 -13 -31 hhcurveto
            -17 -5 4 11 36 104 74 55 hvcurveto
            24 -5 -15 17 hhcurveto
            12 18 34 25 17 -5 13 -10 9 hvcurveto
            return
          </CharString>
          <CharString index="136">
            405 47 callsubr
            728 -34 callgsubr
            -89 -112 -121 -104 -45 hvcurveto
            -4 hlineto
            -21 -26 -16 -18 -32 hvcurveto
            -78 callgsubr
            92 99 41 45 58 hvcurveto
            -82 11 77 -44 110 hhcurveto
            return
          </CharString>
          <CharString index="137">
            hhcurveto
            -24 -6 4 26 44 32 86 72 25 hvcurveto
            23 8 33 3 274 callgsubr
            -65 -128 -99 -92 52 -62 88 117 145 66 95 return
          </CharString>
          <CharString index="138">
            -106 callgsubr
            3 hlineto
            -25 -166 -74 -86 -107 -57 -119 -9 rlinecurve
            125 69 86 115 125 vvcurveto
            74 -47 78 -96 return
          </CharString>
          <CharString index="139">
            19 258 43 callgsubr
            return
          </CharString>
          <CharString index="140">
            183 224 -57 callgsubr
            return
          </CharString>
          <CharString index="141">
            39 -23 -27 28 -29 hhcurveto
            -25 -31 -13 -33 -15 6 -19 9 -15 hvcurveto
            return
          </CharString>
          <CharString index="142">
            rmoveto
            -132 -153 -7 -42 -44 41 -47 31 33 37 4 2 48 hvcurveto
            -18 -198 -74 -224 -62 vvcurveto
            -31 55 -70 29 22 14 81 130 27 vhcurveto
            37 176 43 132 42 vvcurveto
            8 -1 9 -3 9 vhcurveto
            -2 96 53 -5 44 hhcurveto
            35 20 20 16 50 -74 53 -210 hvcurveto
            endchar
          </CharString>
          <CharString index="143">
            rmoveto
            38 16 37 36 70 hvcurveto
            -45 35 63 -47 38 hhcurveto
            16 14 15 11 39 -47 32 -32 36 hvcurveto
            38 -35 -13 43 -26 hhcurveto
            -19 -42 -29 -27 -47 hvcurveto
            -49 -28 -24 -26 -36 vvcurveto
            -27 17 -22 27 vhcurveto
            return
          </CharString>
          <CharString index="144">
            1 vlineto
            1 vlineto
            214 callgsubr
            3 vhcurveto
            -3 12 -9 10 -21 4 rrcurveto
            -52 10 return
          </CharString>
          <CharString index="145">
            hvcurveto
            -54 -14 -78 -33 -60 -36 rrcurveto
            1 8 0 7 8 -102 callsubr
            return
          </CharString>
          <CharString index="146">
            -298 6 callsubr
            return
          </CharString>
          <CharString index="147">
            110 -107 callgsubr
            return
          </CharString>
          <CharString index="148">
            41 callgsubr
            46 29 109 108 25 vhcurveto
            116 169 166 147 67 hhcurveto
            25 18 -18 -27 -79 -70 -81 -74 hvcurveto
            -42 -2 11 -29 hhcurveto
            -13 -5 -16 -17 -11 3 -10 5 -8 hvcurveto
            -51 28 143 -173 42 283 callsubr
            33 9 29 14 26 19 86 3 97 11 81 22 rrcurveto
            -14 -92 -15 -89 -20 -36 callsubr
          </CharString>
          <CharString index="149">
            44 callgsubr
            32 return
          </CharString>
          <CharString index="150">
            6 callsubr
            345 298 rmoveto
            48 -103 callsubr
            25 -48 hvcurveto
            -662 hlineto
            146 callsubr
            169 83 172 105 41 vvcurveto
            25 -11 7 -24 -36 -116 -65 -65 -124 vhcurveto
            146 callgsubr
            endchar
          </CharString>
          <CharString index="151">
            rmoveto
            -100 -299 -258 -66 315 callsubr
            38 79 88 68 78 hvcurveto
            63 55 141 81 34 vvcurveto
            19 -12 11 -21 vhcurveto
            -364 -18 -70 callsubr
            -117 71 callgsubr
            185 hlineto
            -1 -15 0 -15 -16 vvcurveto
            -33 -1 -35 -3 -35 vhcurveto
            2 -18 -17 1 -17 hhcurveto
            -95 -76 -28 -86 -84 82 -114 84 141 40 241 162 19 0 19 -2 17 hvcurveto
            165 -105 callsubr
          </CharString>
          <CharString index="152">
            vvcurveto
            -44 55 -38 callgsubr
          </CharString>
          <CharString index="153">
            rmoveto
            -15 -16 31 16 15 43 7 60 5 hvcurveto
            -44 -25 -27 -30 -20 hhcurveto
            140 307 -60 callgsubr
            204 193 callsubr
            49 hlineto
            -25 -164 -37 -2 -47 -6 -55 -7 rlinecurve
            237 callgsubr
            212 callgsubr
            vhcurveto
            122 callsubr
            77 69 84 106 43 vhcurveto
            55 4 57 5 45 10 return
          </CharString>
          <CharString index="154">
            33 callsubr
            -115 71 callsubr
            return
          </CharString>
          <CharString index="155">
            -29 -47 -62 -18 -37 vvcurveto
            -23 19 -8 16 78 89 87 69 37 -43 50 -55 return
          </CharString>
          <CharString index="156">
            105 callsubr
            -105 -133 -99 -97 hvcurveto
            -29 -49 44 -28 hhcurveto
            -17 -14 -27 -35 -10 3 -11 6 -11 hvcurveto
            19 -41 49 -61 51 -65 167 callgsubr
            -9 13 -11 15 -11 15 rrcurveto
            163 25 146 148 138 -28 callgsubr
            308 callsubr
          </CharString>
          <CharString index="157">
            -63 41 60 -66 27 hhcurveto
            25 20 17 22 25 -42 40 -46 74 hvcurveto
            -8 13 63 3 62 21 52 35 rlinecurve
            117 6 140 29 100 35 -1 -6 rcurveline
            -5 -37 -7 -37 -7 -33 rrcurveto
            6 -17 -19 3 -20 hhcurveto
            -156 -154 -74 -91 -56 69 -63 79 80 29 64 52 28 -5 27 -8 21 hvcurveto
            6 24 26 3 28 hhcurveto
            9 9 -1 -2 9 hvcurveto
            -5 -22 -3 -16 -8 vvcurveto
            -21 53 -65 22 35 24 -103 callgsubr
            40 callsubr
            endchar
          </CharString>
          <CharString index="158">
            -135 -219 -96 -93 -56 69 -63 79 80 29 64 52 33 -7 31 -11 23 hvcurveto
            13 42 45 9 39 hhcurveto
            return
          </CharString>
          <CharString index="159">
            vvcurveto
            23 -3 22 -6 20 vhcurveto
            269 hlineto
            -86 -218 rmoveto
            -37 -37 23 24 319 callsubr
            hvcurveto
            return
          </CharString>
          <CharString index="160">
            rmoveto
            15 9 9 19 30 22 -26 -42 22 vhcurveto
            -83 3 -19 23 18 vvcurveto
            return
          </CharString>
          <CharString index="161">
            -106 callgsubr
            186 hlineto
            -19 -194 -62 -232 -77 vvcurveto
            -31 16 -22 28 78 65 347 209 18 vhcurveto
            265 callgsubr
            -104 1 hlineto
            2 -1 rlineto
            84 22 67 75 86 309 callgsubr
            -74 -64 -37 -54 -46 hvcurveto
            79 -28 -57 59 -114 hhcurveto
            -188 -235 -270 -105 -23 13 -25 21 52 27 48 47 36 hvcurveto
            62 48 107 134 106 hhcurveto
            93 21 -78 -109 hvcurveto
            endchar
          </CharString>
          <CharString index="162">
            96 callsubr
            38 21 rlinecurve
            119 5 232 14 67 vvcurveto
            19 -10 12 -22 -51 -67 -10 -8 -88 vhcurveto
            30 43 18 49 52 -28 callgsubr
            return
          </CharString>
          <CharString index="163">
            rmoveto
            29 3 39 10 43 vhcurveto
            34 -54 44 -60 38 -48 rrcurveto
            -29 -44 -41 -23 -21 hhcurveto
            -16 -7 51 52 hvcurveto
            return
          </CharString>
          <CharString index="164">
            -39 callsubr
            -99 99 -62 122 return
          </CharString>
          <CharString index="165">
            rmoveto
            -19 -14 37 16 14 11 6 14 14 22 -8 -13 26 hvcurveto
            -20 -14 -26 -32 -14 hhcurveto
            return
          </CharString>
          <CharString index="166">
            -25 -28 -37 -33 -35 62 -65 38 116 callsubr
            return
          </CharString>
          <CharString index="167">
            hlineto
            86 callgsubr
            -30 11 -24 16 -22 hvcurveto
            -71 -33 -46 -62 -75 vvcurveto
            -120 102 -72 143 59 65 19 36 19 -19 7 -56 -82 -91 29 75 60 43 35 75 50 33 -28 -37 -31 4 -21 19 40 26 39 46 80 -79 58 -98 -8 -7 0 -1 -8 vhcurveto
            -2 6 -1 7 8 vvcurveto
            22 18 15 75 vhcurveto
            28 26 -2 22 hhcurveto
            15 14 1 4 10 hvcurveto
            36 8 12 69 50 vvcurveto
            18 -3 18 -5 17 vhcurveto
            return
          </CharString>
          <CharString index="168">
            23 callsubr
            -217 108 132 callgsubr
            return
          </CharString>
          <CharString index="169">
            213 callgsubr
            -37 callsubr
            return
          </CharString>
          <CharString index="170">
            vvcurveto
            -21 -19 -17 -33 -9 vhcurveto
            84 -23 -52 81 -115 hhcurveto
            -72 -53 -44 -72 -101 106 -59 136 hvcurveto
            -7 0 -8 -7 -72 -9 -40 -34 vvcurveto
            -26 5 -17 21 48 24 116 77 8 0 8 -1 9 vhcurveto
            100 18 55 49 70 vvcurveto
            return
          </CharString>
          <CharString index="171">
            37 callsubr
            -62 return
          </CharString>
          <CharString index="172">
            -106 callgsubr
            106 hlineto
            -6 -205 -86 -161 -136 vvcurveto
            -109 81 -42 127 97 159 57 74 20 -12 15 -26 vhcurveto
            -80 -32 -53 -139 hhcurveto
            -38 -10 7 40 110 101 212 4 171 hvcurveto
            193 hlineto
            20 -27 26 -33 -63 vvcurveto
            -85 -58 -66 -89 -29 -11 -10 -13 -27 26 -42 66 128 82 105 131 53 -15 44 -23 33 199 callsubr
          </CharString>
          <CharString index="173">
            3 callsubr
            -201 316 125 callsubr
            return
          </CharString>
          <CharString index="174">
            -31 41 -31 47 44 108 4 53 19 -24 25 -21 vhcurveto
            176 callgsubr
            return
          </CharString>
          <CharString index="175">
            20 89 22 106 5 50 rrcurveto
            return
          </CharString>
          <CharString index="176">
            130 callsubr
            -78 73 -48 130 317 callsubr
            vhcurveto
            11 33 9 37 1 25 rrcurveto
            219 -107 callgsubr
            endchar
          </CharString>
          <CharString index="177">
            hhcurveto
            -46 -71 -29 -39 -63 hvcurveto
            -78 -48 -68 -62 -41 vvcurveto
            -21 10 -14 26 30 51 49 42 67 vhcurveto
            32 51 49 27 49 hhcurveto
            27 22 -4 -5 21 hvcurveto
            -4 return
          </CharString>
          <CharString index="178">
            438 -106 callgsubr
            return
          </CharString>
          <CharString index="179">
            -2 -64 35 callgsubr
            return
          </CharString>
          <CharString index="180">
            -15 -85 callsubr
            148 -105 callsubr
          </CharString>
          <CharString index="181">
            rmoveto
            22 17 17 20 36 hvcurveto
            184 callsubr
            -45 -38 -12 -20 -29 vvcurveto
            -22 17 -24 22 vhcurveto
            return
          </CharString>
          <CharString index="182">
            hhcurveto
            25 11 -18 -27 hvcurveto
            -113 -177 -80 -42 vvcurveto
            -51 51 -53 78 callgsubr
            return
          </CharString>
          <CharString index="183">
            306 callsubr
            36 vhcurveto
            -91 44 158 -184 45 hhcurveto
            20 153 callsubr
            -50 75 -58 75 hvcurveto
            -15 19 35 2 35 6 33 10 rlinecurve
            -3 20 23 -1 26 hhcurveto
            67 80 9 20 71 hvcurveto
            -13 -91 -15 -87 -20 209 callsubr
          </CharString>
          <CharString index="184">
            rmoveto
            0 1 vlineto
            18 3 7 50 16 75 8 28 9 30 10 28 rrcurveto
            -138 58 134 -76 86 hhcurveto
            44 29 15 36 41 -99 24 -69 60 hvcurveto
            -62 54 -27 55 46 vvcurveto
            97 150 196 134 40 vvcurveto
            22 -45 40 -33 -41 -111 -120 -136 -103 vhcurveto
            16 66 10 50 17 vvcurveto
            60 -63 78 -29 -21 -8 -14 -26 vhcurveto
            -117 -117 -391 -72 vvcurveto
            -43 59 -69 29 vhcurveto
            endchar
          </CharString>
          <CharString index="185">
            rmoveto
            -22 -4 -21 -21 -21 -20 9 14 19 23 22 35 20 vhcurveto
            5 -13 3 -13 -15 vvcurveto
            return
          </CharString>
          <CharString index="186">
            rmoveto
            14 8 13 22 299 callgsubr
            return
          </CharString>
          <CharString index="187">
            -13 0 callgsubr
            return
          </CharString>
          <CharString index="188">
            rmoveto
            63 108 135 109 59 -49 64 -53 -41 -45 -53 -27 hvcurveto
            -34 71 -8 -50 -67 -84 -81 -26 vvcurveto
            -15 11 -6 19 vhcurveto
            endchar
          </CharString>
          <CharString index="189">
            55 4 57 5 45 10 -9 -55 -12 -53 -9 -38 rrcurveto
            13 -26 -30 8 -26 hhcurveto
            -42 -73 -46 -54 -64 hvcurveto
            -69 -58 -59 -67 -30 149 callsubr
            54 61 49 61 vhcurveto
            43 54 42 30 32 hhcurveto
            43 33 -30 -15 32 hvcurveto
            -5 11 11 -4 11 hhcurveto
            0 1 vlineto
            -67 callsubr
            82 -105 callsubr
          </CharString>
          <CharString index="190">
            -44 55 -47 20 35 36 209 155 36 vhcurveto
            23 101 37 192 39 vvcurveto
            23 -62 61 -37 -14 -10 -8 -22 -3 vhcurveto
            -17 -115 -25 -163 -17 -104 rrcurveto
            -17 -105 -40 -149 -23 vvcurveto
            return
          </CharString>
          <CharString index="191">
            vhcurveto
            28 26 -2 22 hhcurveto
            19 16 2 6 13 hvcurveto
            29 14 10 54 57 vvcurveto
            18 -3 18 -5 17 vhcurveto
            return
          </CharString>
          <CharString index="192">
            -116 -171 -165 -142 -55 24 -41 54 -10 hvcurveto
            -29 -35 -21 -40 -38 vvcurveto
            -53 38 -30 64 return
          </CharString>
          <CharString index="193">
            hlineto
            -38 7 54 -57 34 36 14 52 43 hhcurveto
            22 8 -9 -21 return
          </CharString>
          <CharString index="194">
            721 372 rmoveto
            27 -17 10 -26 -44 -112 -42 -48 -80 vhcurveto
            117 callsubr
            return
          </CharString>
          <CharString index="195">
            482 rmoveto
            -206 -35 -122 -124 -111 hhcurveto
            -16 -4 14 22 53 30 151 63 hvcurveto
            43 -1 -47 30 hhcurveto
            18 11 27 33 55 -26 52 -56 -39 -35 -13 -21 -29 hvcurveto
            -48 -32 -86 -55 -90 -53 17 77 17 92 4 47 rrcurveto
            476 hlineto
            -649 -291 rmoveto
            -43 -83 -73 -31 -38 -22 callgsubr
            41 18 -56 -37 16 hvcurveto
            return
          </CharString>
          <CharString index="196">
            26 40 54 callgsubr
            return
          </CharString>
          <CharString index="197">
            -106 callgsubr
            112 -93 callgsubr
            return
          </CharString>
          <CharString index="198">
            -351 17 callsubr
            return
          </CharString>
          <CharString index="199">
            99 360 373 59 callgsubr
            5 18 vvcurveto
            31 99 41 44 vhcurveto
            29 3 -12 21 hhcurveto
            11 4 6 15 8 -4 11 -6 11 hvcurveto
            105 hlineto
            -8 -56 -8 -52 -8 -53 rrcurveto
            -77 -56 -142 -94 -74 hhcurveto
            -3 -4 0 2 11 47 38 53 36 hvcurveto
            31 22 13 14 1 26 rrcurveto
            return
          </CharString>
          <CharString index="200">
            rmoveto
            -44 -20 -72 -70 -77 15 115 -37 hhcurveto
            -23 -46 -23 -56 -60 59 -75 96 82 96 79 60 18 -12 14 -19 hvcurveto
            endchar
          </CharString>
          <CharString index="201">
            32 20 16 25 hvcurveto
            104 callsubr
          </CharString>
          <CharString index="202">
            86 -77 callgsubr
            return
          </CharString>
          <CharString index="203">
            -106 callgsubr
            110 -98 callgsubr
            return
          </CharString>
          <CharString index="204">
            rmoveto
            -75 -82 -99 -71 -36 25 -16 34 69 -16 89 29 70 hvcurveto
            -77 39 61 -54 51 hhcurveto
            53 80 97 72 36 -17 16 -25 -64 -6 -81 -19 -37 hvcurveto
            20 -44 -10 94 -106 hhcurveto
            return
          </CharString>
          <CharString index="205">
            -43 callsubr
            143 328 callgsubr
            39 63 55 25 29 hhcurveto
            return
          </CharString>
          <CharString index="206">
            rmoveto
            -27 47 -106 90 79 152 callgsubr
            return
          </CharString>
          <CharString index="207">
            -3 -11 -1 -11 -12 175 callgsubr
            return
          </CharString>
          <CharString index="208">
            vvcurveto
            -108 35 -113 86 return
          </CharString>
          <CharString index="209">
            284 callgsubr
            43 28 97 102 24 vhcurveto
            49 26 49 29 45 28 rrcurveto
            -5 -26 -3 -26 -24 vvcurveto
            -90 26 -73 80 85 88 48 72 68 vhcurveto
            -9 -36 -6 -27 -11 vvcurveto
            -44 47 -47 20 35 24 -103 callgsubr
            116 -105 callsubr
          </CharString>
          <CharString index="210">
            -6 callgsubr
            -100 -113 -71 -107 hvcurveto
            -29 -49 44 -28 hhcurveto
            -17 -14 -27 -35 -8 2 -9 4 -8 hvcurveto
            16 -43 51 -75 55 -69 rrcurveto
            -100 80 23 -37 39 hhcurveto
            28 13 11 24 28 -41 54 -55 78 hvcurveto
            -12 17 -13 20 -15 21 return
          </CharString>
          <CharString index="211">
            -37 callsubr
            66 48 -8 -8 36 vhcurveto
            -6 -29 -3 -28 -26 vvcurveto
            -90 26 -73 169 callgsubr
            vhcurveto
            -92 callgsubr
          </CharString>
          <CharString index="212">
            -106 callgsubr
            109 -6 callgsubr
            return
          </CharString>
          <CharString index="213">
            -2 -13 -2 -15 -3 -15 -2 -10 -2 -7 -3 -7 return
          </CharString>
          <CharString index="214">
            -42 -22 callgsubr
            return
          </CharString>
          <CharString index="215">
            vvcurveto
            134 callsubr
            return
          </CharString>
          <CharString index="216">
            vvcurveto
            -71 79 -107 80 return
          </CharString>
          <CharString index="217">
            -77 callgsubr
            -39 -26 -37 -33 -34 hvcurveto
            2 vlineto
            23 -4 28 -18 vhcurveto
            172 callgsubr
            return
          </CharString>
          <CharString index="218">
            rmoveto
            -51 50 61 -55 56 hhcurveto
            39 14 19 20 hvcurveto
            39 -130 32 114 68 170 106 26 vvcurveto
            33 -51 59 -34 -40 -118 -159 -135 -106 vhcurveto
            53 120 65 258 71 vvcurveto
            54 -74 71 -29 -22 -6 -12 -19 vhcurveto
            -269 -134 -369 -31 vvcurveto
            -28 60 -68 32 23 47 58 72 50 vhcurveto
            endchar
          </CharString>
          <CharString index="219">
            rmoveto
            -60 -57 -51 -70 -57 42 -46 57 60 57 51 70 57 -42 46 -57 hvcurveto
            -8 -76 rmoveto
            14 11 -14 -19 -25 -14 -18 -14 -14 -11 16 18 25 14 17 14 hvcurveto
            return
          </CharString>
          <CharString index="220">
            79 callsubr
            -4 return
          </CharString>
          <CharString index="221">
            101 110 60 67 76 -80 111 -97 return
          </CharString>
          <CharString index="222">
            -11 callgsubr
            34 -15 -22 22 -27 hhcurveto
            -32 -13 -24 -30 return
          </CharString>
          <CharString index="223">
            19 12 17 22 return
          </CharString>
          <CharString index="224">
            -27 callsubr
            79 36 98 32 42 vvcurveto
            return
          </CharString>
          <CharString index="225">
            298 callgsubr
            vhcurveto
            202 callgsubr
            rrcurveto
            -132 -11 -122 -19 -81 79 callgsubr
            return
          </CharString>
          <CharString index="226">
            25 -37 callgsubr
            return
          </CharString>
          <CharString index="227">
            hhcurveto
            -67 callsubr
            return
          </CharString>
          <CharString index="228">
            -2 rrcurveto
            114 79 97 148 122 vvcurveto
            -168 30 79 callsubr
            -3 -14 vhcurveto
            -51 21 -13 35 23 vvcurveto
            return
          </CharString>
          <CharString index="229">
            -3 -13 -4 -13 -4 -14 rrcurveto
            -129 -13 -130 -7 -90 vvcurveto
            -75 70 -100 79 return
          </CharString>
          <CharString index="230">
            rmoveto
            26 9 33 15 31 vhcurveto
            return
          </CharString>
          <CharString index="231">
            vvcurveto
            -56 3 -41 28 47 24 92 114 29 vhcurveto
            23 91 38 104 42 vvcurveto
            1 vlineto
            1 vlineto
            24 -16 16 -36 vhcurveto
            -39 -13 -24 -82 hhcurveto
            -66 -42 24 35 61 109 114 59 85 callgsubr
            return
          </CharString>
          <CharString index="232">
            -106 callgsubr
            102 255 callsubr
            return
          </CharString>
          <CharString index="233">
            rmoveto
            -9 -65 -10 -59 -9 -61 rrcurveto
            -30 -62 -60 -25 -24 hhcurveto
            -8 -3 16 26 54 16 85 27 59 hvcurveto
            return
          </CharString>
          <CharString index="234">
            -106 callgsubr
            18 hlineto
            return
          </CharString>
          <CharString index="235">
            17 30 13 34 25 vvcurveto
            63 -99 80 -53 return
          </CharString>
          <CharString index="236">
            vvcurveto
            -35 31 -27 39 -19 vhcurveto
            -93 -28 -85 -47 -53 vvcurveto
            -37 42 -50 30 -11 vhcurveto
            -14 39 40 -3 55 hhcurveto
            106 75 40 31 15 -12 10 -31 hvcurveto
            -43 -39 -6 -46 hhcurveto
            -60 -42 3 15 14 56 25 88 26 hvcurveto
            80 24 55 7 25 vvcurveto
            1 vlineto
            1 vlineto
            68 -177 -3 30 vvcurveto
            return
          </CharString>
          <CharString index="237">
            164 7 callsubr
            return
          </CharString>
          <CharString index="238">
            134 callgsubr
            -272 299 rmoveto
            188 callgsubr
            return
          </CharString>
          <CharString index="239">
            164 22 callgsubr
            return
          </CharString>
          <CharString index="240">
            -39 68 -69 43 23 31 31 20 33 -53 108 -36 -35 -41 -49 -35 vhcurveto
            return
          </CharString>
          <CharString index="241">
            -64 38 -55 94 12 13 1 2 return
          </CharString>
          <CharString index="242">
            78 73 36 43 55 return
          </CharString>
          <CharString index="243">
            -97 80 -52 120 return
          </CharString>
          <CharString index="244">
            0 8 139 callsubr
            return
          </CharString>
          <CharString index="245">
            60 32 230 -55 callgsubr
            return
          </CharString>
          <CharString index="246">
            8 63 callgsubr
            48 37 38 83 vhcurveto
            return
          </CharString>
          <CharString index="247">
            -107 142 callsubr
            return
          </CharString>
          <CharString index="248">
            vvcurveto
            111 -43 89 -92 return
          </CharString>
          <CharString index="249">
            431 353 -51 callgsubr
            return
          </CharString>
          <CharString index="250">
            139 callgsubr
            34 52 55 42 62 vhcurveto
            34 50 55 24 40 hhcurveto
            return
          </CharString>
          <CharString index="251">
            rmoveto
            34 callsubr
            return
          </CharString>
          <CharString index="252">
            166 19 -20 31 -25 28 return
          </CharString>
          <CharString index="253">
            -107 callsubr
            362 -50 callsubr
            return
          </CharString>
          <CharString index="254">
            rmoveto
            -54 -55 -86 -154 hhcurveto
            -20 -5 3 15 33 56 49 -25 callgsubr
            return
          </CharString>
          <CharString index="255">
            -49 -20 -22 -30 -30 20 -26 49 hvcurveto
            189 hlineto
            -97 -33 -88 -83 -87 vvcurveto
            -44 31 -26 41 -11 vhcurveto
            300 callsubr
            return
          </CharString>
          <CharString index="256">
            139 callgsubr
            30 return
          </CharString>
          <CharString index="257">
            -5 hlineto
            -58 -125 -3 -38 35 callgsubr
            21 26 1 1 29 148 callgsubr
            return
          </CharString>
          <CharString index="258">
            141 13 158 7 47 vvcurveto
            25 -22 15 -37 -42 -63 -3 -7 -105 vhcurveto
            13 52 7 54 52 141 callsubr
            return
          </CharString>
          <CharString index="259">
            554 rmoveto
            8 callsubr
            return
          </CharString>
          <CharString index="260">
            20 17 22 18 return
          </CharString>
          <CharString index="261">
            rmoveto
            235 callsubr
            hvcurveto
            37 -140 106 91 vvcurveto
            38 -77 65 -66 vhcurveto
            return
          </CharString>
          <CharString index="262">
            63 98 131 90 79 -50 54 -69 -37 -31 -36 -23 hvcurveto
            -45 54 9 -61 -67 -74 -49 -42 vvcurveto
            -26 15 -14 31 vhcurveto
            return
          </CharString>
          <CharString index="263">
            rmoveto
            -32 54 -57 37 20 25 25 17 26 -45 91 -29 -29 -33 -41 -29 vhcurveto
            endchar
          </CharString>
          <CharString index="264">
            62 44 42 35 32 -18 20 -24 hvcurveto
            -75 callsubr
            return
          </CharString>
          <CharString index="265">
            201 callsubr
            151 callsubr
            266 callgsubr
            vhcurveto
            endchar
          </CharString>
          <CharString index="266">
            hhcurveto
            -7 -2 3 5 42 64 65 52 25 hvcurveto
            14 7 13 5 8 vvcurveto
            19 -32 45 -22 -4 -7 -2 -4 -9 vhcurveto
            return
          </CharString>
          <CharString index="267">
            hhcurveto
            -60 -27 -43 -49 -71 46 -93 76 49 51 51 44 28 hvcurveto
            return
          </CharString>
          <CharString index="268">
            36 -16 vhcurveto
            34 -15 -22 22 247 callgsubr
            return
          </CharString>
          <CharString index="269">
            239 callsubr
            37 20 rlinecurve
            return
          </CharString>
          <CharString index="270">
            -26 -20 -24 -67 -79 return
          </CharString>
          <CharString index="271">
            32 20 16 25 return
          </CharString>
          <CharString index="272">
            hhcurveto
            -81 -43 26 234 callsubr
            -140 117 -49 116 return
          </CharString>
          <CharString index="273">
            hhcurveto
            25 11 -18 -27 hvcurveto
            -107 -177 -95 -33 vvcurveto
            -53 51 -51 78 callgsubr
            return
          </CharString>
          <CharString index="274">
            501 -106 callgsubr
            return
          </CharString>
          <CharString index="275">
            -4 hlineto
            163 callgsubr
            return
          </CharString>
          <CharString index="276">
            328 callsubr
            vlineto
            -33 callsubr
            -113 -83 -70 -96 -35 hvcurveto
            -29 -44 -56 -23 -45 23 callsubr
            return
          </CharString>
          <CharString index="277">
            rmoveto
            -29 -13 -18 -30 -145 132 -70 126 213 callsubr
            vhcurveto
            endchar
          </CharString>
          <CharString index="278">
            0 callgsubr
            51 30 return
          </CharString>
          <CharString index="279">
            rmoveto
            -14 -4 -7 -17 -10 hvcurveto
            -135 -223 -355 -439 -62 vvcurveto
            -29 34 -27 17 29 120 165 154 117 vhcurveto
            179 236 91 110 46 vvcurveto
            45 -45 48 -24 vhcurveto
            return
          </CharString>
          <CharString index="280">
            662 99 callsubr
            return
          </CharString>
          <CharString index="281">
            rmoveto
            81 36 72 106 25 hhcurveto
            22 3 -59 -75 -18 0 -18 -1 -17 hvcurveto
            return
          </CharString>
          <CharString index="282">
            34 vvcurveto
            1 vlineto
            1 vlineto
            22 -8 18 -34 vhcurveto
            -39 -13 -24 -82 hhcurveto
            -66 return
          </CharString>
          <CharString index="283">
            370 rmoveto
            12 2 -10 -20 -45 -36 -42 -51 -34 hvcurveto
            85 22 25 66 26 hhcurveto
            -269 -606 rmoveto
            -13 -43 -33 -5 -39 hhcurveto
            -44 -51 4 28 30 70 48 41 38 35 -33 -54 27 hvcurveto
            return
          </CharString>
          <CharString index="284">
            217 -68 callgsubr
            -521 -65 14 callsubr
            return
          </CharString>
          <CharString index="285">
            -106 callgsubr
            419 hlineto
            -12 -80 -11 -72 -11 -77 rrcurveto
            94 -28 -56 95 -88 hhcurveto
            -120 -102 -154 -107 136 callgsubr
            70 84 34 36 57 hvcurveto
            return
          </CharString>
          <CharString index="286">
            206 -70 callsubr
            return
          </CharString>
          <CharString index="287">
            256 callgsubr
            27 22 28 4 hvcurveto
            1 return
          </CharString>
          <CharString index="288">
            79 88 87 69 37 -43 50 -55 return
          </CharString>
          <CharString index="289">
            113 18 47 7 28 vvcurveto
            return
          </CharString>
          <CharString index="290">
            -299 250 411 10 callgsubr
            return
          </CharString>
          <CharString index="291">
            96 53 36 1 49 vvcurveto
            38 -32 46 -32 163 callsubr
            vhcurveto
            return
          </CharString>
          <CharString index="292">
            rrcurveto
            38 -24 -37 27 -44 hhcurveto
            -152 -94 -278 -101 -58 66 -79 56 33 57 36 46 56 hvcurveto
            -1 -3 0 -3 -2 vvcurveto
            -33 47 -41 26 31 56 216 129 30 vhcurveto
            return
          </CharString>
          <CharString index="293">
            hhcurveto
            -198 -199 rmoveto
            -16 -28 36 23 19 30 10 46 6 hvcurveto
            -55 -8 -10 -39 -14 hhcurveto
            return
          </CharString>
          <CharString index="294">
            185 callgsubr
            7 18 8 33 10 31 rrcurveto
            -104 510 rmoveto
            -12 -8 -7 -16 -32 35 -50 49 -33 hvcurveto
            -11 -57 -19 return
          </CharString>
          <CharString index="295">
            250 callsubr
            -73 -10 -65 -10 -69 rrcurveto
            -38 -58 -61 -35 -22 hhcurveto
            -11 0 42 24 return
          </CharString>
          <CharString index="296">
            vvcurveto
            -78 73 -48 130 317 callsubr
            vhcurveto
            11 33 9 37 1 25 rrcurveto
            219 -105 callsubr
          </CharString>
          <CharString index="297">
            rmoveto
            14 11 -14 -19 -25 -14 -18 -14 -14 -11 16 18 25 14 17 14 hvcurveto
            -10 -148 rmoveto
            60 57 51 70 57 -42 46 -57 -60 -57 -51 -70 -57 42 -46 57 hvcurveto
            return
          </CharString>
          <CharString index="298">
            33 103 rmoveto
            133 callsubr
            return
          </CharString>
          <CharString index="299">
            29 callgsubr
            46 return
          </CharString>
          <CharString index="300">
            165 -106 callgsubr
            return
          </CharString>
          <CharString index="301">
            301 callsubr
            -41 -17 -34 -27 -31 hvcurveto
            -32 return
          </CharString>
          <CharString index="302">
            hhcurveto
            -13 -7 41 42 49 10 66 22 64 277 callsubr
            -56 -7 -61 -48 vvcurveto
            -122 39 -94 86 return
          </CharString>
          <CharString index="303">
            6 -71 70 callgsubr
            return
          </CharString>
          <CharString index="304">
            -66 callgsubr
            332 -65 callsubr
            return
          </CharString>
          <CharString index="305">
            31 callsubr
            -42 return
          </CharString>
          <CharString index="306">
            vhcurveto
            126 -105 callsubr
          </CharString>
          <CharString index="307">
            hlineto
            -46 -34 -36 -41 -35 vvcurveto
            -48 50 -30 57 -15 vhcurveto
            -10 -8 -11 -9 -10 -9 rrcurveto
            -41 -38 -32 -43 -33 vvcurveto
            -58 37 -34 72 76 99 39 53 79 vhcurveto
            return
          </CharString>
          <CharString index="308">
            79 callgsubr
            1 hlineto
            return
          </CharString>
          <CharString index="309">
            26 37 10 13 78 hvcurveto
            return
          </CharString>
          <CharString index="310">
            rmoveto
            99 -70 58 -97 -85 -91 -72 -80 -26 54 -53 17 11 14 9 3 8 vhcurveto
            12 6 3 13 18 vvcurveto
            23 21 20 31 21 20 -12 -23 vhcurveto
            -90 return
          </CharString>
          <CharString index="311">
            49 15 62 71 hhcurveto
            24 6 -19 -27 -89 -53 -86 -103 -14 -7 7 13 hvcurveto
            18 9 12 17 vvcurveto
            14 -8 8 -18 -42 -32 -36 -43 -56 39 -53 89 return
          </CharString>
          <CharString index="312">
            -4 hlineto
            -35 -2 -61 -4 -62 vhcurveto
            -117 -19 -83 -25 -74 109 callsubr
            return
          </CharString>
          <CharString index="313">
            -143 -81 -168 -116 -90 26 -73 80 return
          </CharString>
          <CharString index="314">
            hvcurveto
            182 callgsubr
            -136 247 callsubr
            return
          </CharString>
          <CharString index="315">
            138 rmoveto
            -13 -2 2 11 52 114 198 88 12 5 -20 -37 2 hvcurveto
            -10 -1 -6 -4 -1 -9 rrcurveto
            -125 -24 -126 -67 -39 hhcurveto
            return
          </CharString>
          <CharString index="316">
            -85 callsubr
            111 -105 callsubr
          </CharString>
          <CharString index="317">
            -2 vlineto
            -1 vlineto
            return
          </CharString>
          <CharString index="318">
            vvcurveto
            -97 121 -128 327 callsubr
            77 -131 15 89 vvcurveto
            return
          </CharString>
          <CharString index="319">
            -66 -69 -85 -58 -32 25 -16 28 return
          </CharString>
          <CharString index="320">
            162 callgsubr
            hvcurveto
            -48 68 -122 -180 hhcurveto
            -111 -24 46 46 hvcurveto
            10 3 1 11 vvcurveto
            22 -48 31 -25 return
          </CharString>
          <CharString index="321">
            -28 -13 16 36 return
          </CharString>
          <CharString index="322">
            rmoveto
            17 14 9 19 48 28 -35 -48 15 vhcurveto
            -92 2 -32 24 31 vvcurveto
            return
          </CharString>
          <CharString index="323">
            -26 -32 -19 -36 -36 vvcurveto
            -53 38 -30 64 101 101 48 56 80 vhcurveto
            -9 return
          </CharString>
          <CharString index="324">
            hlineto
            203 callgsubr
            return
          </CharString>
          <CharString index="325">
            151 rmoveto
            52 93 198 71 28 0 -46 -40 vhcurveto
            -7 0 -6 -6 vvcurveto
            -74 -31 -115 -84 -35 hhcurveto
            -10 -1 4 9 hvcurveto
            return
          </CharString>
          <CharString index="326">
            235 callgsubr
            endchar
          </CharString>
          <CharString index="327">
            -106 callgsubr
            96 hlineto
            return
          </CharString>
          <CharString index="328">
            18 hvcurveto
            -6 27 36 -4 return
          </CharString>
          <CharString index="329">
            vvcurveto
            12 29 14 64 vhcurveto
            28 26 -2 22 hhcurveto
            20 15 3 5 12 hvcurveto
            30 13 10 55 57 vvcurveto
            18 -3 18 -5 17 vhcurveto
            return
          </CharString>
          <CharString index="330">
            23 -11 -10 21 hvcurveto
            -10 20 19 -9 266 callsubr
            return
          </CharString>
          <CharString index="331">
            vvcurveto
            40 -36 32 -70 vhcurveto
            -49 -40 72 callsubr
            32 36 2 2 37 hvcurveto
            return
          </CharString>
          <CharString index="332">
            229 callgsubr
            -62 -57 return
          </CharString>
          <CharString index="333">
            510 rmoveto
            32 37 16 34 37 38 -25 -56 -6 0 -6 -1 -5 vhcurveto
            -2 -19 -22 -3 -24 hhcurveto
            -45 -35 19 36 hvcurveto
            return
          </CharString>
          <CharString index="334">
            554 rmoveto
            -9 -60 -8 -54 -9 -56 -42 -16 -51 -12 -51 -8 rrcurveto
            28 37 16 43 49 -28 callgsubr
            return
          </CharString>
          <CharString index="335">
            20 26 25 17 return
          </CharString>
          <CharString index="336">
            -72 -105 -104 -83 48 callgsubr
            return
          </CharString>
          <CharString index="337">
            30 197 262 rmoveto
            47 44 89 41 35 27 -55 -68 18 vhcurveto
            -38 -45 -49 -25 -51 hhcurveto
            -19 -1 20 30 hvcurveto
            return
          </CharString>
          <CharString index="338">
            0 -5 246 callgsubr
            return
          </CharString>
          <CharString index="339">
            -10 callsubr
            -97 80 -52 120 hvcurveto
            return
          </CharString>
          <CharString index="340">
            -74 callgsubr
            200 callgsubr
            return
          </CharString>
          <CharString index="341">
            46 hvcurveto
            10 3 1 11 vvcurveto
            22 -48 31 -25 -29 -13 -18 -30 return
          </CharString>
          <CharString index="342">
            -13 -11 -2 -15 -109 184 -249 66 25 32 13 25 return
          </CharString>
          <CharString index="343">
            vvcurveto
            -51 0 -62 31 40 8 58 36 4 vhcurveto
            return
          </CharString>
          <CharString index="344">
            rmoveto
            16 -25 -31 10 -37 246 callsubr
            return
          </CharString>
          <CharString index="345">
            vvcurveto
            45 -13 36 -28 24 vhcurveto
            return
          </CharString>
          <CharString index="346">
            -12 16 43 5 42 15 return
          </CharString>
          <CharString index="347">
            hhcurveto
            -20 -19 -5 -9 -19 hvcurveto
            -69 -26 -74 -22 -68 -16 rrcurveto
            10 27 5 27 29 -28 callgsubr
            return
          </CharString>
          <CharString index="348">
            -90 -179 -207 -118 -44 vvcurveto
            -19 20 -10 19 116 263 309 121 33 -25 11 -34 return
          </CharString>
          <CharString index="349">
            rrcurveto
            16 -20 -24 11 -23 hhcurveto
            -103 -122 -114 -170 -91 74 -77 73 186 102 196 205 return
          </CharString>
          <CharString index="350">
            rmoveto
            40 3 46 8 46 vhcurveto
            38 -71 50 -83 40 -54 rrcurveto
            -16 -39 -39 -11 -37 hhcurveto
            292 callgsubr
            hvcurveto
            return
          </CharString>
          <CharString index="351">
            248 callsubr
            -46 return
          </CharString>
          <CharString index="352">
            hlineto
            -27 -69 -17 -60 -93 vvcurveto
            -100 55 -91 83 159 113 169 145 callsubr
            vhcurveto
            return
          </CharString>
          <CharString index="353">
            hhcurveto
            222 callgsubr
            return
          </CharString>
          <CharString index="354">
            hmoveto
            68 callgsubr
            return
          </CharString>
          <CharString index="355">
            -25 48 -49 16 11 14 8 4 7 vhcurveto
            11 7 0 11 19 vvcurveto
            24 20 15 27 21 12 -13 -20 return
          </CharString>
          <CharString index="356">
            29 hhcurveto
            31 8 -15 -26 hvcurveto
            -24 -2 -13 -22 vvcurveto
            -38 12 -21 17 44 25 67 63 79 -36 71 -81 return
          </CharString>
          <CharString index="357">
            -84 callsubr
            202 514 rmoveto
            -11 return
          </CharString>
          <CharString index="358">
            hlineto
            -75 -49 -59 -82 -72 vvcurveto
            -43 31 -26 return
          </CharString>
          <CharString index="359">
            hhcurveto
            -142 -158 -39 -99 -68 120 -124 90 98 32 96 87 16 -1 13 -2 11 hvcurveto
            return
          </CharString>
          <CharString index="360">
            -160 rmoveto
            -18 -16 26 19 19 25 2 30 13 14 -1 -3 17 hvcurveto
            -38 -19 -23 -24 -23 hhcurveto
            return
          </CharString>
          <CharString index="361">
            -106 callgsubr
            100 217 callsubr
            -122 32 -98 86 return
          </CharString>
          <CharString index="362">
            hlineto
            -18 -70 -9 -69 -74 101 callsubr
            return
          </CharString>
          <CharString index="363">
            -38 58 -45 74 -31 65 rrcurveto
            return
          </CharString>
          <CharString index="364">
            rmoveto
            -27 -45 25 27 31 41 17 53 8 hvcurveto
            2 -18 2 -18 -14 vvcurveto
            -33 -7 -25 -19 vhcurveto
            return
          </CharString>
          <CharString index="365">
            rmoveto
            4 -20 4 -25 -28 vvcurveto
            -93 -71 -133 -61 -25 -10 43 51 106 46 57 7 42 vhcurveto
            return
          </CharString>
          <CharString index="366">
            106 281 callsubr
            -37 27 22 14 32 14 47 15 vhcurveto
            2 -17 2 -21 -15 vvcurveto
            return
          </CharString>
          <CharString index="367">
            33 -24 63 -28 return
          </CharString>
          <CharString index="368">
            rmoveto
            -44 -22 9 26 33 51 56 37 39 29 -47 -51 17 hvcurveto
            -14 -30 -39 -12 -38 hhcurveto
            return
          </CharString>
          <CharString index="369">
            hlineto
            -6 -26 -5 -26 -5 -26 -122 -9 -145 -6 -96 -10 rrcurveto
            -4 -3 -1 -3 hhcurveto
            return
          </CharString>
          <CharString index="370">
            316 -106 callgsubr
            return
          </CharString>
          <CharString index="371">
            434 -106 callgsubr
            return
          </CharString>
          <CharString index="372">
            rmoveto
            -4 vlineto
            163 callgsubr
            return
          </CharString>
          <CharString index="373">
            20 hhcurveto
            0 1 vlineto
            -67 callsubr
            return
          </CharString>
          <CharString index="374">
            145 callgsubr
            110 hlineto
            return
          </CharString>
          <CharString index="375">
            hlineto
            5 -20 6 -24 3 -34 rrcurveto
            3 -19 -21 1 -22 hhcurveto
            -122 -88 -54 -82 return
          </CharString>
          <CharString index="376">
            662 174 callsubr
            return
          </CharString>
          <CharString index="377">
            152 14 callsubr
            return
          </CharString>
          <CharString index="378">
            0 callgsubr
            42 28 94 100 24 vhcurveto
            return
          </CharString>
          <CharString index="379">
            hhcurveto
            128 118 92 105 51 -29 38 -53 return
          </CharString>
          <CharString index="380">
            hvcurveto
            -8 -38 -6 -29 80 callsubr
            return
          </CharString>
          <CharString index="381">
            hlineto
            -12 -84 -12 -75 -12 -82 return
          </CharString>
          <CharString index="382">
            29 hhcurveto
            10 5 -4 -9 hvcurveto
            return
          </CharString>
          <CharString index="383" raw="1">
            e2d0b060 bd541e0b  
          </CharString>
          <CharString index="384">
            hvcurveto
            -237 -89 callsubr
            100 hlineto
            -16 return
          </CharString>
          <CharString index="385">
            hlineto
            -8 -58 -10 -66 -8 -59 rrcurveto
            50 -17 -31 41 -55 hhcurveto
            -119 -115 return
          </CharString>
          <CharString index="386">
            40 callgsubr
            -97 return
          </CharString>
          <CharString index="387">
            rmoveto
            31 -33 70 -27 -19 -22 -28 -26 -27 48 -50 30 14 9 13 17 vhcurveto
            return
          </CharString>
          <CharString index="388">
            rmoveto
            -25 -3 -14 -17 -26 return
          </CharString>
          <CharString index="389" raw="1">
            98bf92c1 bff7210a f79e1d1e 0b
          </CharString>
          <CharString index="390">
            hhcurveto
            119 callsubr
            hvcurveto
            -4 6 -5 5 -4 5 return
          </CharString>
          <CharString index="391">
            vvcurveto
            -40 60 -65 57 88 120 30 45 return
          </CharString>
          <CharString index="392">
            -25 hhcurveto
            -22 -9 -9 -18 -33 31 -54 45 return
          </CharString>
          <CharString index="393">
            -91 120 -143 85 164 callsubr
            return
          </CharString>
          <CharString index="394">
            -30 -38 33 -39 hhcurveto
            return
          </CharString>
          <CharString index="395">
            -12 -1 -12 -12 return
          </CharString>
          <CharString index="396">
            vvcurveto
            51 -36 72 -57 36 vhcurveto
            3 10 7 19 9 33 1 29 rlinecurve
            return
          </CharString>
          <CharString index="397">
            -2 -13 -17 -52 -26 -54 -30 -49 rlinecurve
            -28 51 -29 62 -23 55 rrcurveto
            return
          </CharString>
          <CharString index="398">
            -8 -52 rrcurveto
            42 return
          </CharString>
          <CharString index="399">
            -14 -14 0 -14 hhcurveto
            5 54 2 52 42 4 0 3 4 vvcurveto
            return
          </CharString>
          <CharString index="400">
            -477 rmoveto
            -11 -10 -7 -13 -30 -2 -28 -4 -27 hvcurveto
            -10 -32 return
          </CharString>
          <CharString index="401">
            8 -27 313 callsubr
            return
          </CharString>
          <CharString index="402">
            206 160 146 198 145 -97 111 -160 return
          </CharString>
          <CharString index="403">
            vhcurveto
            -5 callsubr
          </CharString>
          <CharString index="404">
            15 5 -12 -17 -31 -24 -31 -36 -31 return
          </CharString>
          <CharString index="405">
            55 rmoveto
            -99 callsubr
            -30 return
          </CharString>
          <CharString index="406">
            71 -28 -22 -7 -12 -18 vhcurveto
            return
          </CharString>
          <CharString index="407">
            -54 -53 -43 -67 -51 vvcurveto
            return
          </CharString>
          <CharString index="408">
            rmoveto
            21 22 -23 -28 return
          </CharString>
          <CharString index="409">
            19 98 13 88 9 74 rrcurveto
            86 8 132 16 31 vvcurveto
            return
          </CharString>
          <CharString index="410">
            -37 23 -39 -18 -54 -209 -42 -36 vvcurveto
            -17 17 -9 31 return
          </CharString>
          <CharString index="411">
            hlineto
            311 callgsubr
            return
          </CharString>
          <CharString index="412">
            -13 271 callsubr
            58 29 return
          </CharString>
          <CharString index="413">
            251 callgsubr
            49 38 -3 -7 return
          </CharString>
          <CharString index="414">
            -37 -70 -28 -34 -15 36 -21 24 hvcurveto
            17 0 14 27 hhcurveto
            return
          </CharString>
          <CharString index="415">
            124 -105 callsubr
          </CharString>
          <CharString index="416">
            -66 callgsubr
            337 hlineto
            return
          </CharString>
          <CharString index="417">
            53 -74 callsubr
            return
          </CharString>
          <CharString index="418">
            26 -26 29 -25 30 -22 rrcurveto
            -10 -27 -28 -5 -29 hhcurveto
            return
          </CharString>
          <CharString index="419">
            rmoveto
            -13 -11 -2 -3 -10 hvcurveto
            3 -8 -11 2 -12 hhcurveto
            return
          </CharString>
          <CharString index="420">
            hhcurveto
            -520 -66 callgsubr
            return
          </CharString>
          <CharString index="421">
            86 vhcurveto
            -12 -74 -10 return
          </CharString>
          <CharString index="422">
            -20 13 -12 20 return
          </CharString>
          <CharString index="423">
            -58 43 -39 89 return
          </CharString>
          <CharString index="424">
            129 189 71 139 71 -35 78 -59 41 return
          </CharString>
          <CharString index="425">
            117 -107 callgsubr
            return
          </CharString>
          <CharString index="426">
            21 17 21 30 36 48 -40 -22 -18 -27 -9 -30 return
          </CharString>
          <CharString index="427">
            326 -106 callgsubr
            return
          </CharString>
          <CharString index="428">
            32 -35 75 -28 -21 -23 -30 -27 -29 51 -53 31 return
          </CharString>
          <CharString index="429">
            289 callgsubr
            -25 -28 -37 -33 -35 62 -65 38 return
          </CharString>
          <CharString index="430">
            -107 callsubr
            318 hlineto
            return
          </CharString>
          <CharString index="431">
            622 -106 callgsubr
            return
          </CharString>
          <CharString index="432">
            427 -106 callgsubr
            return
          </CharString>
          <CharString index="433">
            -54 -33 rrcurveto
            -120 -74 return
          </CharString>
          <CharString index="434">
            187 callgsubr
            vhcurveto
            return
          </CharString>
          <CharString index="435">
            554 rmoveto
            -2 return
          </CharString>
          <CharString index="436">
            rmoveto
            -25 -38 -26 -21 -17 9 -8 19 -6 hvcurveto
            return
          </CharString>
          <CharString index="437">
            135 147 86 94 46 -28 27 -33 15 return
          </CharString>
          <CharString index="438">
            28 hhcurveto
            10 9 9 12 66 -65 68 -100 -74 return
          </CharString>
          <CharString index="439">
            hlineto
            -22 -154 rlineto
            39 287 callsubr
            return
          </CharString>
          <CharString index="440">
            135 callgsubr
            100 return
          </CharString>
          <CharString index="441">
            vvcurveto
            315 callsubr
            return
          </CharString>
          <CharString index="442">
            -30 -34 -48 -19 -48 -82 -8 71 -52 hhcurveto
            return
          </CharString>
          <CharString index="443">
            4 19 2 21 19 vvcurveto
            78 -48 70 -81 return
          </CharString>
          <CharString index="444">
            -78 80 -48 94 170 137 89 101 return
          </CharString>
          <CharString index="445">
            7 28 vvcurveto
            23 -33 7 -46 vhcurveto
            endchar
          </CharString>
        <CharString name=".notdef">
          191 180 hmoveto
          390 701 -390 hlineto
          54 -50 rmoveto
          282 -601 -282 hlineto
          endchar
        </CharString>
        <CharString name="A">
          71 278 371 -87 callgsubr
        </CharString>
        <CharString name="AE">
          340 446 424 rmoveto
          -49 -5 -52 -8 -46 -8 31 74 39 82 24 25 9 9 31 8 50 5 -7 -59 -14 -62 -16 -61 rrcurveto
          493 241 rmoveto
          38 -92 33 -237 -237 -67 -11 -53 -39 vhcurveto
          -39 -53 -55 -156 -23 -62 rrcurveto
          -39 -106 -77 -169 -27 vvcurveto
          -39 59 -45 25 26 51 122 134 52 vhcurveto
          43 5 65 11 57 10 rrcurveto
          -18 -66 -14 -58 -42 vvcurveto
          -56 59 -55 61 129 callgsubr
          vhcurveto
          -23 -116 -41 -143 hhcurveto
          -10 316 callgsubr
          19 56 21 66 hvcurveto
          136 19 117 8 47 vvcurveto
          40 -72 5 -90 -13 -20 -1 -1 -24 vhcurveto
          13 51 9 54 50 vvcurveto
          6 -2 6 -3 7 vhcurveto
          16 17 0 17 hhcurveto
          147 126 17 35 hvcurveto
          endchar
        </CharString>
        <CharString name="Aacute">
          72 357 790 74 callsubr
          -80 -419 -87 callgsubr
        </CharString>
        <CharString name="Abreve">
          72 376 788 rmoveto
          82 96 79 60 18 -12 14 -19 hvcurveto
          -44 -20 -72 -70 -77 15 115 -37 hhcurveto
          -23 -46 -23 -56 -60 59 -75 96 hvcurveto
          -99 -417 -87 callgsubr
        </CharString>
        <CharString name="Acircumflex">
          72 241 806 36 callsubr
          36 -435 -87 callgsubr
        </CharString>
        <CharString name="Adieresis">
          72 475 799 rmoveto
          228 callsubr
          -23 callsubr
          hvcurveto
          -178 hmoveto
          228 callsubr
          -23 callsubr
          hvcurveto
          -20 -428 -87 callgsubr
        </CharString>
        <CharString name="Agrave">
          72 309 846 rmoveto
          -23 callgsubr
          -28 40 -20 63 -39 hvcurveto
          -32 -475 -87 callgsubr
        </CharString>
        <CharString name="Amacron">
          72 234 808 rmoveto
          202 callsubr
          -1 callgsubr
          43 -437 -87 callgsubr
        </CharString>
        <CharString name="Aogonek">
          72 277 371 rmoveto
          26 79 25 76 17 55 6 -56 6 -73 7 -71 -30 -3 -29 -3 -28 -4 rrcurveto
          214 17 rmoveto
          215 -15 -39 141 -47 hhcurveto
          -32 -100 -37 -45 -14 hvcurveto
          -36 -112 -39 -96 -23 -70 -5 -15 -5 -14 -6 -15 rrcurveto
          -60 -18 -39 -22 -23 vvcurveto
          -25 19 -31 23 -15 vhcurveto
          -22 -50 -17 -39 -17 vvcurveto
          -45 67 -41 23 20 41 97 119 43 vhcurveto
          13 4 14 4 15 4 29 8 37 8 39 9 5 -54 5 -47 5 -30 3 -20 3 -17 3 -14 rrcurveto
          -54 -33 -78 -102 -57 vvcurveto
          67 callsubr
          18 50 29 24 32 hvcurveto
          20 13 10 42 103 vvcurveto
          42 -1 41 -1 38 vhcurveto
          50 16 37 18 21 vvcurveto
          28 -24 7 -51 vhcurveto
          endchar
        </CharString>
        <CharString name="Aring">
          72 384 934 190 callsubr
          -97 -415 -87 callgsubr
        </CharString>
        <CharString name="Atilde">
          72 216 794 rmoveto
          21 callsubr
          212 callsubr
          hvcurveto
          61 -423 -87 callgsubr
        </CharString>
        <CharString name="B">
          65 241 344 rmoveto
          -17 13 19 -14 13 hhcurveto
          35 118 -18 -31 -46 -157 -57 -95 -20 hvcurveto
          9 17 11 42 17 74 rrcurveto
          164 335 rmoveto
          27 17 -9 -27 -60 -81 -35 -52 -31 hvcurveto
          -14 -8 -13 -8 -11 -8 rrcurveto
          12 50 5 26 22 vvcurveto
          18 -16 26 -20 22 vhcurveto
          9 47 61 13 38 hhcurveto
          26 -228 rmoveto
          89 56 67 74 71 vvcurveto
          115 -137 40 -172 -86 -68 -23 -39 -15 22 -40 25 -23 vhcurveto
          -3 -163 -65 -168 -46 vvcurveto
          -33 46 -38 29 -12 vhcurveto
          -2 -11 -10 -1 -7 -43 -37 33 -20 hhcurveto
          -17 -11 -15 -22 -38 87 -85 53 176 244 124 129 54 -66 44 -75 20 hvcurveto
          endchar
        </CharString>
        <CharString name="C">
          58 533 609 51 callgsubr
        </CharString>
        <CharString name="CR">
          endchar
        </CharString>
        <CharString name="Cacute">
          70 484 923 rmoveto
          -64 callsubr
          163 callsubr
          vhcurveto
          51 -314 51 callgsubr
        </CharString>
        <CharString name="Ccaron">
          70 598 964 -31 callsubr
          -63 -355 51 callgsubr
        </CharString>
        <CharString name="Ccedilla">
          70 559 206 rmoveto
          22 -11 17 -8 vhcurveto
          -26 -127 -85 -157 hhcurveto
          -36 -10 20 41 135 175 236 104 hvcurveto
          26 18 -8 15 hhcurveto
          6 7 5 20 52 -57 86 -37 -187 -217 -324 -192 -68 68 -93 71 -38 hvcurveto
          -17 -37 -26 -52 -18 16 callsubr
          8 14 8 14 6 13 rrcurveto
          123 14 173 111 67 vvcurveto
          endchar
        </CharString>
        <CharString name="D">
          107 189 155 105 callgsubr
        </CharString>
        <CharString name="Dcaron">
          107 444 722 -18 callsubr
          -255 -567 105 callgsubr
        </CharString>
        <CharString name="Dcroat">
          107 234 298 rmoveto
          50 9 49 9 16 2 rrcurveto
          40 6 26 19 23 vvcurveto
          46 -54 22 -59 -7 -10 -1 -1 -12 vhcurveto
          15 56 9 42 2 28 187 callsubr
          -71 -21 -71 -18 -2 -17 -3 -16 -1 rrcurveto
          -39 -4 -15 -19 -24 vvcurveto
          -45 29 -24 40 -6 vhcurveto
          -20 -70 -15 -59 -30 130 callgsubr
        </CharString>
        <CharString name="E">
          -8 242 433 -79 callgsubr
        </CharString>
        <CharString name="Eacute">
          -8 368 790 74 callsubr
          -126 -357 -79 callgsubr
        </CharString>
        <CharString name="Ecaron">
          -8 357 782 -18 callsubr
          -115 -349 -79 callgsubr
        </CharString>
        <CharString name="Ecircumflex">
          -8 252 806 36 callsubr
          -10 -373 -79 callgsubr
        </CharString>
        <CharString name="Edieresis">
          -8 486 799 rmoveto
          228 callsubr
          -23 callsubr
          hvcurveto
          -178 hmoveto
          228 callsubr
          -23 callsubr
          hvcurveto
          -66 -366 -79 callgsubr
        </CharString>
        <CharString name="Edotaccent">
          -8 391 785 rmoveto
          20 25 25 17 26 -45 91 -29 -29 -33 -41 -29 -32 54 -57 37 hvcurveto
          -149 -352 -79 callgsubr
        </CharString>
        <CharString name="Egrave">
          -8 320 846 rmoveto
          -23 callgsubr
          -28 40 -20 63 -39 hvcurveto
          -78 -413 -79 callgsubr
        </CharString>
        <CharString name="Emacron">
          -8 245 808 rmoveto
          202 callsubr
          -1 callgsubr
          -3 -375 -79 callgsubr
        </CharString>
        <CharString name="Eogonek">
          -8 242 433 rmoveto
          14 52 10 54 51 vvcurveto
          25 7 28 7 30 6 rrcurveto
          113 21 129 -7 56 vvcurveto
          40 -122 8 -94 -160 -65 -4 -39 -16 vhcurveto
          -1 -2 -1 -3 -1 -4 rrcurveto
          -1 -4 0 -6 -5 vvcurveto
          -3 0 -4 1 -3 vhcurveto
          -6 -177 -100 -231 -112 vvcurveto
          -56 59 -55 61 61 67 11 18 57 vhcurveto
          -12 -23 -7 -22 -18 vvcurveto
          67 callsubr
          hvcurveto
          24 87 42 45 vvcurveto
          22 -25 20 -22 3 vhcurveto
          1 -2 -3 1 -4 -23 -116 -41 -143 hhcurveto
          -10 316 callgsubr
          18 55 21 65 hvcurveto
          104 4 156 31 65 vvcurveto
          14 -13 10 -17 vhcurveto
          -44 -53 -11 -94 hhcurveto
          endchar
        </CharString>
        <CharString name="Eth">
          90 276 304 rmoveto
          30 5 26 5 17 4 rrcurveto
          47 10 19 17 23 vvcurveto
          36 -47 30 -53 vhcurveto
          0 vlineto
          16 59 9 43 2 29 187 callsubr
          -72 -21 -70 -31 -5 -32 -5 -31 -3 rrcurveto
          -28 -3 -27 -13 -32 vvcurveto
          -41 37 -34 50 5 9 1 1 10 vhcurveto
          -19 -67 -14 -57 -29 130 callgsubr
        </CharString>
        <CharString name="Euro">
          75 598 200 rmoveto
          -44 -90 -58 -132 hhcurveto
          -54 -27 23 39 -13 hvcurveto
          138 22 221 39 47 vvcurveto
          28 -60 4 -62 -64 -92 -6 -10 -86 vhcurveto
          4 13 4 14 6 14 14 1 15 2 16 1 rrcurveto
          58 3 249 23 44 vvcurveto
          47 -138 5 -130 vhcurveto
          61 56 70 46 60 29 6 -49 12 hhcurveto
          19 22 33 27 54 -47 70 -47 -146 -124 -111 -137 -72 hvcurveto
          -72 -6 -54 -13 -22 vvcurveto
          -30 29 -67 26 vhcurveto
          6 6 0 6 hhcurveto
          -4 -13 -2 -14 -3 -13 rrcurveto
          -59 -10 -41 -11 -10 vvcurveto
          -29 30 -67 23 16 15 0 1 13 vhcurveto
          -101 15 62 -73 146 hhcurveto
          123 174 94 60 17 -10 18 -16 hvcurveto
          endchar
        </CharString>
        <CharString name="F">
          -17 145 680 rmoveto
          -1 -6 -1 -6 -7 -3 0 -2 -3 vvcurveto
          -7 -110 -95 -333 -80 vvcurveto
          -30 64 -87 29 18 20 116 136 34 vhcurveto
          2 9 rlineto
          78 3 203 28 76 vvcurveto
          15 -18 14 -22 vhcurveto
          -45 -52 -11 -75 hhcurveto
          -15 -13 0 1 -13 hvcurveto
          20 100 11 74 17 vvcurveto
          1 vlineto
          30 5 37 7 38 4 rrcurveto
          114 12 106 4 43 vvcurveto
          45 -96 22 -98 -165 -72 -5 -46 -15 vhcurveto
          endchar
        </CharString>
        <CharString name="G">
          81 callgsubr
          endchar
        </CharString>
        <CharString name="Gbreve">
          81 callgsubr
          227 552 93 callsubr
        </CharString>
        <CharString name="H">
          92 225 287 rmoveto
          20 5 23 6 27 5 35 7 37 6 35 6 rrcurveto
          -23 -95 -19 -79 -21 vvcurveto
          -54 62 -60 29 18 14 90 126 33 vhcurveto
          10 40 11 40 10 38 rrcurveto
          45 11 29 15 23 vvcurveto
          20 -21 12 -29 7 vhcurveto
          22 85 17 66 21 vvcurveto
          60 -73 78 -28 -22 -7 -12 -21 -52 -22 -106 -26 -109 vhcurveto
          -50 -2 -62 -6 -59 -10 rrcurveto
          21 89 15 70 21 vvcurveto
          60 -72 78 -29 -21 -8 -12 -21 -61 -32 -137 -31 -126 vhcurveto
          -29 -12 -19 -14 -14 vvcurveto
          -23 9 -22 15 -15 vhcurveto
          -17 -73 -13 -59 -24 vvcurveto
          -31 68 -88 29 19 11 90 126 33 vhcurveto
          endchar
        </CharString>
        <CharString name="I">
          -29 callsubr
          endchar
        </CharString>
        <CharString name="Iacute">
          -29 callsubr
          127 211 rmoveto
          -64 callsubr
          163 callsubr
          vhcurveto
          endchar
        </CharString>
        <CharString name="Icircumflex">
          -29 callsubr
          204 208 170 callgsubr
        </CharString>
        <CharString name="Idieresis">
          -29 callsubr
          95 129 rmoveto
          -23 callsubr
          228 callsubr
          vhcurveto
          178 hmoveto
          -23 callsubr
          228 callsubr
          vhcurveto
          endchar
        </CharString>
        <CharString name="Idotaccent">
          -29 callsubr
          41 162 156 callsubr
        </CharString>
        <CharString name="Igrave">
          -29 callsubr
          -42 221 rmoveto
          -28 40 -20 63 -39 vhcurveto
          -23 callgsubr
          hvcurveto
          endchar
        </CharString>
        <CharString name="Imacron">
          -29 callsubr
          127 119 rmoveto
          -1 callgsubr
          202 callsubr
          endchar
        </CharString>
        <CharString name="Iogonek">
          -250 150 20 rmoveto
          23 28 18 112 26 125 rrcurveto
          36 174 33 114 34 vvcurveto
          60 -76 78 -28 -22 -8 -12 -21 -1 vhcurveto
          -3 -104 -98 -446 -44 vvcurveto
          -10 7 -15 11 -16 vhcurveto
          -53 -40 -67 -91 -53 vvcurveto
          67 callsubr
          18 51 29 24 33 hvcurveto
          endchar
        </CharString>
        <CharString name="J">
          -73 38 255 rmoveto
          -19 -6 -14 -35 -68 100 -125 100 125 33 153 269 63 hvcurveto
          19 82 61 157 30 vvcurveto
          26 -23 10 -20 -63 -285 -37 -80 -23 17 -21 33 25 109 15 8 36 vhcurveto
          -9 -24 -14 -76 -12 -48 rrcurveto
          -226 -58 -25 -85 -33 -71 -45 112 -38 hhcurveto
          endchar
        </CharString>
        <CharString name="K">
          43 118 13 77 callsubr
        </CharString>
        <CharString name="L">
          -13 315 659 13 callgsubr
        </CharString>
        <CharString name="Lacute">
          -13 382 923 rmoveto
          -64 callsubr
          163 callsubr
          vhcurveto
          -67 -264 13 callgsubr
        </CharString>
        <CharString name="Lcaron">
          -13 435 646 rmoveto
          -28 -47 -63 -18 -37 vvcurveto
          -23 19 -8 16 181 callsubr
          -28 -48 -39 -25 -26 21 -20 42 vhcurveto
          -120 13 13 callgsubr
        </CharString>
        <CharString name="Lslash">
          -13 463 186 rmoveto
          -25 -102 -41 -142 hhcurveto
          -10 -2 0 7 26 19 66 15 43 hvcurveto
          10 28 12 32 11 34 rrcurveto
          104 33 47 19 29 vvcurveto
          17 -19 4 -25 -8 -30 -3 -5 -39 vhcurveto
          21 68 15 67 49 vvcurveto
          51 -69 50 -28 -23 -6 -13 -20 -60 -31 -109 -33 -109 vhcurveto
          -68 -16 -57 -19 -21 vvcurveto
          -17 28 -40 33 6 11 2 2 14 vhcurveto
          -28 -91 -23 -80 -38 vvcurveto
          -58 64 -59 66 158 159 52 88 19 -4 13 -21 vhcurveto
          endchar
        </CharString>
        <CharString name="M">
          197 309 644 rmoveto
          28 -108 73 -22 -22 -7 -12 -21 vhcurveto
          -117 -117 -391 -72 vvcurveto
          -31 57 -88 24 23 23 90 126 33 vhcurveto
          10 38 21 96 9 73 33 -121 13 -71 22 -21 rrcurveto
          -21 21 26 -3 19 hhcurveto
          59 64 104 113 88 hvcurveto
          -44 -126 -17 -89 -66 vvcurveto
          -57 32 -65 29 42 5 77 199 51 vhcurveto
          36 140 44 130 78 vvcurveto
          37 -44 44 -32 -54 -145 -223 -111 -96 vhcurveto
          -41 89 -35 126 45 vvcurveto
          endchar
        </CharString>
        <CharString name="N">
          72 624 671 -43 callgsubr
          endchar
        </CharString>
        <CharString name="NULL">
          endchar
        </CharString>
        <CharString name="Nacute">
          72 425 923 rmoveto
          -64 callsubr
          163 callsubr
          vhcurveto
          199 -252 -43 callgsubr
          endchar
        </CharString>
        <CharString name="Ncaron">
          72 539 964 -31 callsubr
          85 -293 -43 callgsubr
          endchar
        </CharString>
        <CharString name="Ntilde">
          72 624 671 -43 callgsubr
          -276 314 rmoveto
          212 callsubr
          21 callsubr
          endchar
        </CharString>
        <CharString name="O">
          138 callsubr
          endchar
        </CharString>
        <CharString name="OE">
          391 451 383 rmoveto
          -123 -40 -120 -126 -70 hhcurveto
          -24 -18 38 58 181 154 205 65 39 28 -49 -106 -15 -2 -15 -3 -15 hvcurveto
          153 17 rmoveto
          14 52 10 54 51 vvcurveto
          25 7 28 7 30 6 rrcurveto
          113 21 129 -7 56 vvcurveto
          40 -122 8 -94 -139 -68 -3 -27 -25 vhcurveto
          31 -35 -43 18 -50 hhcurveto
          -144 -210 -260 -257 -90 86 -127 104 67 64 28 45 55 hvcurveto
          -37 21 43 -29 44 hhcurveto
          129 callgsubr
          hvcurveto
          -23 -116 -41 -143 hhcurveto
          -10 316 callgsubr
          18 55 21 65 hvcurveto
          104 4 156 31 65 vvcurveto
          14 -13 10 -17 vhcurveto
          -44 -53 -11 -94 hhcurveto
          endchar
        </CharString>
        <CharString name="Oacute">
          60 498 923 rmoveto
          -64 callsubr
          163 callsubr
          vhcurveto
          -466 -693 -55 callgsubr
          endchar
        </CharString>
        <CharString name="Ocircumflex">
          60 575 920 -30 callgsubr
          -543 -690 -55 callgsubr
          endchar
        </CharString>
        <CharString name="Odieresis">
          60 466 841 rmoveto
          -23 callsubr
          228 callsubr
          vhcurveto
          178 hmoveto
          -23 callsubr
          228 callsubr
          vhcurveto
          -612 -611 -55 callgsubr
          endchar
        </CharString>
        <CharString name="Ograve">
          138 callsubr
          -69 317 rmoveto
          -28 40 -20 63 -39 vhcurveto
          -23 callgsubr
          hvcurveto
          endchar
        </CharString>
        <CharString name="Ohungarumlaut">
          60 452 1027 -9 callgsubr
          -608 -785 -55 callgsubr
          endchar
        </CharString>
        <CharString name="Omacron">
          60 498 831 rmoveto
          -1 callgsubr
          202 callsubr
          -466 -601 -55 callgsubr
          endchar
        </CharString>
        <CharString name="Oslash">
          60 480 461 rmoveto
          -141 -159 -186 -85 -11 -13 8 14 -11 vhcurveto
          63 77 88 107 127 142 rrcurveto
          1 -7 0 -7 -7 vvcurveto
          -82 155 rmoveto
          18 19 -11 -22 15 hvcurveto
          -59 -70 -66 -83 -59 -74 -29 -36 -30 -36 -27 -34 rrcurveto
          175 10 145 191 63 hhcurveto
          215 13 rmoveto
          34 37 9 24 14 vvcurveto
          21 -16 13 -21 -17 -29 -22 -36 -35 vhcurveto
          41 -41 -52 26 -59 hhcurveto
          -144 -210 -260 -257 -36 16 -41 26 -37 hvcurveto
          -25 -34 -16 -24 -9 vvcurveto
          -18 10 -20 19 12 18 16 35 30 vhcurveto
          -30 34 40 -19 41 hhcurveto
          207 178 271 187 47 -11 46 -20 41 hvcurveto
          endchar
        </CharString>
        <CharString name="Otilde">
          138 callsubr
          23 369 rmoveto
          212 callsubr
          21 callsubr
          endchar
        </CharString>
        <CharString name="P">
          -10 234 378 rmoveto
          21 78 8 42 43 vvcurveto
          20 -8 22 -12 21 vhcurveto
          16 30 37 21 47 hhcurveto
          43 36 -30 -43 -73 -86 -71 -116 -46 hvcurveto
          -38 -131 rmoveto
          216 43 166 130 151 vvcurveto
          113 -95 86 -164 -88 -140 -45 -47 -11 14 -25 20 -21 vhcurveto
          -7 -250 -96 -183 -69 vvcurveto
          -31 55 -70 32 24 21 84 127 37 vhcurveto
          endchar
        </CharString>
        <CharString name="Q">
          100 254 462 rmoveto
          -51 28 -133 41 -130 vhcurveto
          -9 -16 -15 -5 -14 hhcurveto
          -24 -75 38 58 84 33 89 42 71 hvcurveto
          144 142 rmoveto
          39 65 -49 -106 -70 -34 -81 -45 -64 hvcurveto
          -26 99 -20 115 127 vvcurveto
          12 8 9 10 8 vhcurveto
          249 -145 rmoveto
          142 -124 134 -134 -144 -210 -260 -257 -90 143 -127 104 30 28 6 10 27 vhcurveto
          -112 44 50 -89 45 hhcurveto
          28 9 11 30 44 -33 77 -37 104 hvcurveto
          106 95 68 159 123 vvcurveto
          endchar
        </CharString>
        <CharString name="R">
          42 261 383 -13 callsubr
        </CharString>
        <CharString name="Racute">
          16 367 790 74 callsubr
          -119 -407 rmoveto
          13 57 3 35 36 vvcurveto
          22 -10 25 -15 23 vhcurveto
          11 27 31 11 35 hhcurveto
          60 22 -16 -26 -78 -102 -53 -64 -47 hvcurveto
          320 188 rmoveto
          103 -101 70 -143 -134 -116 -59 -37 -24 24 -43 25 -20 vhcurveto
          -13 -232 -88 -154 -66 vvcurveto
          -31 56 -70 32 24 21 84 107 37 vhcurveto
          7 21 7 20 6 18 rrcurveto
          -106 43 131 -144 111 hhcurveto
          42 15 18 23 29 -63 47 -61 60 hvcurveto
          -49 49 -26 26 35 26 213 82 168 vvcurveto
          endchar
        </CharString>
        <CharString name="Rcaron">
          16 356 782 -18 callsubr
          -108 -399 -13 callsubr
        </CharString>
        <CharString name="S">
          -7 227 13 -14 callsubr
        </CharString>
        <CharString name="Sacute">
          -20 444 923 rmoveto
          -64 callsubr
          163 callsubr
          vhcurveto
          -217 -910 -14 callsubr
        </CharString>
        <CharString name="Scaron">
          -20 558 964 -31 callsubr
          -331 -951 -14 callsubr
        </CharString>
        <CharString name="T">
          -15 340 737 35 callsubr
        </CharString>
        <CharString name="Tcaron">
          -54 306 782 -18 callsubr
          -3 -45 35 callsubr
        </CharString>
        <CharString name="Thorn">
          -24 264 320 rmoveto
          -16 -4 -14 -3 -13 -2 14 54 16 56 13 50 rrcurveto
          5 16 16 3 14 hhcurveto
          43 37 -18 -19 -70 -66 -35 -60 -17 hvcurveto
          29 299 rmoveto
          88 -95 44 -27 -25 -7 -13 -20 vhcurveto
          -238 -99 -297 -71 vvcurveto
          -31 43 -71 32 34 12 53 128 29 vhcurveto
          30 2 29 4 28 7 rrcurveto
          142 34 103 90 107 vvcurveto
          62 -100 122 -92 -12 -12 -1 -1 -13 vhcurveto
          endchar
        </CharString>
        <CharString name="U">
          36 272 43 callgsubr
          endchar
        </CharString>
        <CharString name="Uacute">
          19 343 923 rmoveto
          -64 callsubr
          163 callsubr
          vhcurveto
          -85 -288 -60 callsubr
          endchar
        </CharString>
        <CharString name="Ucircumflex">
          19 420 920 -30 callgsubr
          -162 -285 -60 callsubr
          endchar
        </CharString>
        <CharString name="Udieresis">
          19 311 841 rmoveto
          -23 callsubr
          228 callsubr
          vhcurveto
          178 hmoveto
          -23 callsubr
          228 callsubr
          vhcurveto
          -231 -206 -60 callsubr
          endchar
        </CharString>
        <CharString name="Ugrave">
          32 callsubr
          -84 298 rmoveto
          -28 40 -20 63 -39 vhcurveto
          -23 callgsubr
          hvcurveto
          endchar
        </CharString>
        <CharString name="Uhungarumlaut">
          32 callsubr
          39 392 -9 callgsubr
          endchar
        </CharString>
        <CharString name="Umacron">
          32 callsubr
          85 196 rmoveto
          -1 callgsubr
          202 callsubr
          endchar
        </CharString>
        <CharString name="Uogonek">
          -16 270 17 rmoveto
          184 44 122 312 201 vvcurveto
          98 -100 76 -33 -20 -6 -12 -19 vhcurveto
          -33 13 -16 -99 vvcurveto
          -215 -126 -203 -68 -33 -17 48 50 vhcurveto
          125 72 189 72 vvcurveto
          59 -74 53 -28 -23 -7 -13 -20 vhcurveto
          -91 -80 -198 -196 vvcurveto
          -61 44 -85 60 -43 vhcurveto
          -40 -44 -35 -59 -38 vvcurveto
          67 callsubr
          17 42 25 26 29 hvcurveto
          endchar
        </CharString>
        <CharString name="Uring">
          19 360 1010 112 callsubr
          -94 -299 -60 callsubr
          endchar
        </CharString>
        <CharString name="V">
          -27 512 745 rmoveto
          -41 -72 -140 -374 -137 hvcurveto
          -29 165 -9 197 -18 46 rrcurveto
          66 -27 -56 40 -43 hhcurveto
          -15 -12 -12 -32 -70 84 -443 41 -108 hvcurveto
          -31 12 47 -35 18 hhcurveto
          59 45 157 170 84 hvcurveto
          81 165 73 123 52 vvcurveto
          31 -49 33 -36 vhcurveto
          endchar
        </CharString>
        <CharString name="W">
          226 356 220 rmoveto
          -131 11 41 -76 87 hhcurveto
          137 112 209 188 175 -73 162 -205 -34 -21 -12 -33 -29 40 -60 44 78 28 -84 -103 -122 -46 -140 -54 hvcurveto
          -63 25 266 -50 hhcurveto
          -53 -101 -93 -134 -67 hvcurveto
          9 165 62 210 47 vvcurveto
          57 -93 63 -44 -16 -10 -12 -30 vhcurveto
          -299 -42 -120 -177 vvcurveto
          -47 75 -47 20 38 62 56 107 72 vhcurveto
          endchar
        </CharString>
        <CharString name="X">
          26 534 736 rmoveto
          -48 -48 -33 -219 -141 hvcurveto
          -36 77 -26 73 55 vvcurveto
          33 -86 25 -49 -18 0 -28 -17 -55 58 -144 73 -142 vhcurveto
          -83 -119 -78 -95 -30 -34 rrcurveto
          -15 -17 -8 -6 -13 vvcurveto
          -27 52 -37 39 48 81 115 100 67 vhcurveto
          -121 72 71 -95 39 hhcurveto
          25 26 18 36 31 -77 117 -73 132 hvcurveto
          95 125 45 53 42 52 rrcurveto
          30 37 37 1 26 vvcurveto
          35 -60 61 -24 vhcurveto
          endchar
        </CharString>
        <CharString name="Y">
          30 callgsubr
          endchar
        </CharString>
        <CharString name="Yacute">
          30 callgsubr
          78 519 rmoveto
          -64 callsubr
          163 callsubr
          vhcurveto
          endchar
        </CharString>
        <CharString name="Ydieresis">
          30 callgsubr
          46 437 rmoveto
          -23 callsubr
          228 callsubr
          vhcurveto
          178 hmoveto
          -23 callsubr
          228 callsubr
          vhcurveto
          endchar
        </CharString>
        <CharString name="Z">
          87 563 553 -15 callgsubr
          endchar
        </CharString>
        <CharString name="Zacute">
          87 422 923 rmoveto
          -64 callsubr
          163 callsubr
          vhcurveto
          141 -370 -15 callgsubr
          endchar
        </CharString>
        <CharString name="Zcaron">
          87 536 964 -31 callsubr
          27 -411 -15 callgsubr
          endchar
        </CharString>
        <CharString name="Zdotaccent">
          87 563 553 -15 callgsubr
          -227 321 156 callsubr
        </CharString>
        <CharString name="a">
          -49 159 208 callsubr
          291 158 rmoveto
          128 callsubr
          -157 -151 -280 -99 -57 87 -80 56 47 58 42 54 53 vhcurveto
          -55 13 32 -41 24 hhcurveto
          30 6 60 62 11 hvcurveto
          14 77 17 28 30 vvcurveto
          7 -7 10 -11 10 vhcurveto
          endchar
        </CharString>
        <CharString name="aacute">
          -41 168 138 -72 callgsubr
          215 250 rmoveto
          163 callsubr
          hvcurveto
          -64 callsubr
          vhcurveto
          endchar
        </CharString>
        <CharString name="abreve">
          -41 168 138 -72 callgsubr
          238 195 93 callsubr
        </CharString>
        <CharString name="acircumflex">
          -41 168 138 -72 callgsubr
          167 156 170 callgsubr
        </CharString>
        <CharString name="acute">
          44 783 rmoveto
          -64 callsubr
          163 callsubr
          vhcurveto
          endchar
        </CharString>
        <CharString name="adieresis">
          -41 349 563 rmoveto
          228 callsubr
          -23 callsubr
          hvcurveto
          -181 -425 -72 callgsubr
          162 197 rmoveto
          -29 -34 -43 -29 -33 55 -57 36 228 callsubr
          25 -45 95 -29 hvcurveto
          endchar
        </CharString>
        <CharString name="ae">
          211 341 528 rmoveto
          -155 -157 -280 -99 -55 89 -82 58 49 64 48 56 57 hvcurveto
          -58 28 57 -46 96 hhcurveto
          101 103 57 52 16 -9 11 -32 hvcurveto
          -28 -30 -28 -126 hhcurveto
          -51 -3 17 36 16 3 17 5 221 callsubr
          45 hhcurveto
          114 callsubr
          -44 -50 -26 -43 -45 hvcurveto
          38 -35 -54 31 -33 hhcurveto
          157 -219 rmoveto
          52 32 45 44 33 hhcurveto
          25 30 -31 -17 -39 -70 -10 -67 -9 -10 0 1 -9 hvcurveto
          -139 92 rmoveto
          10 7 -18 -32 4 hvcurveto
          -18 -31 -15 -33 -8 -34 rrcurveto
          -75 -49 -89 -40 -29 hhcurveto
          -14 -5 2 11 52 120 198 86 hvcurveto
          endchar
        </CharString>
        <CharString name="agrave">
          -41 361 610 rmoveto
          -23 callgsubr
          -28 40 -20 63 -39 hvcurveto
          -193 -472 -72 callgsubr
          endchar
        </CharString>
        <CharString name="amacron">
          -41 168 138 -72 callgsubr
          171 150 rmoveto
          -145 -133 -1 -40 -23 28 -41 28 -1 hvcurveto
          202 callsubr
          107 callgsubr
          vhcurveto
          endchar
        </CharString>
        <CharString name="ampersand">
          227 144 120 rmoveto
          5 24 54 46 65 58 12 -18 12 -19 13 -17 -68 -42 -60 -31 -33 -1 rrcurveto
          199 485 rmoveto
          18 11 -25 -28 1 hvcurveto
          -28 -24 -35 -37 -38 vhcurveto
          -6 28 -4 27 25 vvcurveto
          40 -1 12 34 30 hhcurveto
          277 -494 rmoveto
          -46 -44 18 28 -39 hvcurveto
          119 83 99 90 37 vvcurveto
          26 -11 28 -38 -20 -119 -87 -80 -122 vhcurveto
          -16 23 -15 25 -13 26 rrcurveto
          83 80 75 89 78 vvcurveto
          53 -1 -28 98 -103 hhcurveto
          -127 -91 -85 -100 1 hvcurveto
          1 -53 16 -65 29 -65 rrcurveto
          -100 -84 -107 -85 -50 vvcurveto
          -47 78 -95 67 58 94 42 57 95 vhcurveto
          -53 60 67 -34 66 hhcurveto
          81 45 27 43 25 -23 7 -71 hvcurveto
          endchar
        </CharString>
        <CharString name="aogonek">
          -41 168 208 callsubr
          259 -96 rmoveto
          8 23 5 34 6 35 rrcurveto
          14 77 17 28 30 vvcurveto
          7 -7 10 -11 10 vhcurveto
          128 callsubr
          -157 -151 -280 -99 -57 87 -80 56 47 58 42 54 53 vhcurveto
          2 -10 3 -10 4 -9 rrcurveto
          -54 -37 -71 -95 -55 vvcurveto
          67 callsubr
          22 76 39 10 42 hvcurveto
          endchar
        </CharString>
        <CharString name="approxequal">
          25 199 314 97 callsubr
          61 272 97 callsubr
          endchar
        </CharString>
        <CharString name="aring">
          -41 168 138 -72 callgsubr
          96 94 rmoveto
          -14 -11 16 18 25 14 17 14 14 11 -14 -19 -25 -14 -18 -14 hvcurveto
          11 152 rmoveto
          -60 -57 -51 -70 -57 42 -46 57 60 57 51 70 57 -42 46 -57 hvcurveto
          endchar
        </CharString>
        <CharString name="asciicircum">
          -137 381 669 rmoveto
          -49 113 -3 52 -21 15 rrcurveto
          10 -15 -45 23 -32 hhcurveto
          -60 -141 -230 -77 -19 43 -33 33 33 8 49 63 34 hvcurveto
          26 48 20 25 24 25 rrcurveto
          -80 46 75 -125 41 hhcurveto
          18 7 6 17 17 -14 35 -28 66 hvcurveto
          endchar
        </CharString>
        <CharString name="asciitilde">
          27 229 440 97 callsubr
          endchar
        </CharString>
        <CharString name="asterisk">
          -184 294 662 rmoveto
          40 19 68 36 10 vvcurveto
          17 -25 18 -14 -13 -36 -46 -18 -34 vhcurveto
          3 15 14 37 12 vvcurveto
          17 -39 27 -17 -9 -4 -4 -13 vhcurveto
          -14 3 -43 -38 vvcurveto
          -19 11 -24 25 9 vvcurveto
          17 -53 12 -27 -11 0 -6 -9 -14 62 -52 54 -23 vhcurveto
          -29 -21 -92 -27 -13 vvcurveto
          -11 18 -16 13 12 62 28 25 26 vhcurveto
          -3 -14 -17 -58 -12 vvcurveto
          -13 18 -17 12 16 17 73 35 5 vhcurveto
          -22 26 47 -24 18 hhcurveto
          11 16 9 11 11 -67 29 -28 25 hvcurveto
          endchar
        </CharString>
        <CharString name="at">
          519 439 182 rmoveto
          -11 -1 10 7 37 102 170 74 8 12 -11 -24 10 hvcurveto
          -3 -3 -3 -3 -1 -5 rrcurveto
          -105 -21 -143 -73 -23 hhcurveto
          223 585 rmoveto
          -368 -247 -342 -269 -182 167 -139 172 100 171 66 78 19 -8 7 -15 hvcurveto
          -38 -84 -42 -133 hhcurveto
          -136 -46 72 123 216 209 260 258 117 86 -69 -137 -136 -117 -83 -10 -2 -1 1 2 hvcurveto
          9 15 29 37 vvcurveto
          15 -10 15 -14 14 vhcurveto
          10 18 7 19 18 vvcurveto
          77 -98 69 -51 -151 -140 -239 -94 -56 87 -81 55 43 58 42 51 52 vhcurveto
          -41 10 27 -41 56 hhcurveto
          107 204 155 208 205 -151 126 -191 hvcurveto
          endchar
        </CharString>
        <CharString name="atilde">
          -41 168 138 -72 callgsubr
          232 210 rmoveto
          -52 -11 -66 -15 -25 hvcurveto
          16 -31 -15 76 -85 hhcurveto
          212 callsubr
          56 -2 72 22 45 hvcurveto
          -61 33 50 -44 43 hhcurveto
          49 67 84 59 31 -15 17 -25 hvcurveto
          endchar
        </CharString>
        <CharString name="b">
          8 251 128 rmoveto
          -20 -27 12 21 -27 hvcurveto
          125 61 90 106 77 hhcurveto
          15 1 -1 -8 -111 -96 -144 -74 hvcurveto
          162 399 rmoveto
          -52 -67 -52 -69 -65 hvcurveto
          26 96 25 116 65 vvcurveto
          54 -73 299 callsubr
          -230 -132 -379 -65 vvcurveto
          -28 56 -64 29 10 11 22 34 12 vhcurveto
          -33 44 47 -22 41 hhcurveto
          159 115 246 120 57 -64 91 -65 hvcurveto
          endchar
        </CharString>
        <CharString name="backslash">
          41 463 -80 rmoveto
          30 48 63 31 72 -228 529 -74 212 hvcurveto
          17 -6 -1 13 -21 hhcurveto
          -25 -71 -83 -45 -54 56 -107 113 -275 hvcurveto
          -177 73 83 -196 23 hhcurveto
          endchar
        </CharString>
        <CharString name="bar">
          -103 95 -71 rmoveto
          -25 63 -70 29 30 93 521 132 28 vhcurveto
          33 158 18 72 33 vvcurveto
          54 -80 71 -28 -23 -7 -12 -18 vhcurveto
          -94 -156 -782 -40 vvcurveto
          endchar
        </CharString>
        <CharString name="braceleft">
          -97 121 440 rmoveto
          12 -20 -20 13 -13 hhcurveto
          -11 -4 -22 -9 -21 10 -22 15 -19 hvcurveto
          6 -9 6 -8 -7 -103 -63 -38 -136 vvcurveto
          -95 89 -91 110 59 53 41 37 37 -25 10 -54 -63 -37 14 48 vhcurveto
          103 50 53 81 vvcurveto
          11 vlineto
          71 10 40 57 54 vvcurveto
          58 -43 35 -1 115 vhcurveto
          96 53 15 35 37 14 -17 -23 -49 0 -26 22 25 42 64 23 vhcurveto
          72 -1 -71 76 -85 hhcurveto
          -116 -86 -69 -119 hvcurveto
          -128 53 -41 -54 vvcurveto
          -29 -16 -14 -26 -7 -10 4 6 -10 vhcurveto
          endchar
        </CharString>
        <CharString name="braceright">
          67 444 399 rmoveto
          -20 -27 -4 -18 hhcurveto
          -21 -15 12 20 hvcurveto
          71 198 90 135 vvcurveto
          62 -110 95 -95 -95 -97 -68 -42 -24 42 -59 27 vhcurveto
          34 22 85 61 hhcurveto
          46 25 -24 -35 hvcurveto
          -87 -185 -110 -100 vvcurveto
          -46 30 -36 38 -19 vhcurveto
          -119 -63 52 -206 -70 -77 9 37 -44 hhcurveto
          -19 -2 -16 -12 -50 60 -57 91 222 -118 356 73 108 hvcurveto
          25 14 18 21 27 vvcurveto
          13 -13 3 -19 vhcurveto
          endchar
        </CharString>
        <CharString name="bracketleft">
          -96 253 749 rmoveto
          -12 -179 -176 -461 -84 vvcurveto
          -53 64 -54 66 79 149 76 42 17 -4 12 -21 vhcurveto
          -25 -90 -16 -53 hhcurveto
          -10 -2 0 6 29 31 93 27 79 hvcurveto
          52 151 60 180 3 109 10 4 10 3 9 2 rrcurveto
          73 18 105 -8 56 vvcurveto
          42 -97 6 -78 -159 -11 -8 -54 vhcurveto
          endchar
        </CharString>
        <CharString name="bracketright">
          -38 498 709 rmoveto
          5 vlineto
          2 -1 3 -1 3 vhcurveto
          44 -13 -77 2 -78 hhcurveto
          -116 -81 -41 -51 -26 37 -6 36 hvcurveto
          40 37 5 37 hhcurveto
          18 hlineto
          -1 -188 -112 -378 -1 -15 rrcurveto
          -13 -1 -13 -2 -19 -51 -28 10 -49 hhcurveto
          -21 -18 -8 -22 -60 121 -51 79 94 41 21 74 17 hvcurveto
          35 161 85 350 4 174 rrcurveto
          5 vlineto
          endchar
        </CharString>
        <CharString name="breve">
          192 723 93 callsubr
        </CharString>
        <CharString name="brokenbar">
          -104 143 249 325 callgsubr
          61 283 37 54 -80 71 -28 -23 -6 -12 -18 vhcurveto
          108 596 325 callgsubr
          62 283 37 54 -81 299 callsubr
          endchar
        </CharString>
        <CharString name="bullet">
          -322 22 372 rmoveto
          -47 83 -85 52 30 37 38 25 40 -66 133 -43 -43 -50 -61 -43 vhcurveto
          endchar
        </CharString>
        <CharString name="c">
          -70 325 527 60 callgsubr
        </CharString>
        <CharString name="cacute">
          -66 345 687 rmoveto
          -64 callsubr
          163 callsubr
          vhcurveto
          -9 -160 60 callgsubr
        </CharString>
        <CharString name="caron">
          158 728 -31 callsubr
          endchar
        </CharString>
        <CharString name="ccaron">
          -66 459 728 -31 callsubr
          -123 -201 60 callgsubr
        </CharString>
        <CharString name="ccedilla">
          -66 402 171 rmoveto
          -40 -5 -33 -137 hhcurveto
          -39 -13 11 30 77 118 140 51 hvcurveto
          35 12 -22 26 hhcurveto
          14 10 10 16 45 -60 82 -49 -145 -155 -217 -141 -48 59 -62 57 -29 hvcurveto
          -18 -37 -25 -51 -18 16 callsubr
          9 14 7 15 6 13 rrcurveto
          97 12 105 68 53 vvcurveto
          17 -12 7 -16 vhcurveto
          endchar
        </CharString>
        <CharString name="cedilla">
          31 -27 rmoveto
          20 33 16 38 12 vvcurveto
          19 -24 5 -22 -19 -18 -6 -14 -5 vhcurveto
          -12 -30 -44 -81 -24 16 callsubr
          endchar
        </CharString>
        <CharString name="cent">
          -14 168 208 rmoveto
          61 75 111 62 36 vhcurveto
          -27 -81 -25 -92 -19 -80 rrcurveto
          -37 2 -29 15 28 vvcurveto
          270 314 rmoveto
          8 25 6 19 16 vvcurveto
          22 -8 24 -26 -19 -21 -31 -48 -23 vhcurveto
          2 -6 -6 1 -6 hhcurveto
          -139 -173 -218 -136 -61 113 -87 67 -12 hvcurveto
          -8 -36 -4 -26 -9 vvcurveto
          -18 15 -17 20 25 16 35 80 25 vhcurveto
          88 20 88 50 45 vvcurveto
          17 -11 8 -16 -29 -22 -13 -7 -63 vhcurveto
          19 64 23 78 29 95 rrcurveto
          -14 25 24 -15 17 hhcurveto
          14 10 10 17 32 -26 38 -33 29 hvcurveto
          endchar
        </CharString>
        <CharString name="circumflex">
          121 684 170 callgsubr
        </CharString>
        <CharString name="colon">
          -313 47 143 rmoveto
          -44 67 -109 36 29 18 27 30 45 -41 149 -57 -23 -29 -60 -38 vhcurveto
          45 296 rmoveto
          -44 67 -109 36 29 17 27 30 45 -40 149 -57 -23 -29 -60 -38 vhcurveto
          endchar
        </CharString>
        <CharString name="comma">
          -297 50 -225 81 callsubr
        </CharString>
        <CharString name="copyright">
          149 423 527 rmoveto
          -96 -107 -144 -85 -39 58 -59 47 63 100 56 32 10 -8 11 -9 hvcurveto
          -16 -55 -32 -79 hhcurveto
          -13 -4 5 14 61 86 92 43 hvcurveto
          16 1 -4 11 hhcurveto
          9 6 6 9 23 -29 44 -24 hvcurveto
          153 -117 rmoveto
          -176 -104 -100 -170 293 callgsubr
          vhcurveto
          -270 -350 rmoveto
          295 callsubr
          294 callgsubr
          hvcurveto
          endchar
        </CharString>
        <CharString name="currency">
          41 234 296 rmoveto
          58 43 40 53 57 24 -44 -42 3 vhcurveto
          -44 -38 -51 -58 -52 -32 28 55 vhcurveto
          348 182 rmoveto
          32 -56 50 -25 -26 -52 -35 -50 -45 vhcurveto
          4 -17 -18 2 -19 hhcurveto
          -20 -20 -3 -5 -19 hvcurveto
          -12 15 -11 15 -7 9 rrcurveto
          35 -20 -76 13 -51 hhcurveto
          -18 -1 -12 -16 -18 51 -46 39 -62 hvcurveto
          -26 -31 -15 -38 -43 vvcurveto
          -31 7 -28 12 -23 vhcurveto
          -58 -61 -42 -35 -9 vvcurveto
          -24 39 -49 38 26 43 40 54 50 vhcurveto
          -9 24 27 -5 28 hhcurveto
          18 18 2 4 16 hvcurveto
          -50 40 38 -35 30 hhcurveto
          22 11 13 24 16 -19 39 -25 46 hvcurveto
          35 35 22 48 59 vvcurveto
          28 -7 26 -13 23 vhcurveto
          65 59 19 6 21 vvcurveto
          endchar
        </CharString>
        <CharString name="d">
          -20 157 151 callgsubr
          295 669 rmoveto
          -22 -7 -12 -18 hvcurveto
          2 -64 -25 -125 -29 -126 185 callsubr
          22 93 55 210 23 vvcurveto
          54 -74 71 -28 vhcurveto
          endchar
        </CharString>
        <CharString name="dagger">
          -20 445 405 rmoveto
          179 callgsubr
          -28 -243 -48 -235 -47 vvcurveto
          -28 55 -64 29 23 45 262 110 22 vhcurveto
          302 callsubr
          endchar
        </CharString>
        <CharString name="daggerdbl">
          -20 190 90 rmoveto
          302 callsubr
          179 callgsubr
          -13 -109 -16 -108 -15 -90 rrcurveto
          -115 -13 -100 -18 -15 vvcurveto
          -25 31 -61 26 34 55 6 7 50 vhcurveto
          -8 -49 -5 -35 -15 vvcurveto
          -28 55 -64 29 15 23 106 106 21 vhcurveto
          123 21 126 29 -1 34 rrcurveto
          27 -60 2 -66 -30 -35 -1 -2 -36 vhcurveto
          endchar
        </CharString>
        <CharString name="dcaron">
          220 177 151 callgsubr
          130 -53 rmoveto
          -33 47 -41 26 31 56 216 129 30 vhcurveto
          22 93 55 210 23 vvcurveto
          54 -74 71 -28 -22 -7 -12 -18 -71 -24 -122 -28 -123 vhcurveto
          39 -24 -37 27 -44 hhcurveto
          -152 -94 -278 -101 -58 66 -79 56 34 57 36 45 54 hvcurveto
          374 700 rmoveto
          -28 -48 -39 -25 -30 23 -16 40 hvcurveto
          48 callsubr
          vhcurveto
          endchar
        </CharString>
        <CharString name="dcroat">
          -51 177 151 callgsubr
          396 537 rmoveto
          1 3 0 2 2 vvcurveto
          54 -74 299 callsubr
          1 -27 -4 -37 -7 -44 rrcurveto
          -49 -5 -31 -11 -19 vvcurveto
          -23 28 -41 28 -1 vhcurveto
          5 hlineto
          -7 -35 -8 -36 -8 -36 185 callsubr
          14 58 26 104 18 75 rrcurveto
          109 17 46 338 callsubr
        </CharString>
        <CharString name="degree">
          -138 307 726 rmoveto
          -116 -102 -115 -106 -72 49 -53 78 115 103 115 105 72 -50 54 -77 hvcurveto
          -29 -106 rmoveto
          22 12 -21 -27 -38 -32 -54 -38 -20 -14 20 27 39 32 54 38 hvcurveto
          endchar
        </CharString>
        <CharString name="dieresis">
          12 690 rmoveto
          -23 callsubr
          228 callsubr
          vhcurveto
          178 hmoveto
          -23 callsubr
          228 callsubr
          vhcurveto
          endchar
        </CharString>
        <CharString name="divide">
          41 95 267 rmoveto
          138 428 18 91 23 -49 6 -68 -48 -173 -8 -7 -108 hvcurveto
          -4 -72 -68 -5 285 callsubr
          hvcurveto
          93 -121 rmoveto
          -40 68 -68 42 24 31 31 20 33 -54 108 -35 -35 -41 -50 -34 vhcurveto
          110 401 rmoveto
          -39 67 -69 43 24 30 31 20 33 -53 109 -36 -35 -40 -50 -35 vhcurveto
          endchar
        </CharString>
        <CharString name="dollar">
          33 289 132 rmoveto
          9 38 11 43 13 49 rrcurveto
          44 -30 32 -26 -23 vvcurveto
          -30 -51 -15 -58 -6 vhcurveto
          -71 374 rmoveto
          13 42 25 49 21 vhcurveto
          -9 -39 -9 -38 -8 -38 rrcurveto
          -38 25 -27 19 12 vvcurveto
          -17 -378 rmoveto
          -77 -17 84 -49 hhcurveto
          -17 -10 -23 -42 -61 54 -80 95 -18 hvcurveto
          -2 -15 -2 -11 -8 vvcurveto
          -1 -18 16 -23 18 -1 rrcurveto
          15 11 23 51 16 hvcurveto
          123 10 161 63 -2 115 -1 93 -90 77 -84 57 16 59 18 65 20 71 rrcurveto
          1 7 6 1 6 39 1 -10 19 hhcurveto
          11 10 9 17 45 -22 62 -35 22 hvcurveto
          5 19 1 15 11 vvcurveto
          1 23 -5 31 -27 2 rrcurveto
          -23 -23 -42 -62 -23 hvcurveto
          -84 -23 -115 -53 -43 -51 rrcurveto
          -18 -23 -14 -55 -43 vvcurveto
          -68 85 -62 81 -54 vhcurveto
          -15 -65 -15 -62 -12 -53 rrcurveto
          endchar
        </CharString>
        <CharString name="dotaccent">
          -42 734 156 callsubr
        </CharString>
        <CharString name="dotlessi">
          183 callsubr
          endchar
        </CharString>
        <CharString name="dvA.aInitial">
          354 741 662 rmoveto
          -88 callgsubr
          95 -105 callsubr
        </CharString>
        <CharString name="dvAA.aInitial">
          642 741 662 rmoveto
          -88 callgsubr
          141 hlineto
          -12 -84 -12 -75 -12 -82 rrcurveto
          -15 -105 -29 -97 -23 45 callsubr
        </CharString>
        <CharString name="dvAU.aInitial">
          642 1192 -2 callgsubr
          -336 hlineto
          -88 callgsubr
          132 hlineto
          -12 -84 -12 -75 -12 -82 rrcurveto
          -15 -105 -29 -97 -23 45 callsubr
        </CharString>
        <CharString name="dvAcandra.aInitial">
          354 741 662 rmoveto
          -88 callgsubr
          95 -107 callgsubr
          61 277 rmoveto
          3 callgsubr
          162 callgsubr
          vhcurveto
          endchar
        </CharString>
        <CharString name="dvB_DA_MatraU">
          29 callsubr
          7 8 0 1 7 hvcurveto
          -91 callgsubr
        </CharString>
        <CharString name="dvB_DA_MatraUU">
          409 33 callsubr
          358 -503 22 callsubr
          -473 941 166 callgsubr
          -89 -112 -121 -104 -45 hvcurveto
          -5 hlineto
          -21 -26 -16 -18 -32 hvcurveto
          -78 callgsubr
          93 99 42 45 57 hvcurveto
          -83 12 76 -44 111 hhcurveto
          -90 callsubr
        </CharString>
        <CharString name="dvDA_MatraU">
          0 310 callgsubr
          343 -10 callsubr
          -97 80 -52 120 7 8 0 1 7 hvcurveto
          -91 callgsubr
        </CharString>
        <CharString name="dvDA_MatraUU">
          4 136 -279 22 callsubr
          -88 193 callgsubr
          344 232 callsubr
          -90 callsubr
        </CharString>
        <CharString name="dvDDH_DDHA">
          45 361 186 rmoveto
          41 19 23 49 30 19 -10 -13 -22 -49 -15 -68 -7 vhcurveto
          -53 -386 rmoveto
          27 23 -14 -23 -19 -30 -14 -43 -7 hvcurveto
          -10 14 -6 15 15 vvcurveto
          19 17 14 22 vhcurveto
          -214 865 -106 callgsubr
          355 hlineto
          -5 -16 -3 -18 -1 -19 rrcurveto
          5 -13 -13 2 -13 hhcurveto
          -141 -209 -171 -98 -53 27 -49 35 -20 hvcurveto
          -25 44 46 -10 81 hhcurveto
          5 hlineto
          3 -15 4 -16 5 -14 rrcurveto
          1 -8 -8 0 -9 hhcurveto
          -155 -162 -124 -105 -130 105 -61 139 113 139 40 93 74 -69 57 -85 -81 -49 -39 -56 -27 5 -24 14 -22 hvcurveto
          -68 4 -50 28 44 vvcurveto
          76 124 74 94 vhcurveto
          51 9 -9 33 hhcurveto
          0 1 vlineto
          4 3 1 2 3 hvcurveto
          12 6 9 16 18 vvcurveto
          1 vlineto
          2 vlineto
          25 -21 40 -16 48 vhcurveto
          108 17 83 48 66 vvcurveto
          67 -59 46 -84 -96 -55 -53 -87 vhcurveto
          -14 vlineto
          -77 1 -27 16 29 vvcurveto
          56 168 122 64 vhcurveto
          56 1 -44 35 hhcurveto
          9 8 2 4 7 hvcurveto
          15 7 3 16 30 207 callgsubr
          222 -105 callsubr
        </CharString>
        <CharString name="dvDD_GA">
          0 99 -150 -13 callgsubr
        </CharString>
        <CharString name="dvG_DA_MatraU">
          397 225 206 -86 callgsubr
          379 -10 callsubr
          -97 80 -52 120 7 8 0 1 7 hvcurveto
          -91 callgsubr
        </CharString>
        <CharString name="dvG_DA_MatraUU">
          400 532 -279 22 callsubr
          -307 485 -86 callgsubr
          379 232 callsubr
          -90 callsubr
        </CharString>
        <CharString name="dvJ_DA_MatraU">
          476 138 662 166 callgsubr
          -32 -35 -16 -24 -33 hvcurveto
          -27 -41 -87 -75 -150 -89 callgsubr
          3 vhcurveto
          27 4 29 7 29 9 rrcurveto
          -14 -31 -8 -29 -25 vvcurveto
          136 callsubr
          7 8 0 1 7 vhcurveto
          -91 callgsubr
        </CharString>
        <CharString name="dvJ_DA_MatraUU">
          479 611 -279 22 callsubr
          -473 941 166 callgsubr
          -32 -35 -16 -24 -33 hvcurveto
          -27 -41 -87 -75 -150 -89 callgsubr
          3 vhcurveto
          27 4 29 7 29 9 rrcurveto
          -14 -31 -8 -29 -25 vvcurveto
          136 callsubr
          vhcurveto
          -90 callsubr
        </CharString>
        <CharString name="dvK_DA_MatraU">
          522 913 554 rmoveto
          -56 callsubr
          -28 -31 -13 -20 -31 hvcurveto
          -49 -15 -100 -55 -106 -56 146 callgsubr
          -174 -298 rmoveto
          -38 -80 -71 -29 -42 -44 callgsubr
          31 66 22 33 79 29 callgsubr
          42 28 94 100 24 vhcurveto
          44 22 45 23 41 23 rrcurveto
          -14 -31 -8 -29 -25 vvcurveto
          136 callsubr
          7 8 0 1 7 vhcurveto
          -91 callgsubr
        </CharString>
        <CharString name="dvK_DA_MatraUU">
          527 915 554 rmoveto
          -56 callsubr
          -28 -30 -12 -20 -30 hvcurveto
          -48 -13 -102 -57 -109 -57 146 callgsubr
          -174 39 callsubr
          294 -535 22 callsubr
          -581 941 rmoveto
          -48 -21 -21 -31 -31 21 -25 48 hvcurveto
          332 -50 callsubr
          45 22 46 24 42 24 rrcurveto
          -15 -32 -8 -30 -25 vvcurveto
          136 callsubr
          vhcurveto
          -90 callsubr
        </CharString>
        <CharString name="dvL_DA_MatraU">
          461 113 callgsubr
          760 -34 callgsubr
          -47 -53 -34 -47 -47 38 callsubr
          30 45 34 37 78 vhcurveto
          -13 -30 -8 -28 -24 vvcurveto
          136 callsubr
          7 8 0 1 7 vhcurveto
          -91 callgsubr
        </CharString>
        <CharString name="dvL_DA_MatraUU">
          464 596 -279 22 callsubr
          -504 193 callgsubr
          760 -34 callgsubr
          -47 -53 -34 -47 -47 38 callsubr
          30 45 34 37 78 vhcurveto
          -13 -30 -8 -28 -24 vvcurveto
          136 callsubr
          vhcurveto
          -90 callsubr
        </CharString>
        <CharString name="dvM_DA_MatraU">
          420 811 554 rmoveto
          -56 callsubr
          -61 -72 -58 -69 -54 hvcurveto
          8 -41 -53 3 -54 -65 callgsubr
          31 26 -1 -1 25 hvcurveto
          -16 -33 -9 -32 -26 vvcurveto
          136 callsubr
          7 8 0 1 7 vhcurveto
          -91 callgsubr
        </CharString>
        <CharString name="dvM_DA_MatraUU">
          423 811 554 rmoveto
          -56 callsubr
          -61 -72 -58 -69 -54 hvcurveto
          8 -41 -53 3 -54 70 callgsubr
          354 -440 22 callsubr
          -453 193 callgsubr
          148 -61 callsubr
          hhcurveto
          31 26 -1 -1 25 hvcurveto
          -16 -33 -9 -32 -26 vvcurveto
          136 callsubr
          vhcurveto
          -90 callsubr
        </CharString>
        <CharString name="dvNG_GA">
          84 600 368 rmoveto
          59 callsubr
          289 callgsubr
          hvcurveto
          -501 -518 -13 callgsubr
        </CharString>
        <CharString name="dvNG_MA">
          30 593 383 rmoveto
          59 callsubr
          289 callgsubr
          hvcurveto
          -336 -379 rmoveto
          3 27 1 27 1 26 rrcurveto
          -3 16 16 -1 17 hhcurveto
          30 27 4 7 24 hvcurveto
          -6 -21 -6 -24 -5 -23 -30 -4 -38 -6 -45 -8 rrcurveto
          -143 -179 rmoveto
          -16 -11 27 13 11 21 7 35 7 hvcurveto
          -38 -8 -11 -27 -10 hhcurveto
          -71 836 -106 callgsubr
          367 -39 callsubr
          -56 32 -44 49 -28 hvcurveto
          -4 -20 -3 -24 -26 vvcurveto
          -18 -1 -19 -1 -19 vhcurveto
          -113 -21 -60 -23 -64 vvcurveto
          -68 70 -91 61 64 39 84 102 20 vhcurveto
          35 6 39 6 40 8 rrcurveto
          -9 -55 -4 -47 -18 236 callsubr
          11 106 52 218 45 vvcurveto
          1 vlineto
          11 18 6 19 19 11 callgsubr
          177 -105 callsubr
        </CharString>
        <CharString name="dvNY_CA">
          642 98 -74 callsubr
          959 14 callgsubr
          -21 -18 -16 -19 -12 -21 -35 -7 -44 -12 -36 -9 -38 -9 -41 -6 -35 -6 rrcurveto
          6 21 3 21 20 vvcurveto
          -4 callsubr
          97 75 54 67 46 vhcurveto
          9 hlineto
          43 108 16 25 85 hvcurveto
          -62 4 46 -45 78 hhcurveto
          87 72 35 55 58 hvcurveto
          -12 -54 -11 -42 -14 vvcurveto
          -44 55 -47 20 35 24 -105 callgsubr
        </CharString>
        <CharString name="dvN_DA_MatraU">
          428 116 callgsubr
          -128 497 -106 callgsubr
          692 hlineto
          123 callgsubr
          20 -59 -98 8 -74 hhcurveto
          -74 callgsubr
          47 56 1 40 hhcurveto
          -27 -46 -17 -46 -35 vvcurveto
          136 callsubr
          7 8 0 1 7 vhcurveto
          -91 callgsubr
        </CharString>
        <CharString name="dvN_DA_MatraUU">
          431 563 -279 22 callsubr
          -308 444 -76 callsubr
          -128 497 -106 callgsubr
          692 hlineto
          123 callgsubr
          20 -59 -98 8 -74 hhcurveto
          -74 callgsubr
          47 56 1 40 hhcurveto
          -27 -46 -17 -46 -35 vvcurveto
          136 callsubr
          vhcurveto
          -90 callsubr
        </CharString>
        <CharString name="dvO.aInitial">
          642 1205 173 callsubr
          -332 hlineto
          -88 callgsubr
          138 hlineto
          -12 -84 -12 -75 -12 -82 rrcurveto
          -15 -105 -29 -97 -23 45 callsubr
        </CharString>
        <CharString name="dvOcandra.aInitial">
          642 1188 721 rmoveto
          125 97 70 87 23 -49 38 -24 hvcurveto
          3 callgsubr
          vhcurveto
          -447 -59 rmoveto
          -88 callgsubr
          141 hlineto
          -12 -84 -12 -75 -12 -82 rrcurveto
          -15 -105 -29 -97 -23 45 callsubr
        </CharString>
        <CharString name="dvOshort.aInitial">
          642 1189 -20 callgsubr
          -354 hlineto
          -88 callgsubr
          120 hlineto
          -12 -84 -12 -75 -12 -82 rrcurveto
          -15 -105 -29 -97 -23 45 callsubr
        </CharString>
        <CharString name="dvSHA_MatraVocalicR">
          274 244 callgsubr
          322 318 callgsubr
          12 hlineto
          -22 -148 -65 1 -56 6 -45 11 rlinecurve
          177 callgsubr
          63 -25 81 -15 98 -3 -13 -90 -16 -96 -4 -37 rrcurveto
          -100 -19 -119 -92 -87 vvcurveto
          -82 68 -29 109 69 82 18 36 18 -18 33 -29 vhcurveto
          -21 -16 -19 -74 hhcurveto
          -43 -35 9 18 39 100 74 78 hvcurveto
          4 hlineto
          2 hlineto
          55 12 155 -49 callgsubr
          122 -105 callsubr
        </CharString>
        <CharString name="dvSH_VA.aSimp">
          561 290 510 -77 callsubr
          632 -110 -68 callgsubr
          -103 445 106 callgsubr
          -146 -79 -175 -132 -90 26 -73 169 callgsubr
          hvcurveto
          -92 callgsubr
        </CharString>
        <CharString name="dvS_DA_MatraU">
          491 882 554 rmoveto
          123 callgsubr
          -43 -10 -56 -15 -61 -12 114 callgsubr
          -459 108 90 callsubr
          62 2 73 9 66 14 rrcurveto
          -13 -30 -8 -28 -24 vvcurveto
          136 callsubr
          7 8 0 1 7 vhcurveto
          -91 callgsubr
        </CharString>
        <CharString name="dvS_DA_MatraUU">
          494 882 554 rmoveto
          123 callgsubr
          -43 -10 -56 -15 -61 -12 114 callgsubr
          114 -833 22 callsubr
          -573 941 90 callsubr
          62 2 73 9 66 14 rrcurveto
          -13 -30 -8 -28 -24 vvcurveto
          136 callsubr
          vhcurveto
          -90 callsubr
        </CharString>
        <CharString name="dvTTH_TTHA">
          64 289 219 199 callgsubr
          -98 -422 199 callgsubr
          -113 865 -106 callgsubr
          337 233 callgsubr
          vhcurveto
          13 12 1 13 hhcurveto
          -2 -8 -1 -9 -2 -9 -2 -10 -3 -8 -2 -6 rrcurveto
          -138 -8 -160 -143 -96 vvcurveto
          337 callsubr
          51 -36 72 -57 36 vhcurveto
          3 10 rlineto
          7 20 10 34 29 vvcurveto
          101 32 70 66 72 289 callsubr
          213 -105 callsubr
        </CharString>
        <CharString name="dvTT_GA">
          59 113 -169 rmoveto
          -18 -27 26 19 19 30 6 30 12 14 -1 -2 16 hvcurveto
          -41 -14 -20 -26 -23 hhcurveto
          -28 831 -106 callgsubr
          391 24 callsubr
          -111 -174 -186 -117 -55 32 -39 48 -24 hvcurveto
          -1 -11 -1 -13 -12 vvcurveto
          -23 -2 -23 -2 -22 vhcurveto
          3 -20 -19 2 -24 hhcurveto
          -86 -65 -35 -59 -72 69 -80 72 112 70 149 151 hvcurveto
          19 vlineto
          -1 11 12 -1 12 hhcurveto
          24 24 2 4 21 hvcurveto
          -35 -87 -27 -121 -62 124 callsubr
          170 -105 callsubr
        </CharString>
        <CharString name="dvT_KH_NA">
          658 1086 494 237 callsubr
          -63 42 -51 63 -15 hvcurveto
          282 callgsubr
          -41 -30 17 24 -26 hvcurveto
          111 47 68 107 86 52 callsubr
          -198 -427 78 callsubr
          -716 753 229 callgsubr
          -60 -60 -50 -84 -26 hvcurveto
          -11 11 -17 9 -20 9 -9 4 -11 4 -11 2 rrcurveto
          19 -62 -78 9 -50 33 callgsubr
          31 28 -2 -3 24 vhcurveto
          13 -46 53 -23 59 -5 rrcurveto
          -76 59 83 -55 97 hhcurveto
          89 109 39 59 89 hvcurveto
          -10 -47 -9 -37 -2 -16 rrcurveto
          -13 hlineto
          51 callsubr
          22 17 -2 -5 15 hvcurveto
          -3 6 5 211 callgsubr
          143 -105 callsubr
        </CharString>
        <CharString name="dvT_S_NA">
          741 1128 439 rmoveto
          -74 -32 -99 -31 -99 -18 rrcurveto
          21 36 12 41 42 -28 callgsubr
          270 hlineto
          -258 -498 -26 callsubr
          -832 606 -106 callgsubr
          473 -92 callsubr
          -54 -19 21 14 -20 hvcurveto
          36 -43 -81 24 -67 hhcurveto
          -163 -82 -60 -106 -107 119 -121 327 callgsubr
          59 -129 40 80 vvcurveto
          38 35 28 87 52 41 -13 -10 32 vhcurveto
          8 -33 25 -43 38 -58 rrcurveto
          50 callsubr
        </CharString>
        <CharString name="e">
          -71 302 405 -63 callgsubr
        </CharString>
        <CharString name="eacute">
          -105 210 309 rmoveto
          -8 -9 0 1 -9 hvcurveto
          52 32 42 43 34 hhcurveto
          18 37 -35 -13 -39 -71 -9 -66 hvcurveto
          76 219 rmoveto
          -120 -151 -192 -142 -95 64 -87 132 101 103 57 52 16 -10 11 -31 hvcurveto
          -28 -30 -28 -126 hhcurveto
          -51 -3 17 36 15 3 18 6 221 callsubr
          44 hhcurveto
          114 callsubr
          hvcurveto
          136 250 rmoveto
          163 callsubr
          hvcurveto
          -64 callsubr
          vhcurveto
          endchar
        </CharString>
        <CharString name="ecaron">
          -105 268 546 -18 callsubr
          24 -141 -63 callgsubr
        </CharString>
        <CharString name="ecircumflex">
          -105 163 570 36 callsubr
          129 -165 -63 callgsubr
        </CharString>
        <CharString name="edieresis">
          -105 397 563 rmoveto
          228 callsubr
          -23 callsubr
          hvcurveto
          -178 hmoveto
          228 callsubr
          -23 callsubr
          hvcurveto
          73 -158 -63 callgsubr
        </CharString>
        <CharString name="edotaccent">
          -105 302 549 rmoveto
          20 25 25 17 26 -45 91 -29 -29 -33 -41 -29 -32 54 -57 37 hvcurveto
          -10 -144 -63 callgsubr
        </CharString>
        <CharString name="egrave">
          -105 231 610 rmoveto
          -23 callgsubr
          -28 40 -20 63 -39 hvcurveto
          61 -205 -63 callgsubr
        </CharString>
        <CharString name="eight">
          31 366 221 rmoveto
          -51 -85 -36 -42 -5 -25 17 10 22 54 43 67 53 vhcurveto
          22 -21 14 -20 -17 vvcurveto
          227 376 rmoveto
          103 -71 45 -99 -148 -96 -63 -63 -28 47 -30 25 vhcurveto
          43 47 60 81 hhcurveto
          25 9 -14 -14 -39 -59 -51 -72 -57 hvcurveto
          -49 39 -51 38 -38 39 rrcurveto
          27 -27 -23 38 -24 hhcurveto
          -23 -12 -60 -34 -52 74 -59 74 -57 hvcurveto
          -83 -70 -73 -76 -77 vvcurveto
          -61 104 -66 52 117 163 85 97 60 -33 53 -47 48 vhcurveto
          87 76 80 85 78 vvcurveto
          endchar
        </CharString>
        <CharString name="ellipsis">
          236 191 callsubr
          298 hmoveto
          -39 67 -69 43 24 30 31 20 33 -53 108 -36 -35 -40 -49 -35 vhcurveto
          300 hmoveto
          268 callgsubr
        </CharString>
        <CharString name="emacron">
          -105 156 572 rmoveto
          202 callsubr
          -1 callgsubr
          136 -167 -63 callgsubr
        </CharString>
        <CharString name="emdash">
          409 780 383 rmoveto
          -87 -649 -5 -78 -32 26 -47 31 28 149 19 19 181 hvcurveto
          196 21 287 7 57 vvcurveto
          20 -38 19 -124 vhcurveto
          endchar
        </CharString>
        <CharString name="endash">
          65 606 360 rmoveto
          20 -23 13 -52 -138 -349 -53 -38 -33 37 -48 31 23 56 20 15 77 vhcurveto
          214 42 124 17 45 vvcurveto
          endchar
        </CharString>
        <CharString name="eogonek">
          -105 292 405 rmoveto
          18 37 -35 -13 -39 -71 -9 -66 -8 -9 0 1 -9 hvcurveto
          52 32 42 43 34 hhcurveto
          121 -420 338 callgsubr
          hvcurveto
          24 87 42 45 vvcurveto
          24 -29 21 -23 -2 -3 0 -1 -3 vhcurveto
          -1 -27 -32 -27 -123 hhcurveto
          -51 -3 17 36 15 3 18 6 221 callsubr
          44 hhcurveto
          114 callsubr
          -120 -151 -192 -142 -95 64 -87 132 10 9 1 1 10 hvcurveto
          -13 -25 -9 -24 -19 219 callsubr
        </CharString>
        <CharString name="equal">
          113 621 444 rmoveto
          39 -90 5 -115 -142 -170 -4 -37 -25 32 -60 26 55 94 7 8 83 vhcurveto
          85 8 142 19 40 vvcurveto
          -32 -161 rmoveto
          24 -42 6 -65 -58 -362 -33 -25 -25 32 -60 26 70 86 7 8 64 vhcurveto
          146 20 103 36 42 vvcurveto
          endchar
        </CharString>
        <CharString name="eth">
          234 callgsubr
          299 522 rmoveto
          11 -12 11 -15 -10 -31 -10 -14 -39 vhcurveto
          60 -48 -60 35 -45 hhcurveto
          267 callgsubr
          4 -4 4 -4 3 -4 rrcurveto
          -53 -17 -54 -15 -30 vvcurveto
          -17 16 -7 17 19 43 10 16 49 vhcurveto
          12 -31 6 -32 2 -34 242 callsubr
          63 -17 57 -25 47 hvcurveto
          41 20 30 20 16 vvcurveto
          endchar
        </CharString>
        <CharString name="exclam">
          -81 374 715 rmoveto
          25 -91 83 -42 -16 -16 -8 -21 -300 -49 -138 7 -34 vhcurveto
          -39 1 42 -47 37 hhcurveto
          52 75 419 60 hvcurveto
          -115 -669 rmoveto
          32 -51 103 -32 -33 -37 -46 -32 -37 64 -65 40 22 27 28 17 vhcurveto
          endchar
        </CharString>
        <CharString name="exclamdown">
          -134 90 33 rmoveto
          -25 91 -83 42 16 16 8 21 300 49 138 -7 34 vhcurveto
          39 -1 -42 47 -37 hhcurveto
          -52 -75 -419 -60 hvcurveto
          115 669 rmoveto
          -32 51 -103 32 33 37 46 32 37 -64 65 -40 -22 -27 -28 -17 vhcurveto
          endchar
        </CharString>
        <CharString name="f">
          -124 378 669 rmoveto
          38 -12 -121 58 hhcurveto
          30 18 33 55 87 -65 68 -60 -134 -59 -117 -248 -38 hvcurveto
          -32 -6 -29 -7 -22 -7 rrcurveto
          -38 -12 -23 -15 -15 vvcurveto
          -43 38 -31 38 13 15 3 5 19 vhcurveto
          -26 -132 -28 -41 -28 vvcurveto
          -27 44 -57 26 44 28 137 177 42 vhcurveto
          107 16 111 18 47 vvcurveto
          20 -23 19 -52 -39 -39 -2 -2 -38 vhcurveto
          103 23 27 123 38 hhcurveto
          endchar
        </CharString>
        <CharString name="fi">
          -41 358 669 rmoveto
          38 50 -117 58 hhcurveto
          30 18 35 55 87 -127 62 -60 -131 -53 -98 -245 -43 hvcurveto
          -46 -7 -40 -8 -27 -11 rrcurveto
          -23 -9 -12 -13 -11 vvcurveto
          -37 34 -39 39 8 20 2 4 25 vhcurveto
          -31 -163 -25 -25 -37 vvcurveto
          -27 47 -54 22 45 29 144 185 43 vhcurveto
          49 8 47 8 29 2 rrcurveto
          -10 -65 -51 -162 -53 vvcurveto
          -40 23 -27 28 31 12 7 32 10 vhcurveto
          63 209 51 97 54 vvcurveto
          34 -22 21 -53 -32 -70 -1 -5 -77 vhcurveto
          99 22 26 109 36 hhcurveto
          endchar
        </CharString>
        <CharString name="five">
          -53 576 695 rmoveto
          30 -78 14 -105 -89 -21 -1 -6 -34 vhcurveto
          -56 -10 -80 -153 -70 -147 189 -29 -75 vvcurveto
          -52 -93 -62 -63 vhcurveto
          -68 -32 74 -35 hhcurveto
          -14 -10 -22 -25 -78 94 -74 106 120 152 117 125 hvcurveto
          111 -190 67 71 vvcurveto
          26 26 69 28 7 vhcurveto
          111 26 142 23 44 vvcurveto
          endchar
        </CharString>
        <CharString name="fl">
          -44 83 356 rmoveto
          -15 -87 -20 -86 -18 -67 rrcurveto
          -2 -7 -1 -6 -7 vvcurveto
          -45 42 -38 24 59 45 186 162 24 vhcurveto
          63 6 55 17 49 38 rrcurveto
          -37 -197 -53 -66 -64 vvcurveto
          -46 32 -37 31 103 89 602 77 70 -49 30 -46 -35 -13 -128 -47 -74 -81 -38 -93 -16 vhcurveto
          2 28 1 25 18 vvcurveto
          73 15 37 19 vhcurveto
          22 10 -21 20 hhcurveto
          30 11 24 23 42 -36 54 -77 -73 -63 -45 -109 -2 hvcurveto
          -1 -48 -5 -54 -7 -56 rrcurveto
          -44 -2 -59 -10 -34 vvcurveto
          -26 31 -51 43 vhcurveto
          endchar
        </CharString>
        <CharString name="florin">
          -34 211 394 rmoveto
          -94 -15 -70 -22 -26 vvcurveto
          -42 37 -54 38 15 19 7 8 25 vhcurveto
          -199 -43 -34 -120 -42 -66 -11 330 callgsubr
          142 55 143 323 69 hvcurveto
          118 19 87 33 40 vvcurveto
          21 -24 19 -52 -33 -35 -1 -2 -35 vhcurveto
          116 24 34 142 42 37 -12 -122 58 hhcurveto
          31 17 33 55 87 -65 68 -60 -151 -60 -110 -234 -48 hvcurveto
          endchar
        </CharString>
        <CharString name="four">
          -14 418 579 rmoveto
          -16 -15 -9 -21 -47 -5 -46 -8 -44 hvcurveto
          -13 -45 -64 -42 -58 hhcurveto
          -18 -4 2 14 hvcurveto
          46 187 224 39 vvcurveto
          32 -48 42 -31 -56 -190 -286 -98 -86 57 -54 82 50 53 9 16 46 vhcurveto
          -25 -84 -26 -67 -41 vvcurveto
          -35 42 -48 24 53 125 439 60 33 -78 65 -32 vhcurveto
          endchar
        </CharString>
        <CharString name="fraction">
          154 callgsubr
        </CharString>
        <CharString name="g">
          -78 143 218 callsubr
          292 127 rmoveto
          12 -6 12 -9 10 vhcurveto
          137 callgsubr
          endchar
        </CharString>
        <CharString name="gbreve">
          -88 132 218 callsubr
          277 161 rmoveto
          137 callgsubr
          12 -6 12 -9 10 vhcurveto
          98 411 93 callsubr
        </CharString>
        <CharString name="germandbls">
          40 456 359 rmoveto
          33 98 43 86 vvcurveto
          74 -84 129 -119 -147 -53 -105 -111 -20 vhcurveto
          -31 -171 -72 -203 -51 vvcurveto
          -29 40 -44 28 67 67 324 124 25 vhcurveto
          78 15 20 59 52 hhcurveto
          31 54 -33 -53 hvcurveto
          -60 -125 -42 -37 -60 117 -10 -97 vvcurveto
          -63 -75 -15 -40 vhcurveto
          -20 -9 2 -13 hhcurveto
          -22 -12 -10 -24 -42 38 -39 73 118 91 91 91 hvcurveto
          117 -92 26 22 vvcurveto
          endchar
        </CharString>
        <CharString name="grave">
          -125 793 rmoveto
          -28 40 -20 63 -39 vhcurveto
          -23 callgsubr
          hvcurveto
          endchar
        </CharString>
        <CharString name="greater">
          57 152 607 rmoveto
          -18 -5 -10 -16 -25 58 -70 30 -10 hvcurveto
          65 -21 140 -88 -20 -39 -329 -151 -75 vvcurveto
          -23 17 -12 29 48 46 19 105 165 vhcurveto
          114 72 56 45 53 vvcurveto
          16 -14 25 -28 28 vhcurveto
          81 -81 -161 116 -132 hhcurveto
          endchar
        </CharString>
        <CharString name="greaterequal">
          56 151 574 rmoveto
          -18 -5 -9 -17 -25 32 -59 16 90 179 -38 -20 hvcurveto
          -28 -366 -45 -64 vvcurveto
          -23 17 -13 29 38 80 15 19 77 vhcurveto
          93 24 93 32 41 28 rrcurveto
          22 15 14 54 14 vvcurveto
          56 -237 84 -195 vhcurveto
          -97 -478 rmoveto
          -19 46 -12 37 150 240 54 34 35 -40 40 -29 -35 -45 -25 -26 -109 vhcurveto
          -112 -27 -103 -25 -29 vvcurveto
          endchar
        </CharString>
        <CharString name="guillemotleft">
          -133 245 165 callgsubr
          315 -26 rmoveto
          -57 -110 -46 -31 -48 hvcurveto
          -21 -14 -23 -34 -16 vvcurveto
          -71 150 -89 83 24 12 8 19 2 vhcurveto
          46 -160 36 41 vvcurveto
          21 42 29 147 16 vhcurveto
          18 2 13 7 15 vvcurveto
          22 -49 39 -23 vhcurveto
          endchar
        </CharString>
        <CharString name="guillemotright">
          274 201 475 rmoveto
          -27 -47 -38 -21 -17 10 -5 19 -3 hvcurveto
          122 -16 34 -24 -13 -42 -220 -46 -45 vvcurveto
          -17 15 -12 24 83 210 96 71 56 -170 76 -53 vhcurveto
          274 26 329 callsubr
          117 303 callsubr
          49 96 32 61 86 vhcurveto
          22 16 15 42 22 vvcurveto
          51 -175 106 -37 vhcurveto
          endchar
        </CharString>
        <CharString name="guilsinglleft">
          50 353 165 callgsubr
          endchar
        </CharString>
        <CharString name="guilsinglright">
          45 243 501 329 callsubr
          116 303 callsubr
          50 96 32 61 85 vhcurveto
          22 16 15 42 22 vvcurveto
          51 -174 106 -37 vhcurveto
          endchar
        </CharString>
        <CharString name="h">
          4 183 808 rmoveto
          -22 -11 -17 -25 -25 -40 -187 -29 -138 hvcurveto
          -32 -158 -32 -106 -44 vvcurveto
          -28 57 -68 30 36 35 57 73 42 vhcurveto
          90 52 67 103 51 hhcurveto
          8 0 -9 -13 -18 -4 -17 -3 -17 hvcurveto
          -10 -59 -32 -84 -59 vvcurveto
          -35 12 -12 21 59 59 133 117 23 vhcurveto
          8 43 5 43 34 vvcurveto
          47 -69 99 -42 -65 -107 -121 -177 -87 vhcurveto
          47 162 70 207 84 vvcurveto
          47 -61 78 -36 vhcurveto
          endchar
        </CharString>
        <CharString name="hungarumlaut">
          -2 887 -9 callgsubr
          endchar
        </CharString>
        <CharString name="hyphen">
          -28 210 callgsubr
        </CharString>
        <CharString name="i">
          -299 138 528 rmoveto
          -36 -13 -146 -96 -23 hvcurveto
          -26 -108 -19 -72 -37 vvcurveto
          -30 25 -26 30 20 19 7 32 10 vhcurveto
          40 122 63 209 28 vvcurveto
          44 -40 73 -50 vhcurveto
          139 66 rmoveto
          40 -53 100 -31 -32 -38 -48 -32 -36 66 -67 39 22 27 20 23 vhcurveto
          endchar
        </CharString>
        <CharString name="iacute">
          -299 227 687 rmoveto
          -64 callsubr
          163 callsubr
          vhcurveto
          23 -276 10 callgsubr
          endchar
        </CharString>
        <CharString name="icircumflex">
          -299 304 684 -30 callgsubr
          -54 -273 10 callgsubr
          endchar
        </CharString>
        <CharString name="idieresis">
          -299 195 605 rmoveto
          -23 callsubr
          228 callsubr
          vhcurveto
          178 hmoveto
          -23 callsubr
          228 callsubr
          vhcurveto
          -123 -194 10 callgsubr
          endchar
        </CharString>
        <CharString name="igrave">
          183 callsubr
          -192 286 rmoveto
          -28 40 -20 63 -39 vhcurveto
          -23 callgsubr
          hvcurveto
          endchar
        </CharString>
        <CharString name="imacron">
          183 callsubr
          -23 184 rmoveto
          -1 callgsubr
          202 callsubr
          endchar
        </CharString>
        <CharString name="infinity">
          258 555 187 rmoveto
          -29 -28 22 30 -21 hvcurveto
          67 77 67 61 26 hhcurveto
          2 1 -1 -2 -58 -37 -119 -58 hvcurveto
          -366 5 rmoveto
          -5 -5 0 8 39 65 116 33 26 22 -33 -29 22 hvcurveto
          -56 -65 -57 -45 -36 hhcurveto
          460 314 rmoveto
          -57 -88 -74 -76 -86 hvcurveto
          63 -26 -54 76 -74 hhcurveto
          -131 -91 -217 -85 -63 90 -65 71 51 73 51 59 74 hvcurveto
          -61 37 53 -47 76 hhcurveto
          134 84 202 100 53 -68 84 -68 hvcurveto
          endchar
        </CharString>
        <CharString name="integral">
          -8 584 670 rmoveto
          65 -79 57 -56 -129 -33 -144 -337 -85 vhcurveto
          -203 -51 -13 -177 -61 -44 -12 330 callgsubr
          128 52 175 322 69 hvcurveto
          215 46 32 149 49 51 1 -37 18 hhcurveto
          11 8 6 23 hvcurveto
          endchar
        </CharString>
        <CharString name="iogonek">
          -299 119 -69 338 callgsubr
          19 55 31 23 34 hvcurveto
          7 6 7 9 4 14 rrcurveto
          40 122 63 209 28 vvcurveto
          44 -40 73 -50 -36 -16 -146 -96 -20 vhcurveto
          -19 -92 -22 -71 -3 -47 rrcurveto
          -53 -40 -67 -91 -53 219 callsubr
        </CharString>
        <CharString name="itfLogo">
          1089 147 hmoveto
          206 callgsubr
          236 -634 rmoveto
          206 callgsubr
          236 -634 rmoveto
          206 callgsubr
          -410 vmoveto
          196 185 -196 hlineto
          endchar
        </CharString>
        <CharString name="itfStar">
          113 663 452 rmoveto
          -28 -200 -6 -2 -34 hvcurveto
          -66 246 -8 -27 -53 -188 -8 -31 rlinecurve
          -261 8 25 -15 168 -108 28 -17 rlinecurve
          -96 -247 24 20 152 128 29 20 rlinecurve
          204 -168 -11 28 -71 189 -12 30 rlinecurve
          endchar
        </CharString>
        <CharString name="j">
          -299 305 594 rmoveto
          40 -52 100 -32 -32 -38 -48 -32 -36 66 -67 40 20 28 20 23 vhcurveto
          -197 -139 rmoveto
          -165 -54 -74 -439 -71 hhcurveto
          -21 -13 10 27 -22 hvcurveto
          24 -20 -21 31 -21 hhcurveto
          -23 -28 -50 -30 -41 81 -78 73 92 83 51 134 39 hvcurveto
          44 151 90 298 29 vvcurveto
          59 -50 62 -39 -16 -11 -13 -60 -18 vhcurveto
          endchar
        </CharString>
        <CharString name="k">
          -66 262 118 111 callsubr
        </CharString>
        <CharString name="l">
          -293 229 374 26 callgsubr
        </CharString>
        <CharString name="lacute">
          -325 284 913 rmoveto
          -64 callsubr
          163 callsubr
          vhcurveto
          -56 -539 26 callgsubr
        </CharString>
        <CharString name="lcaron">
          -58 316 550 rmoveto
          181 callsubr
          53 callgsubr
          vhcurveto
          -87 -176 26 callgsubr
        </CharString>
        <CharString name="less">
          -84 435 606 rmoveto
          -87 -243 -169 -59 -65 hvcurveto
          -17 -15 -13 -60 -23 vvcurveto
          -85 283 -149 84 27 22 9 22 vhcurveto
          50 -254 117 53 vvcurveto
          29 210 125 93 43 vhcurveto
          18 9 8 8 15 vvcurveto
          21 -29 59 -37 vhcurveto
          endchar
        </CharString>
        <CharString name="lessequal">
          -77 454 574 rmoveto
          -102 -191 -65 -45 -61 hvcurveto
          -22 -16 -18 -48 -23 vvcurveto
          -85 291 -63 73 38 21 15 22 vhcurveto
          50 -283 56 17 vvcurveto
          25 151 20 144 29 vhcurveto
          20 4 6 12 15 vvcurveto
          22 -29 58 -38 vhcurveto
          34 -480 rmoveto
          30 -100 21 -113 32 vhcurveto
          30 -107 -47 21 -34 hhcurveto
          -30 -39 -43 -35 -26 250 -60 137 37 46 12 18 hvcurveto
          endchar
        </CharString>
        <CharString name="logicalnot">
          -63 83 503 rmoveto
          -18 -5 -8 -17 -30 43 -78 52 hvcurveto
          92 85 9 86 hhcurveto
          36 41 -1 -10 hvcurveto
          -86 -113 -164 -26 vvcurveto
          -14 9 -11 19 85 133 225 85 39 -28 68 -41 8 vhcurveto
          9 -44 -88 2 -15 hhcurveto
          endchar
        </CharString>
        <CharString name="lozenge">
          -137 201 614 rmoveto
          -56 -136 -218 -69 -27 82 -209 15 -4 hvcurveto
          -8 10 50 -25 32 hhcurveto
          53 138 203 81 13 -11 22 -12 28 hvcurveto
          -33 73 -22 97 -18 10 rrcurveto
          9 -16 -44 24 -32 hhcurveto
          90 -270 rmoveto
          -30 -67 -36 -64 -58 -63 -12 39 -28 99 -11 30 27 72 35 55 50 52 16 -36 25 -67 22 -50 rrcurveto
          endchar
        </CharString>
        <CharString name="lslash">
          -176 292 398 rmoveto
          76 25 41 18 25 vvcurveto
          17 -19 4 -25 -7 -23 -2 -4 -30 vhcurveto
          11 79 8 86 36 vvcurveto
          54 -71 72 -29 -23 -8 -12 -17 -113 -13 -112 -17 -99 vhcurveto
          -63 -15 -54 -19 -22 vvcurveto
          -17 28 -40 33 8 12 3 5 16 vhcurveto
          -29 -135 -30 -95 -14 vvcurveto
          -30 58 -64 29 32 52 222 140 32 vhcurveto
          endchar
        </CharString>
        <CharString name="m">
          260 698 528 rmoveto
          -77 -96 -113 -97 -39 hvcurveto
          1 31 0 29 16 vvcurveto
          53 -70 81 -33 -89 -69 -151 -136 -58 vhcurveto
          22 75 21 71 60 vvcurveto
          32 -55 57 -54 -43 26 -177 -143 -42 vhcurveto
          -15 -49 -13 -35 -29 vvcurveto
          -21 56 -70 31 38 60 92 51 30 vhcurveto
          120 71 36 95 27 hhcurveto
          9 0 -16 -23 hvcurveto
          -156 -33 -49 -37 vvcurveto
          -30 48 -46 26 37 17 63 63 33 vhcurveto
          162 85 36 69 31 hhcurveto
          7 3 -14 -19 hvcurveto
          -66 -52 -130 -82 vvcurveto
          -35 12 -12 21 90 55 294 79 40 -33 103 -58 vhcurveto
          endchar
        </CharString>
        <CharString name="macron">
          44 595 rmoveto
          -1 callgsubr
          202 callsubr
          endchar
        </CharString>
        <CharString name="minus">
          41 95 267 rmoveto
          89 413 14 91 23 -49 6 -68 -48 -172 -7 -4 -45 hvcurveto
          -7 -72 -68 -2 285 callsubr
          hvcurveto
          endchar
        </CharString>
        <CharString name="multiply">
          -126 496 483 rmoveto
          32 -49 49 -25 -40 -66 -76 -79 -70 vhcurveto
          -22 37 -15 34 27 vvcurveto
          32 -95 24 -51 -17 -1 -11 -17 -28 52 -95 66 -94 vhcurveto
          -87 -89 -58 -43 -15 vvcurveto
          -25 38 -49 39 25 36 39 85 82 vhcurveto
          -70 59 61 -54 40 hhcurveto
          21 11 14 24 29 -55 67 -55 73 hvcurveto
          120 120 56 44 15 vvcurveto
          endchar
        </CharString>
        <CharString name="n">
          -5 393 528 -50 callgsubr
        </CharString>
        <CharString name="nacute">
          -7 312 554 74 callsubr
          80 -26 -50 callgsubr
        </CharString>
        <CharString name="ncaron">
          -7 301 546 -18 callsubr
          91 -18 -50 callgsubr
        </CharString>
        <CharString name="nine">
          -53 187 435 rmoveto
          70 95 123 29 10 12 -27 -24 vhcurveto
          -29 -4 -18 -21 vvcurveto
          -10 9 -8 19 -4 vhcurveto
          -43 -37 -42 -50 -48 hhcurveto
          -22 -21 21 20 hvcurveto
          312 60 rmoveto
          4 -1 5 -3 4 vhcurveto
          -5 20 -19 14 -26 5 rrcurveto
          4 17 1 18 20 vvcurveto
          66 -34 87 -96 -115 -139 -171 -148 -57 91 -100 64 23 27 6 11 28 vhcurveto
          -16 -67 -10 -68 -50 vvcurveto
          -61 12 -53 33 40 34 201 133 44 vhcurveto
          10 30 15 36 13 32 rrcurveto
          16 23 9 22 21 vvcurveto
          endchar
        </CharString>
        <CharString name="notequal">
          25 268 333 rmoveto
          -13 -33 rlineto
          -99 -6 -91 -10 -13 vvcurveto
          -29 28 -58 26 vhcurveto
          28 30 0 30 hhcurveto
          -20 -51 -10 -32 -16 vvcurveto
          -19 15 -14 18 20 39 58 78 43 vhcurveto
          9 9 1 1 9 hvcurveto
          147 14 105 36 38 vvcurveto
          24 -40 9 -65 -17 -44 -1 -3 -53 vhcurveto
          11 24 11 24 10 23 rrcurveto
          85 8 132 20 38 vvcurveto
          41 -92 5 -80 1 vhcurveto
          4 14 4 12 3 11 rrcurveto
          9 36 10 23 15 vvcurveto
          22 -14 17 -20 -44 -25 -45 -106 -44 vhcurveto
          -106 -3 -122 -10 -30 vvcurveto
          -25 32 -60 26 31 43 2 3 46 vhcurveto
          endchar
        </CharString>
        <CharString name="ntilde">
          -7 171 558 rmoveto
          21 callsubr
          212 callsubr
          hvcurveto
          221 -30 -50 callgsubr
        </CharString>
        <CharString name="numbersign">
          221 444 469 rmoveto
          15 2 17 2 18 2 -13 -60 -15 -62 -14 -56 -35 -2 -36 -1 -36 -3 18 62 17 58 14 51 rrcurveto
          269 127 rmoveto
          6 26 3 19 11 vvcurveto
          54 -79 49 -30 -23 -7 -12 -17 -35 -6 -46 -10 -51 vhcurveto
          -29 -1 -30 -2 -31 -1 rrcurveto
          7 28 4 22 12 vvcurveto
          54 -80 49 -29 -23 -7 -12 -17 -1 vhcurveto
          -42 -7 -51 -10 -56 vhcurveto
          -99 -12 -78 -19 -32 vvcurveto
          -33 20 -47 24 10 40 6 9 55 vhcurveto
          -13 -57 -15 -57 -13 -50 rrcurveto
          -86 -12 -64 -19 -29 vvcurveto
          -33 20 -48 24 1 vhcurveto
          8 27 4 6 39 hvcurveto
          -4 -24 -1 -15 3 -5 rrcurveto
          -59 1 24 -49 29 hhcurveto
          30 21 73 98 27 hvcurveto
          29 5 31 4 31 4 25 3 rcurveline
          -12 -53 -6 -38 5 -11 rrcurveto
          -42 1 15 -43 26 hhcurveto
          36 30 79 122 34 hvcurveto
          87 11 81 16 37 vvcurveto
          21 0 18 -99 vhcurveto
          -41 hlineto
          20 69 19 66 15 56 rrcurveto
          72 11 58 17 31 vvcurveto
          21 -1 0 18 -97 hhcurveto
          endchar
        </CharString>
        <CharString name="o">
          -103 142 callsubr
          endchar
        </CharString>
        <CharString name="oacute">
          -107 331 687 rmoveto
          -64 callsubr
          163 callsubr
          vhcurveto
          100 -334 -51 callgsubr
          endchar
        </CharString>
        <CharString name="ocircumflex">
          -107 408 684 -30 callgsubr
          23 -331 -51 callgsubr
          endchar
        </CharString>
        <CharString name="odieresis">
          -107 299 605 rmoveto
          -23 callsubr
          228 callsubr
          vhcurveto
          178 hmoveto
          -23 callsubr
          228 callsubr
          vhcurveto
          -46 -252 -51 callgsubr
          endchar
        </CharString>
        <CharString name="oe">
          347 545 528 rmoveto
          -48 -53 -31 -45 -46 hvcurveto
          45 -32 -52 32 -61 hhcurveto
          -102 -131 -179 -170 -94 63 -74 72 58 54 26 41 45 hvcurveto
          -40 32 52 -27 74 hhcurveto
          101 103 57 52 16 -10 11 -31 hvcurveto
          -28 -30 -28 -126 hhcurveto
          -51 -3 17 36 21 3 12 8 17 hvcurveto
          -6 27 36 -3 42 hhcurveto
          114 callsubr
          hvcurveto
          -263 -92 rmoveto
          16 -21 2 -48 -25 vvcurveto
          -92 -62 -102 -72 -34 vhcurveto
          -11 15 -1 35 33 vvcurveto
          70 69 135 59 34 vhcurveto
          269 -31 rmoveto
          18 37 -35 -13 -39 -71 -9 -66 -9 -9 0 1 -9 hvcurveto
          52 32 42 43 35 hhcurveto
          endchar
        </CharString>
        <CharString name="ogonek">
          85 43 rmoveto
          24 -29 21 -23 -48 -114 -134 -69 67 callsubr
          hvcurveto
          24 87 42 45 vvcurveto
          endchar
        </CharString>
        <CharString name="ograve">
          140 callsubr
          -120 261 rmoveto
          -28 40 -20 63 -39 vhcurveto
          -23 callgsubr
          hvcurveto
          endchar
        </CharString>
        <CharString name="ohungarumlaut">
          -107 285 791 -9 callgsubr
          -42 -426 -51 callgsubr
          endchar
        </CharString>
        <CharString name="omacron">
          -107 331 595 rmoveto
          -1 callgsubr
          202 callsubr
          100 -242 -51 callgsubr
          endchar
        </CharString>
        <CharString name="one">
          -257 239 343 rmoveto
          35 137 23 91 77 vvcurveto
          23 -90 80 -43 -15 -14 -8 -21 vhcurveto
          -344 -89 -211 -68 vvcurveto
          -38 53 -48 29 47 23 171 159 41 vhcurveto
          endchar
        </CharString>
        <CharString name="onehalf">
          299 168 306 callgsubr
          69 48 337 callgsubr
          -260 -47 -109 -48 vvcurveto
          -27 34 -33 20 vhcurveto
          424 480 172 callsubr
          99 -706 rmoveto
          -36 -61 -8 -10 -49 hvcurveto
          74 37 117 118 98 vvcurveto
          68 -33 55 -85 -85 -54 -60 -47 -15 54 -38 17 vhcurveto
          11 14 55 43 hhcurveto
          11 8 -7 -16 hvcurveto
          -86 -231 -135 -38 vvcurveto
          -34 59 -50 31 62 199 42 41 21 -25 9 -41 vhcurveto
          endchar
        </CharString>
        <CharString name="onequarter">
          264 162 306 callgsubr
          65 52 337 callgsubr
          -251 -47 -110 -56 vvcurveto
          -27 34 -33 20 vhcurveto
          423 480 rmoveto
          -12 -4 -8 -16 -11 hvcurveto
          -127 -185 -363 -497 -43 vvcurveto
          -24 30 -31 21 34 117 165 154 115 vhcurveto
          177 237 93 112 45 vvcurveto
          37 -40 54 -30 vhcurveto
          92 293 callsubr
          -44 -27 -40 hhcurveto
          -12 -4 1 11 hvcurveto
          31 126 144 27 vvcurveto
          23 -37 37 -22 -39 -133 -187 -81 -59 51 -37 68 313 callgsubr
          18 -31 24 50 71 301 41 23 -58 46 -22 vhcurveto
          endchar
        </CharString>
        <CharString name="onesuperior">
          -398 198 663 rmoveto
          13 -53 45 -23 -8 -8 -3 -12 vhcurveto
          -187 -38 -102 -39 vvcurveto
          -20 28 -26 16 25 13 93 88 22 vhcurveto
          14 58 12 51 41 vvcurveto
          endchar
        </CharString>
        <CharString name="ordfeminine">
          -23 238 424 rmoveto
          -17 -6 4 17 26 51 141 50 19 13 -11 -17 6 hvcurveto
          -2 -1 -1 -2 vvcurveto
          -111 -22 -78 -44 -15 hhcurveto
          201 159 rmoveto
          56 -73 68 -53 -128 -68 -213 -59 -41 66 -57 44 39 42 23 36 35 vhcurveto
          -34 13 24 -25 22 hhcurveto
          15 2 34 43 hvcurveto
          50 11 47 16 vvcurveto
          4 -1 4 -2 5 vhcurveto
          7 17 5 16 10 vvcurveto
          endchar
        </CharString>
        <CharString name="ordmasculine">
          -107 437 578 rmoveto
          45 -38 84 -69 -111 -86 -120 -126 -67 49 -58 49 129 77 134 108 vhcurveto
          -211 -110 rmoveto
          53 46 85 53 13 vhcurveto
          15 -9 6 -21 -22 vvcurveto
          -70 -64 -71 -35 -9 vhcurveto
          -16 16 -5 13 22 vvcurveto
          endchar
        </CharString>
        <CharString name="oslash">
          -107 179 100 rmoveto
          -5 -6 3 4 -5 hvcurveto
          50 48 70 70 98 103 rrcurveto
          -85 -23 -92 -143 -87 hhcurveto
          141 336 rmoveto
          10 10 -4 -7 9 hvcurveto
          -36 -40 -41 -47 -48 -51 -32 -34 -31 -33 -28 -32 rrcurveto
          74 6 111 174 70 hhcurveto
          155 -7 rmoveto
          30 33 8 24 13 vvcurveto
          17 -13 13 -19 -18 -20 -12 -22 -25 vhcurveto
          21 -28 -34 13 -39 hhcurveto
          -140 -157 -194 -155 -33 12 -30 18 -26 hvcurveto
          -25 -31 -15 -22 -9 vvcurveto
          -10 4 -9 16 10 17 6 30 37 vhcurveto
          -21 29 31 -13 25 hhcurveto
          154 158 189 152 26 -6 25 -11 24 hvcurveto
          endchar
        </CharString>
        <CharString name="otilde">
          140 callsubr
          -28 313 rmoveto
          212 callsubr
          21 callsubr
          endchar
        </CharString>
        <CharString name="p">
          -21 179 196 rmoveto
          184 62 91 14 18 hhcurveto
          25 4 -31 -19 -69 -109 -121 -108 -21 hvcurveto
          226 394 rmoveto
          -52 -60 -32 -48 -51 hvcurveto
          64 -14 -70 33 -23 hhcurveto
          -22 -7 -12 -18 hvcurveto
          -242 -115 -360 -67 vvcurveto
          -29 39 -64 29 25 35 141 121 29 vhcurveto
          4 4 0 4 hhcurveto
          170 197 206 109 91 -75 107 -47 hvcurveto
          endchar
        </CharString>
        <CharString name="paragraph">
          33 83 472 rmoveto
          -46 55 -62 46 21 29 16 24 28 vhcurveto
          -47 -181 -48 -119 -30 vvcurveto
          -31 43 -31 25 26 62 210 140 38 vhcurveto
          33 121 31 157 34 vvcurveto
          3 0 6 -1 4 vhcurveto
          28 4 47 11 28 9 rrcurveto
          -43 -348 -113 -253 -36 vvcurveto
          -29 44 -33 23 26 62 210 140 39 vhcurveto
          24 84 41 200 33 vvcurveto
          50 -41 60 -24 8 vhcurveto
          5 -12 -19 3 -25 hhcurveto
          -59 -101 -11 -22 -70 hvcurveto
          -122 -38 -74 -151 -111 vvcurveto
          endchar
        </CharString>
        <CharString name="parenleft">
          -81 211 258 rmoveto
          368 365 116 83 vvcurveto
          33 -33 30 -37 -110 -323 -265 -348 -214 185 -161 174 22 11 10 13 vhcurveto
          76 -254 29 230 vvcurveto
          endchar
        </CharString>
        <CharString name="parenright">
          -29 -4 -105 rmoveto
          92 368 281 440 -1 hvcurveto
          135 -106 142 -107 -52 -30 -27 -49 vhcurveto
          -84 155 14 -194 -370 -353 -193 -71 vvcurveto
          -13 12 -11 22 vhcurveto
          endchar
        </CharString>
        <CharString name="partialdiff">
          234 callgsubr
          39 615 rmoveto
          267 callgsubr
          49 -49 15 -58 4 -62 242 callsubr
          186 -145 130 -86 hvcurveto
          endchar
        </CharString>
        <CharString name="percent">
          432 15 callgsubr
          endchar
        </CharString>
        <CharString name="period">
          -322 191 callsubr
          endchar
        </CharString>
        <CharString name="periodcentered">
          -322 33 346 rmoveto
          268 callgsubr
        </CharString>
        <CharString name="perthousand">
          744 15 callgsubr
          289 -290 rmoveto
          -13 -9 28 33 39 42 68 25 7 14 -26 -38 -62 -48 -42 -18 hvcurveto
          55 290 rmoveto
          -110 -86 -159 -74 -84 48 -93 68 113 93 125 106 53 -39 126 -87 hvcurveto
          endchar
        </CharString>
        <CharString name="pi">
          311 855 506 rmoveto
          66 -108 13 -153 -136 -356 -15 -53 -35 43 -62 31 44 33 6 6 52 vhcurveto
          -6 -51 -6 -64 -15 -52 rrcurveto
          -53 -179 -54 26 -33 vvcurveto
          -36 38 -31 52 70 106 215 193 8 -2 7 -2 8 vhcurveto
          33 2 39 1 46 1 rrcurveto
          -24 -52 -11 -75 -93 vvcurveto
          -132 82 -83 81 32 26 11 24 vhcurveto
          52 -91 -11 139 vvcurveto
          120 25 56 16 46 vhcurveto
          100 3 68 13 41 vvcurveto
          endchar
        </CharString>
        <CharString name="plus">
          41 251 390 rmoveto
          -7 -72 -68 -2 285 callsubr
          23 45 1 3 54 hvcurveto
          -11 -58 -10 -37 -18 vvcurveto
          -39 54 -48 29 23 11 37 159 37 vhcurveto
          3 15 rlineto
          125 14 119 27 49 vvcurveto
          23 -49 6 -68 -19 -39 -1 -2 -42 vhcurveto
          10 46 7 36 21 vvcurveto
          24 -78 79 -45 -16 -13 -8 -24 -69 -4 -60 -6 -52 vhcurveto
          endchar
        </CharString>
        <CharString name="plusminus">
          41 497 164 rmoveto
          -70 -250 -21 -67 hhcurveto
          -19 -11 -7 -17 -31 36 -49 42 106 345 23 71 24 -57 7 -55 hvcurveto
          -206 319 rmoveto
          -2 -44 -45 -1 -39 hhcurveto
          -20 -7 -6 -16 -31 38 -63 40 20 38 1 3 47 hvcurveto
          -10 -52 -8 -35 -15 vvcurveto
          -34 53 -43 27 18 26 64 110 25 vhcurveto
          4 18 rlineto
          107 15 99 25 42 vvcurveto
          26 -43 9 -56 -17 -30 -2 -2 -38 vhcurveto
          6 34 3 27 16 vvcurveto
          22 -76 70 -40 -13 -13 -8 -18 -56 -3 -51 -5 -45 vhcurveto
          endchar
        </CharString>
        <CharString name="product">
          -60 376 820 rmoveto
          -146 -110 0 -65 hvcurveto
          -191 -96 -387 -69 vvcurveto
          -28 51 -64 22 53 100 528 139 1 vhcurveto
          16 61 75 8 76 hhcurveto
          -10 -169 -83 -362 -68 vvcurveto
          -28 51 -64 22 52 102 510 132 133 -41 29 -180 vhcurveto
          endchar
        </CharString>
        <CharString name="q">
          -40 427 -42 rmoveto
          -18 -32 -9 -13 -28 hvcurveto
          61 164 69 150 32 vvcurveto
          25 -81 47 -16 -18 -9 -5 -12 -3 vhcurveto
          -28 -124 -124 -74 -39 -1 rrcurveto
          -15 -3 1 12 52 131 203 95 hvcurveto
          29 29 -41 23 hhcurveto
          18 8 13 15 51 -69 84 -67 -161 -151 -272 -99 -58 78 -87 59 23 35 12 25 37 hvcurveto
          -41 -103 -38 -98 -19 vvcurveto
          -35 32 -50 27 30 52 54 48 75 vhcurveto
          49 31 26 17 19 vvcurveto
          18 -20 27 -25 vhcurveto
          endchar
        </CharString>
        <CharString name="question">
          67 573 645 203 callsubr
          -176 -66 -131 vvcurveto
          -52 10 -43 26 34 18 64 43 21 vhcurveto
          44 91 154 72 129 vvcurveto
          -396 -542 rmoveto
          -37 64 -65 40 22 27 28 17 32 -51 103 -32 -33 -37 -46 -32 vhcurveto
          endchar
        </CharString>
        <CharString name="questiondown">
          -163 -6 51 rmoveto
          -99 70 -58 97 85 91 72 80 26 -54 53 -17 -11 -14 -9 -3 -8 vhcurveto
          -12 -6 -3 -13 -18 vvcurveto
          -23 -21 -20 -31 -21 -20 12 23 vhcurveto
          90 176 66 131 vvcurveto
          52 -10 43 -26 -34 -18 -64 -43 -21 vhcurveto
          -44 -91 -154 -72 -129 vvcurveto
          396 542 rmoveto
          37 -64 65 -40 -22 -27 -28 -17 -32 51 -103 32 33 37 46 32 vhcurveto
          endchar
        </CharString>
        <CharString name="quotedbl">
          -75 232 823 rmoveto
          13 -58 46 -24 -8 -7 332 callgsubr
          33 -25 15 46 21 255 40 vhcurveto
          210 hmoveto
          13 -58 46 -24 -8 -8 332 callgsubr
          34 -25 15 45 22 255 40 vhcurveto
          endchar
        </CharString>
        <CharString name="quotedblbase">
          41 50 -225 81 callsubr
        </CharString>
        <CharString name="quotedblleft">
          3 222 882 rmoveto
          155 callgsubr
          254 hmoveto
          155 callgsubr
          endchar
        </CharString>
        <CharString name="quotedblright">
          181 554 528 rmoveto
          155 callsubr
          -243 hmoveto
          155 callsubr
          endchar
        </CharString>
        <CharString name="quoteleft">
          -234 282 882 rmoveto
          155 callgsubr
          endchar
        </CharString>
        <CharString name="quoteright">
          -234 195 528 rmoveto
          155 callsubr
          endchar
        </CharString>
        <CharString name="quotesinglbase">
          121 50 -225 81 callsubr
        </CharString>
        <CharString name="quotesingle">
          -339 258 823 rmoveto
          13 -70 46 -23 -8 -8 -4 -11 vhcurveto
          -129 -30 -133 -31 vvcurveto
          -21 34 -25 14 vhcurveto
          41 -18 50 279 34 vvcurveto
          endchar
        </CharString>
        <CharString name="r">
          -197 324 533 1 callsubr
          endchar
        </CharString>
        <CharString name="racute">
          -233 324 533 1 callsubr
          52 245 rmoveto
          163 callsubr
          hvcurveto
          -64 callsubr
          vhcurveto
          endchar
        </CharString>
        <CharString name="radical">
          65 324 -6 rmoveto
          -19 132 3 149 -20 20 rrcurveto
          38 -22 -40 28 -44 hhcurveto
          -56 -101 -104 -74 -16 9 -10 15 36 46 66 10 33 hvcurveto
          20 -104 40 -174 25 -59 rrcurveto
          -32 13 58 -33 18 hhcurveto
          56 54 198 187 73 hvcurveto
          85 216 85 161 31 vvcurveto
          28 -47 25 -35 -58 -116 -320 -363 -111 vhcurveto
          endchar
        </CharString>
        <CharString name="rcaron">
          -233 222 546 -18 callsubr
          102 -13 1 callsubr
          endchar
        </CharString>
        <CharString name="registered">
          208 386 383 rmoveto
          4 18 2 12 11 vvcurveto
          7 -3 8 -5 8 vhcurveto
          3 9 11 3 11 hhcurveto
          24 7 -3 -6 -23 -34 -20 -26 -18 hvcurveto
          -18 -66 rmoveto
          -44 24 56 -56 44 hhcurveto
          18 8 9 10 14 -33 22 -26 23 hvcurveto
          -20 19 -6 13 10 15 83 36 60 vvcurveto
          41 -34 31 -86 -42 -58 -25 -16 -8 15 -24 15 -10 vhcurveto
          -7 -89 -34 -61 -26 vvcurveto
          -14 27 -30 14 12 10 33 50 15 vhcurveto
          -25 -166 rmoveto
          293 callgsubr
          -176 -104 -100 -170 hvcurveto
          113 526 rmoveto
          294 callgsubr
          295 callsubr
          hvcurveto
          endchar
        </CharString>
        <CharString name="ring">
          61 774 112 callsubr
          endchar
        </CharString>
        <CharString name="s">
          -92 456 401 2 callgsubr
          endchar
        </CharString>
        <CharString name="sacute">
          -92 305 687 rmoveto
          -64 callsubr
          163 callsubr
          vhcurveto
          151 -286 2 callgsubr
          endchar
        </CharString>
        <CharString name="scaron">
          -92 419 728 -31 callsubr
          37 -327 2 callgsubr
          endchar
        </CharString>
        <CharString name="section">
          -30 271 200 rmoveto
          -40 33 -35 31 45 vvcurveto
          47 53 37 52 27 vhcurveto
          37 -36 30 -35 -36 vvcurveto
          -60 -46 -41 -51 -12 vhcurveto
          115 494 rmoveto
          37 3 -113 57 hhcurveto
          29 19 32 59 86 -66 57 -63 -78 -156 -104 -106 -36 21 -33 28 -32 hvcurveto
          -79 -46 -79 -73 -75 -140 186 -50 -83 vvcurveto
          -31 -25 -24 -43 -29 -26 19 28 -21 vhcurveto
          27 -21 -16 31 -20 hhcurveto
          -23 -27 -62 -35 -38 76 -86 106 142 63 94 71 41 -15 32 -21 27 hvcurveto
          90 29 69 66 70 vvcurveto
          173 -204 90 1 55 vhcurveto
          38 40 42 45 vhcurveto
          endchar
        </CharString>
        <CharString name="semicolon">
          -253 120 439 rmoveto
          -44 66 -109 37 28 18 27 30 45 -40 149 -58 -23 -28 -60 -38 vhcurveto
          -69 -657 81 callsubr
        </CharString>
        <CharString name="seven">
          -87 436 726 rmoveto
          10 -11 -55 5 -70 hhcurveto
          -109 -106 -10 -28 -27 54 -82 36 hvcurveto
          32 94 14 33 hhcurveto
          20 15 -1 -9 hvcurveto
          -52 -277 -361 -99 vvcurveto
          -41 38 -45 29 41 74 171 179 103 vhcurveto
          55 95 68 106 36 vvcurveto
          50 -36 64 -28 25 vhcurveto
          endchar
        </CharString>
        <CharString name="six">
          -17 188 146 rmoveto
          -22 -12 16 27 46 29 60 41 62 hvcurveto
          80 -14 47 -32 -33 vvcurveto
          -60 -77 -72 -86 vhcurveto
          99 298 rmoveto
          88 114 99 104 27 vvcurveto
          28 -55 25 -41 -75 -290 -381 -183 -88 62 -73 96 163 178 154 120 74 -110 65 -115 14 vhcurveto
          endchar
        </CharString>
        <CharString name="slash">
          -277 73 -80 rmoveto
          23 83 196 177 73 hvcurveto
          113 275 56 107 54 vvcurveto
          45 -71 83 -25 -21 -1 -13 -17 -6 vhcurveto
          -74 -212 -228 -529 -72 vvcurveto
          -31 48 -63 30 vhcurveto
          endchar
        </CharString>
        <CharString name="space">
          -174 endchar
        </CharString>
        <CharString name="sterling">
          173 149 116 rmoveto
          -9 -17 31 15 16 6 15 23 13 14 -11 -18 16 hvcurveto
          -33 -19 -17 -15 -10 hhcurveto
          252 206 rmoveto
          103 10 110 22 1 42 rrcurveto
          29 -45 5 -53 -33 -29 0 1 -24 vhcurveto
          129 36 18 26 27 hhcurveto
          24 7 -21 -19 hvcurveto
          -21 -4 -8 -17 vvcurveto
          -16 2 -10 16 28 61 53 39 77 -55 93 -71 -127 -62 -106 -188 -50 vhcurveto
          4 -26 -23 3 -37 hhcurveto
          -18 -33 -52 -41 -32 30 -11 66 hvcurveto
          10 hlineto
          -4 -18 -4 -16 -5 -15 rrcurveto
          22 -29 -33 16 -42 hhcurveto
          -79 -48 -70 -49 -86 95 -86 38 57 48 25 34 38 hvcurveto
          -40 43 52 -34 68 hhcurveto
          73 153 74 70 40 -24 36 -37 hvcurveto
          -41 -58 -99 -80 hhcurveto
          -32 -27 15 22 -25 hvcurveto
          13 24 10 23 5 21 rrcurveto
          endchar
        </CharString>
        <CharString name="summation">
          274 499 356 rmoveto
          0 vlineto
          5 -1 4 -1 4 vhcurveto
          17 -7 -19 11 -39 -11 -111 -16 -46 hhcurveto
          -33 -16 1 16 33 146 137 114 hvcurveto
          22 -7 -10 17 hhcurveto
          13 20 39 29 37 -17 37 -54 hvcurveto
          -127 -1 -273 -184 -130 vvcurveto
          -52 44 -38 80 -10 vhcurveto
          -81 -60 -69 -76 -70 vvcurveto
          -32 73 -48 80 154 204 26 74 23 -20 22 -48 vhcurveto
          -56 -56 -32 -125 hhcurveto
          -21 -20 0 8 20 37 33 63 49 hvcurveto
          61 48 121 51 9 32 rrcurveto
          0 0 1 1 vvcurveto
          endchar
        </CharString>
        <CharString name="t">
          -108 284 409 rmoveto
          252 callgsubr
          -24 -25 -1 -1 -24 vhcurveto
          18 callsubr
          endchar
        </CharString>
        <CharString name="tcaron">
          -37 353 514 rmoveto
          -24 -25 -1 -1 -24 hvcurveto
          18 callsubr
          252 callgsubr
          vhcurveto
          88 275 rmoveto
          53 callgsubr
          181 callsubr
          vhcurveto
          endchar
        </CharString>
        <CharString name="thorn">
          -33 173 185 rmoveto
          6 23 10 40 11 46 11 46 rlinecurve
          23 30 57 23 30 hhcurveto
          36 35 -18 -34 -80 -144 -69 -59 hvcurveto
          150 327 rmoveto
          -30 -37 -8 -12 -35 hvcurveto
          18 88 13 74 28 vvcurveto
          54 -74 299 callsubr
          -285 -171 -535 -65 vvcurveto
          -28 55 -64 29 17 43 161 130 33 vhcurveto
          -7 16 19 -4 19 hhcurveto
          104 210 113 135 81 -118 103 -54 hvcurveto
          endchar
        </CharString>
        <CharString name="three">
          -12 153 357 rmoveto
          -2 vlineto
          -12 6 -9 10 -6 vhcurveto
          44 -33 120 18 -55 -104 -360 -46 -49 vvcurveto
          -25 27 -22 81 178 252 117 129 64 -51 43 -89 20 vhcurveto
          82 56 73 83 67 vvcurveto
          74 -72 80 -91 -89 -172 -50 -60 -22 68 -66 23 vhcurveto
          40 71 65 61 hhcurveto
          5 4 -4 -8 -93 -165 -73 -45 -55 hvcurveto
          -7 -5 -4 -7 -8 vvcurveto
          endchar
        </CharString>
        <CharString name="threequarters">
          403 200 559 rmoveto
          -1 vlineto
          -3 vlineto
          7 -52 111 36 -42 -50 -226 -46 -29 vvcurveto
          -16 15 -13 51 113 157 73 81 41 -32 30 -57 14 vhcurveto
          52 40 47 55 30 vvcurveto
          47 -44 50 -59 -55 -107 -39 -37 -13 41 -47 15 vhcurveto
          14 58 47 36 hhcurveto
          3 1 -1 -2 -41 -126 -61 -14 -44 hvcurveto
          -1 -2 0 -2 -2 vvcurveto
          525 236 172 callsubr
          91 293 callsubr
          -43 -27 -40 hhcurveto
          -13 -3 1 11 hvcurveto
          31 125 144 27 vvcurveto
          23 -37 37 -22 -38 -133 -187 -81 -59 51 -37 67 313 callgsubr
          12 -31 25 49 72 301 41 23 -52 46 -23 vhcurveto
          endchar
        </CharString>
        <CharString name="threesuperior">
          -259 127 521 rmoveto
          -1 vlineto
          0 vlineto
          -2 vlineto
          4 -42 89 29 -34 -37 -179 -40 -22 vvcurveto
          -11 13 -10 39 89 123 56 64 31 -30 23 -42 12 vhcurveto
          42 31 38 44 24 vvcurveto
          37 -34 38 -46 -44 -84 -30 -28 -11 32 -36 13 vhcurveto
          18 38 38 27 hhcurveto
          3 1 -1 -2 -35 -105 -48 -5 -35 hvcurveto
          endchar
        </CharString>
        <CharString name="tilde">
          -33 749 rmoveto
          212 callsubr
          21 callsubr
          endchar
        </CharString>
        <CharString name="trademark">
          170 332 638 rmoveto
          23 -47 30 -101 -66 -76 -2 -18 -16 27 -32 14 21 10 2 1 29 vhcurveto
          -9 -80 -33 -85 -25 vvcurveto
          -14 32 -28 14 9 10 44 39 10 vhcurveto
          17 68 18 54 4 27 rrcurveto
          41 25 -1 23 hhcurveto
          19 9 6 7 hvcurveto
          317 47 rmoveto
          -27 -74 -94 -46 -48 hvcurveto
          -21 36 -18 52 21 vvcurveto
          12 -56 30 -10 -10 -2 -6 -8 vhcurveto
          -47 -60 -166 -29 vvcurveto
          -13 26 -34 12 11 14 42 51 16 vhcurveto
          5 16 7 22 5 13 15 -25 8 -16 10 -8 rrcurveto
          -9 10 19 -6 9 hhcurveto
          34 39 60 29 34 hvcurveto
          -20 -38 -12 -54 -28 vvcurveto
          -23 16 -26 14 19 5 35 82 26 vhcurveto
          17 57 22 53 32 vvcurveto
          15 -19 18 -16 vhcurveto
          endchar
        </CharString>
        <CharString name="two">
          24 448 182 rmoveto
          -51 -113 -14 -19 -103 hvcurveto
          180 102 151 156 152 vvcurveto
          106 -69 80 -110 -128 -83 -91 -69 -29 71 -49 34 vhcurveto
          17 21 86 67 hhcurveto
          23 15 -13 -30 -136 -363 -221 1 -52 hvcurveto
          -47 89 -78 46 95 307 70 56 29 -33 11 -64 vhcurveto
          endchar
        </CharString>
        <CharString name="twosuperior">
          -224 189 587 rmoveto
          8 11 43 33 hhcurveto
          9 7 -7 -12 hvcurveto
          -68 -181 -107 -29 vvcurveto
          -25 46 -40 25 48 156 33 31 16 -19 8 -33 -30 -52 -7 -10 -39 vhcurveto
          57 26 99 98 78 vvcurveto
          54 -26 43 -66 -66 -43 -48 -36 -11 42 -30 14 vhcurveto
          endchar
        </CharString>
        <CharString name="u">
          -73 406 528 -67 callgsubr
          endchar
        </CharString>
        <CharString name="uacute">
          -80 403 528 -67 callgsubr
          50 250 rmoveto
          163 callsubr
          hvcurveto
          -64 callsubr
          vhcurveto
          endchar
        </CharString>
        <CharString name="ucircumflex">
          -80 194 570 36 callsubr
          209 -42 -67 callgsubr
          endchar
        </CharString>
        <CharString name="udieresis">
          -80 428 563 rmoveto
          228 callsubr
          -23 callsubr
          hvcurveto
          -178 hmoveto
          228 callsubr
          -23 callsubr
          hvcurveto
          153 -35 -67 callgsubr
          endchar
        </CharString>
        <CharString name="ugrave">
          -80 262 610 rmoveto
          -23 callgsubr
          -28 40 -20 63 -39 hvcurveto
          141 -82 -67 callgsubr
          endchar
        </CharString>
        <CharString name="uhungarumlaut">
          -80 209 552 rmoveto
          22 21 23 43 37 hvcurveto
          36 42 22 13 40 vvcurveto
          38 -26 40 -39 -30 -20 -29 -74 -28 vhcurveto
          -17 -44 -9 -19 -29 vvcurveto
          -20 10 -24 21 vhcurveto
          194 -24 -67 callgsubr
          67 251 rmoveto
          -34 -9 -24 -68 -43 hvcurveto
          -30 -47 -7 -25 -19 vvcurveto
          -18 9 -25 20 25 28 28 28 32 vhcurveto
          44 38 27 11 47 vvcurveto
          41 -25 33 -37 vhcurveto
          endchar
        </CharString>
        <CharString name="umacron">
          -80 187 572 rmoveto
          202 callsubr
          -1 callgsubr
          216 -44 -67 callgsubr
          endchar
        </CharString>
        <CharString name="underscore">
          60 590 29 rmoveto
          15 -15 11 -24 7 vhcurveto
          17 -52 -104 1 -84 hhcurveto
          -151 -136 -9 -33 -37 34 -47 25 54 36 9 4 66 hvcurveto
          194 13 157 4 45 vvcurveto
          endchar
        </CharString>
        <CharString name="uni00A0">
          endchar
        </CharString>
        <CharString name="uni00AD">
          41 210 callgsubr
        </CharString>
        <CharString name="uni00B5">
          -120 367 528 rmoveto
          -16 -9 -7 -18 -5 hvcurveto
          -161 -42 -155 -203 -34 hhcurveto
          -2 -1 2 4 hvcurveto
          112 70 151 70 vvcurveto
          19 -53 31 -26 -44 -30 -203 -167 -58 vhcurveto
          -66 -190 -58 -97 -22 vvcurveto
          -22 44 -27 32 29 72 165 76 30 vhcurveto
          -18 12 17 -11 20 hhcurveto
          49 65 76 75 49 hvcurveto
          -7 -34 -5 -33 -26 vvcurveto
          -44 23 -14 24 20 18 10 32 10 vhcurveto
          55 184 63 158 21 vvcurveto
          38 -57 73 -34 vhcurveto
          endchar
        </CharString>
        <CharString name="uni0122">
          38 215 -13 rmoveto
          -28 -48 -39 -25 -26 26 -25 37 5 hvcurveto
          48 callsubr
          vhcurveto
          211 400 83 callgsubr
          endchar
        </CharString>
        <CharString name="uni0123">
          -88 330 552 rmoveto
          28 48 39 25 26 -24 20 -39 hvcurveto
          29 47 62 18 37 vvcurveto
          23 -19 8 -16 -78 -89 -87 -69 -37 43 -50 55 vhcurveto
          -198 -401 rmoveto
          52 93 198 71 27 0 -49 -40 -7 0 -7 1 -7 vhcurveto
          -77 -33 -115 -76 -32 hhcurveto
          -8 -4 2 11 hvcurveto
          277 161 rmoveto
          1 8 1 9 9 vvcurveto
          84 -20 106 -102 -157 -123 -280 -99 -57 65 -80 56 29 41 16 25 42 vhcurveto
          -112 -28 -23 -99 -52 -65 -20 101 -37 hhcurveto
          -23 -28 -42 -37 -40 75 -83 98 196 6 310 153 60 hvcurveto
          14 25 9 26 23 vvcurveto
          12 -6 12 -9 10 vhcurveto
          endchar
        </CharString>
        <CharString name="uni0136">
          43 242 -13 rmoveto
          -28 -48 -39 -25 -26 26 -25 37 5 hvcurveto
          48 callsubr
          vhcurveto
          -124 26 77 callsubr
        </CharString>
        <CharString name="uni0137">
          -64 268 -7 rmoveto
          53 callgsubr
          181 callsubr
          vhcurveto
          -6 125 111 callsubr
        </CharString>
        <CharString name="uni013B">
          -13 198 -123 rmoveto
          48 callsubr
          -28 -48 -39 -25 -26 26 -25 37 5 vhcurveto
          117 782 13 callgsubr
        </CharString>
        <CharString name="uni013C">
          -325 -22 -285 rmoveto
          181 callsubr
          53 callgsubr
          vhcurveto
          251 659 26 callgsubr
        </CharString>
</ttFont>
